<?xml version="1.0" encoding="utf-8"?>
<!-- Generator: Adobe Illustrator 16.0.0, SVG Export Plug-In . SVG Version: 6.00 Build 0)  -->
<!DOCTYPE svg PUBLIC "-//W3C//DTD SVG 1.1//EN" "http://www.w3.org/Graphics/SVG/1.1/DTD/svg11.dtd">
<svg version="1.1" id="Layer_1" xmlns="http://www.w3.org/2000/svg" xmlns:xlink="http://www.w3.org/1999/xlink" x="0px" y="0px"
	 width="100px" height="100px" viewBox="0 0 100 100" enable-background="new 0 0 100 100" xml:space="preserve">
<circle fill="#66C2CC" cx="51.366" cy="49.75" r="48"/>
<path fill="#5296A0" d="M21.507,60.189l0.744-0.688l-1.484-0.88l0.067-1.203l0.006-0.852l0.786-1.94l1.083-2.667l1.792-2.875
	l1.306-4.991l0.153-0.718l2.417-5.833l-0.343-0.354l0.052-0.396l0.223-0.174l0.068-0.701l0.208-0.625l0.5-0.417l0.417-0.125
	l0.625,0.208l0.458,0.375l0.309,0.531l1.691-0.614l2.875-0.625l12.375-3.667l2.542-1.583l-0.458-2.625l3.211-0.445l2.664,1.486
	l14.166-4.75L71,22.5l0.708-1.25l0.584-0.833l0.666,0.125l0.417-0.208l23.167,13.375c0,0,7.792,18.717-2.123,37.29
	C86.5,85.833,74.711,91.71,74.711,91.71L36.158,69.502l0.511-0.705h-0.333L21.507,60.189z"/>
<g>
	<rect x="49.997" y="33.83" fill="#4C4C4D" width="2.735" height="27.627"/>
	<rect x="49.742" y="26.807" fill="#B0AFB0" width="3.246" height="7.52"/>
	<rect x="49.608" y="26.305" fill="#4C4C4D" width="3.52" height="0.501"/>
	<rect x="49.742" y="58.713" fill="#B0AFB0" width="3.246" height="3.172"/>
	<rect x="43.389" y="62.537" fill="#C5CBCB" width="15.954" height="2.752"/>
	<rect x="43.389" y="61.881" fill="#EAEAEA" width="15.954" height="0.67"/>
	<rect x="36.158" y="65.902" fill="#B0AFB0" width="30.417" height="3.6"/>
	<rect x="36.158" y="65.289" fill="#EAEAEA" width="30.417" height="0.668"/>
</g>
<g>
	<g>
		<g>
			<polygon fill="#F8BE58" points="32.313,51.18 32.479,51.262 32.417,51.371 32.248,51.316 			"/>
			<polygon fill="#F8BE58" points="27.748,51.186 27.582,51.262 27.668,51.336 27.84,51.262 			"/>
			<path fill="#F8BE58" d="M32.449,51.348c0,0.104-0.081,0.176-0.181,0.176h-4.462c-0.098,0-0.181-0.072-0.181-0.176l0,0
				c0-0.094,0.083-0.174,0.181-0.174h4.462C32.368,51.174,32.449,51.254,32.449,51.348L32.449,51.348z"/>
		</g>
		<path fill="#E28F49" d="M32.628,51.596c0,0.195-0.089,0.344-0.191,0.344h-4.796c-0.109,0-0.195-0.148-0.195-0.344l0,0
			c0-0.199,0.086-0.352,0.195-0.352h4.796C32.54,51.244,32.628,51.396,32.628,51.596L32.628,51.596z"/>
		<g>
			<polygon fill="#F8BE58" points="32.41,57.25 32.577,57.336 32.511,57.439 32.344,57.377 			"/>
			<polygon fill="#F8BE58" points="27.847,57.256 27.68,57.336 27.765,57.406 27.935,57.336 			"/>
			<path fill="#F8BE58" d="M32.544,57.426c0,0.09-0.081,0.174-0.179,0.174h-4.462c-0.101,0-0.182-0.084-0.182-0.174l0,0
				c0-0.1,0.081-0.182,0.182-0.182h4.462C32.463,57.244,32.544,57.326,32.544,57.426L32.544,57.426z"/>
		</g>
		<path fill="#E28F49" d="M32.726,57.66c0,0.191-0.089,0.354-0.194,0.354h-4.794c-0.106,0-0.197-0.162-0.197-0.354l0,0
			c0-0.184,0.09-0.344,0.197-0.344h4.794C32.637,57.316,32.726,57.477,32.726,57.66L32.726,57.66z"/>
		<g>
			<polygon fill="#F8BE58" points="32.771,56.492 32.938,56.574 32.875,56.684 32.709,56.629 			"/>
			<polygon fill="#F8BE58" points="28.208,56.502 28.041,56.574 28.126,56.654 28.299,56.574 			"/>
			<path fill="#F8BE58" d="M32.906,56.668c0,0.1-0.078,0.172-0.179,0.172h-4.464c-0.097,0-0.178-0.072-0.178-0.172l0,0
				c0-0.102,0.082-0.18,0.178-0.18h4.464C32.828,56.488,32.906,56.566,32.906,56.668L32.906,56.668z"/>
		</g>
		<path fill="#E28F49" d="M33.086,56.91c0,0.189-0.087,0.346-0.192,0.346h-4.796c-0.105,0-0.193-0.156-0.193-0.346l0,0
			c0-0.195,0.088-0.352,0.193-0.352h4.796C33,56.559,33.086,56.715,33.086,56.91L33.086,56.91z"/>
		<g>
			<polygon fill="#F8BE58" points="32.541,55.729 32.709,55.818 32.645,55.92 32.479,55.861 			"/>
			<polygon fill="#F8BE58" points="27.981,55.736 27.812,55.818 27.897,55.891 28.071,55.818 			"/>
			<path fill="#F8BE58" d="M32.676,55.906c0,0.1-0.08,0.17-0.179,0.17h-4.463c-0.099,0-0.177-0.07-0.177-0.17l0,0
				c0-0.104,0.078-0.184,0.177-0.184h4.463C32.596,55.723,32.676,55.803,32.676,55.906L32.676,55.906z"/>
		</g>
		<path fill="#E28F49" d="M32.858,56.146c0,0.191-0.089,0.344-0.191,0.344h-4.798c-0.108,0-0.194-0.152-0.194-0.344l0,0
			c0-0.197,0.086-0.35,0.194-0.35h4.798C32.769,55.797,32.858,55.949,32.858,56.146L32.858,56.146z"/>
		<g>
			<polygon fill="#F8BE58" points="32.782,54.967 32.949,55.051 32.885,55.154 32.719,55.104 			"/>
			<polygon fill="#F8BE58" points="28.219,54.975 28.051,55.051 28.139,55.133 28.312,55.051 			"/>
			<path fill="#F8BE58" d="M32.919,55.146c0,0.096-0.08,0.172-0.18,0.172h-4.46c-0.104,0-0.183-0.076-0.183-0.172l0,0
				c0-0.1,0.079-0.182,0.183-0.182h4.46C32.839,54.965,32.919,55.047,32.919,55.146L32.919,55.146z"/>
		</g>
		<path fill="#E28F49" d="M33.098,55.387c0,0.191-0.087,0.344-0.194,0.344H28.11c-0.108,0-0.194-0.152-0.194-0.344l0,0
			c0-0.197,0.086-0.348,0.194-0.348h4.794C33.011,55.039,33.098,55.189,33.098,55.387L33.098,55.387z"/>
		<g>
			<polygon fill="#F8BE58" points="32.313,54.207 32.479,54.293 32.417,54.398 32.248,54.338 			"/>
			<polygon fill="#F8BE58" points="27.748,54.209 27.582,54.293 27.668,54.369 27.84,54.293 			"/>
			<path fill="#F8BE58" d="M32.449,54.381c0,0.102-0.081,0.17-0.181,0.17h-4.462c-0.098,0-0.181-0.068-0.181-0.17l0,0
				c0-0.096,0.083-0.18,0.181-0.18h4.462C32.368,54.201,32.449,54.285,32.449,54.381L32.449,54.381z"/>
		</g>
		<path fill="#E28F49" d="M32.628,54.629c0,0.184-0.089,0.338-0.191,0.338h-4.796c-0.109,0-0.195-0.154-0.195-0.338l0,0
			c0-0.199,0.086-0.355,0.195-0.355h4.796C32.54,54.273,32.628,54.43,32.628,54.629L32.628,54.629z"/>
		<g>
			<polygon fill="#F8BE58" points="32.294,53.445 32.462,53.525 32.399,53.633 32.229,53.576 			"/>
			<polygon fill="#F8BE58" points="27.732,53.453 27.565,53.525 27.648,53.602 27.821,53.525 			"/>
			<path fill="#F8BE58" d="M32.431,53.619c0,0.098-0.078,0.176-0.181,0.176h-4.463c-0.098,0-0.177-0.078-0.177-0.176l0,0
				c0-0.102,0.08-0.182,0.177-0.182h4.463C32.353,53.438,32.431,53.518,32.431,53.619L32.431,53.619z"/>
		</g>
		<path fill="#E28F49" d="M32.61,53.857c0,0.191-0.086,0.348-0.194,0.348h-4.795c-0.108,0-0.193-0.156-0.193-0.348l0,0
			c0-0.197,0.085-0.346,0.193-0.346h4.795C32.524,53.512,32.61,53.66,32.61,53.857L32.61,53.857z"/>
		<g>
			<polygon fill="#F8BE58" points="32.377,52.678 32.544,52.76 32.479,52.869 32.313,52.812 			"/>
			<polygon fill="#F8BE58" points="27.813,52.686 27.646,52.76 27.732,52.844 27.905,52.76 			"/>
			<path fill="#F8BE58" d="M32.512,52.854c0,0.1-0.077,0.178-0.18,0.178h-4.462c-0.099,0-0.177-0.078-0.177-0.178l0,0
				c0-0.102,0.078-0.178,0.177-0.178h4.462C32.435,52.676,32.512,52.752,32.512,52.854L32.512,52.854z"/>
		</g>
		<path fill="#E28F49" d="M32.693,53.094c0,0.197-0.088,0.35-0.193,0.35h-4.794c-0.109,0-0.196-0.152-0.196-0.35l0,0
			c0-0.189,0.086-0.342,0.196-0.342H32.5C32.604,52.752,32.693,52.904,32.693,53.094L32.693,53.094z"/>
		<g>
			<polygon fill="#F8BE58" points="32.301,51.926 32.469,52.016 32.404,52.117 32.239,52.064 			"/>
			<polygon fill="#F8BE58" points="27.737,51.934 27.569,52.016 27.655,52.082 27.83,52.016 			"/>
			<path fill="#F8BE58" d="M32.439,52.105c0,0.094-0.083,0.176-0.18,0.176h-4.462c-0.102,0-0.183-0.082-0.183-0.176l0,0
				c0-0.1,0.082-0.182,0.183-0.182h4.462C32.357,51.924,32.439,52.006,32.439,52.105L32.439,52.105z"/>
		</g>
		<path fill="#E28F49" d="M32.617,52.346c0,0.188-0.085,0.342-0.196,0.342h-4.79c-0.106,0-0.196-0.154-0.196-0.342l0,0
			c0-0.193,0.089-0.352,0.196-0.352h4.79C32.532,51.994,32.617,52.152,32.617,52.346L32.617,52.346z"/>
		<g>
			<polygon fill="#F8BE58" points="32.745,50.416 32.908,50.497 32.847,50.605 32.676,50.55 			"/>
			<polygon fill="#F8BE58" points="28.179,50.427 28.013,50.497 28.097,50.575 28.273,50.497 			"/>
			<path fill="#F8BE58" d="M32.877,50.582c0,0.106-0.077,0.181-0.178,0.181h-4.462c-0.099,0-0.181-0.074-0.181-0.181l0,0
				c0-0.094,0.082-0.171,0.181-0.171h4.462C32.8,50.411,32.877,50.488,32.877,50.582L32.877,50.582z"/>
		</g>
		<path fill="#E28F49" d="M33.058,50.831c0,0.191-0.086,0.349-0.193,0.349h-4.794c-0.109,0-0.196-0.158-0.196-0.349l0,0
			c0-0.189,0.087-0.349,0.196-0.349h4.794C32.972,50.482,33.058,50.641,33.058,50.831L33.058,50.831z"/>
		<g>
			<polygon fill="#F8BE58" points="32.417,49.663 32.584,49.741 32.522,49.855 32.354,49.796 			"/>
			<polygon fill="#F8BE58" points="27.853,49.667 27.687,49.741 27.774,49.813 27.946,49.741 			"/>
			<path fill="#F8BE58" d="M32.555,49.833c0,0.102-0.083,0.176-0.186,0.176H27.91c-0.099,0-0.18-0.074-0.18-0.176l0,0
				c0-0.099,0.081-0.173,0.18-0.173h4.458C32.472,49.661,32.555,49.735,32.555,49.833L32.555,49.833z"/>
		</g>
		<path fill="#E28F49" d="M32.732,50.068c0,0.2-0.087,0.359-0.194,0.359h-4.792c-0.108,0-0.195-0.159-0.195-0.359l0,0
			c0-0.187,0.087-0.34,0.195-0.34h4.792C32.645,49.728,32.732,49.881,32.732,50.068L32.732,50.068z"/>
		<g>
			<polygon fill="#F8BE58" points="32.188,48.898 32.355,48.978 32.29,49.083 32.124,49.033 			"/>
			<polygon fill="#F8BE58" points="27.624,48.902 27.455,48.978 27.541,49.054 27.715,48.978 			"/>
			<path fill="#F8BE58" d="M32.324,49.068c0,0.102-0.08,0.178-0.183,0.178h-4.459c-0.102,0-0.182-0.076-0.182-0.178l0,0
				c0-0.094,0.08-0.18,0.182-0.18h4.459C32.244,48.888,32.324,48.974,32.324,49.068L32.324,49.068z"/>
		</g>
		<path fill="#E28F49" d="M32.501,49.312c0,0.191-0.084,0.351-0.192,0.351h-4.796c-0.104,0-0.192-0.159-0.192-0.351l0,0
			c0-0.194,0.089-0.349,0.192-0.349h4.796C32.417,48.963,32.501,49.118,32.501,49.312L32.501,49.312z"/>
		<g>
			<polygon fill="#F8BE58" points="33.118,48.134 33.285,48.221 33.218,48.328 33.052,48.273 			"/>
			<polygon fill="#F8BE58" points="28.551,48.142 28.386,48.221 28.471,48.297 28.645,48.221 			"/>
			<path fill="#F8BE58" d="M33.251,48.312c0,0.094-0.083,0.171-0.179,0.171h-4.461c-0.1,0-0.183-0.077-0.183-0.171l0,0
				c0-0.102,0.083-0.182,0.183-0.182h4.461C33.168,48.13,33.251,48.21,33.251,48.312L33.251,48.312z"/>
		</g>
		<path fill="#E28F49" d="M33.431,48.548c0,0.198-0.085,0.354-0.19,0.354h-4.796c-0.107,0-0.196-0.155-0.196-0.354l0,0
			c0-0.192,0.089-0.347,0.196-0.347h4.796C33.345,48.202,33.431,48.356,33.431,48.548L33.431,48.548z"/>
	</g>
	<g>
		<g>
			<g>
				<polygon fill="#F9E557" points="76.742,35.964 76.914,36.049 76.85,36.157 76.676,36.105 				"/>
				<polygon fill="#F9E557" points="72.049,35.969 71.883,36.049 71.969,36.125 72.145,36.049 				"/>
				<path fill="#F9E557" d="M76.885,36.138c0,0.102-0.082,0.184-0.184,0.184h-4.588c-0.107,0-0.188-0.083-0.188-0.184l0,0
					c0-0.101,0.08-0.181,0.188-0.181h4.588C76.803,35.957,76.885,36.037,76.885,36.138L76.885,36.138z"/>
			</g>
			<path fill="#E2AD4B" d="M77.068,36.39c0,0.198-0.092,0.354-0.195,0.354h-4.932c-0.115,0-0.197-0.156-0.197-0.354l0,0
				c0-0.198,0.082-0.357,0.197-0.357h4.932C76.977,36.032,77.068,36.191,77.068,36.39L77.068,36.39z"/>
		</g>
		<g>
			<g>
				<polygon fill="#F9E557" points="76.844,42.18 77.018,42.268 76.955,42.376 76.777,42.321 				"/>
				<polygon fill="#F9E557" points="72.15,42.192 71.977,42.268 72.072,42.346 72.25,42.268 				"/>
				<path fill="#F9E557" d="M76.98,42.361c0,0.097-0.082,0.177-0.18,0.177h-4.592c-0.102,0-0.182-0.08-0.182-0.177l0,0
					c0-0.101,0.08-0.187,0.182-0.187h4.592C76.898,42.174,76.98,42.26,76.98,42.361L76.98,42.361z"/>
			</g>
			<path fill="#E2AD4B" d="M77.174,42.604c0,0.197-0.098,0.356-0.207,0.356h-4.924c-0.109,0-0.205-0.159-0.205-0.356l0,0
				c0-0.194,0.096-0.349,0.205-0.349h4.924C77.076,42.255,77.174,42.41,77.174,42.604L77.174,42.604z"/>
		</g>
		<g>
			<g>
				<polygon fill="#F9E557" points="76.863,41.409 77.033,41.49 76.967,41.6 76.799,41.543 				"/>
				<polygon fill="#F9E557" points="72.17,41.417 72,41.49 72.088,41.572 72.262,41.49 				"/>
				<path fill="#F9E557" d="M77.002,41.586c0,0.102-0.082,0.182-0.188,0.182h-4.58c-0.105,0-0.188-0.08-0.188-0.182l0,0
					c0-0.103,0.082-0.182,0.188-0.182h4.58C76.92,41.405,77.002,41.484,77.002,41.586L77.002,41.586z"/>
			</g>
			<path fill="#E2AD4B" d="M77.188,41.834c0,0.193-0.09,0.357-0.201,0.357h-4.93c-0.109,0-0.195-0.164-0.195-0.357l0,0
				c0-0.201,0.086-0.357,0.195-0.357h4.93C77.098,41.477,77.188,41.633,77.188,41.834L77.188,41.834z"/>
		</g>
		<g>
			<g>
				<polygon fill="#F9E557" points="76.977,40.63 77.15,40.708 77.084,40.821 76.914,40.768 				"/>
				<polygon fill="#F9E557" points="72.289,40.636 72.115,40.708 72.201,40.792 72.383,40.708 				"/>
				<path fill="#F9E557" d="M77.119,40.806c0,0.102-0.084,0.179-0.182,0.179h-4.594c-0.098,0-0.178-0.077-0.178-0.179l0,0
					c0-0.104,0.08-0.18,0.178-0.18h4.594C77.035,40.626,77.119,40.702,77.119,40.806L77.119,40.806z"/>
			</g>
			<path fill="#E2AD4B" d="M77.305,41.051c0,0.199-0.094,0.357-0.195,0.357h-4.932c-0.105,0-0.203-0.158-0.203-0.357l0,0
				c0-0.197,0.098-0.357,0.203-0.357h4.932C77.211,40.694,77.305,40.854,77.305,41.051L77.305,41.051z"/>
		</g>
		<g>
			<g>
				<polygon fill="#F9E557" points="76.875,39.853 77.045,39.931 76.975,40.038 76.805,39.986 				"/>
				<polygon fill="#F9E557" points="72.182,39.855 72.01,39.931 72.098,40.013 72.271,39.931 				"/>
				<path fill="#F9E557" d="M77.012,40.021c0,0.109-0.08,0.187-0.189,0.187H72.24c-0.104,0-0.188-0.077-0.188-0.187l0,0
					c0-0.095,0.084-0.174,0.188-0.174h4.582C76.932,39.847,77.012,39.926,77.012,40.021L77.012,40.021z"/>
			</g>
			<path fill="#E2AD4B" d="M77.193,40.265c0,0.205-0.084,0.367-0.193,0.367h-4.926c-0.111,0-0.199-0.162-0.199-0.367l0,0
				c0-0.188,0.088-0.35,0.199-0.35H77C77.109,39.916,77.193,40.077,77.193,40.265L77.193,40.265z"/>
		</g>
		<g>
			<g>
				<polygon fill="#F9E557" points="76.742,39.067 76.914,39.153 76.85,39.263 76.676,39.204 				"/>
				<polygon fill="#F9E557" points="72.049,39.073 71.883,39.153 71.969,39.229 72.145,39.153 				"/>
				<path fill="#F9E557" d="M76.885,39.246c0,0.099-0.082,0.179-0.184,0.179h-4.588c-0.107,0-0.188-0.08-0.188-0.179l0,0
					c0-0.102,0.08-0.182,0.188-0.182h4.588C76.803,39.064,76.885,39.144,76.885,39.246L76.885,39.246z"/>
			</g>
			<path fill="#E2AD4B" d="M77.068,39.489c0,0.2-0.092,0.36-0.195,0.36h-4.932c-0.115,0-0.197-0.16-0.197-0.36l0,0
				c0-0.195,0.082-0.356,0.197-0.356h4.932C76.977,39.132,77.068,39.293,77.068,39.489L77.068,39.489z"/>
		</g>
		<g>
			<g>
				<polygon fill="#F9E557" points="77.076,38.286 77.258,38.366 77.186,38.479 77.014,38.42 				"/>
				<polygon fill="#F9E557" points="72.389,38.292 72.217,38.366 72.305,38.449 72.484,38.366 				"/>
				<path fill="#F9E557" d="M77.217,38.462c0,0.102-0.086,0.181-0.184,0.181h-4.586c-0.104,0-0.186-0.079-0.186-0.181l0,0
					c0-0.105,0.082-0.179,0.186-0.179h4.586C77.131,38.283,77.217,38.356,77.217,38.462L77.217,38.462z"/>
			</g>
			<path fill="#E2AD4B" d="M77.402,38.71c0,0.196-0.086,0.356-0.203,0.356h-4.928c-0.102,0-0.191-0.16-0.191-0.356l0,0
				c0-0.197,0.09-0.358,0.191-0.358h4.928C77.316,38.353,77.402,38.513,77.402,38.71L77.402,38.71z"/>
		</g>
		<g>
			<g>
				<polygon fill="#F9E557" points="77.518,37.502 77.689,37.588 77.629,37.696 77.451,37.636 				"/>
				<polygon fill="#F9E557" points="72.824,37.508 72.654,37.588 72.744,37.669 72.918,37.588 				"/>
				<path fill="#F9E557" d="M77.652,37.68c0,0.101-0.076,0.18-0.18,0.18h-4.588c-0.1,0-0.184-0.08-0.184-0.18l0,0
					c0-0.103,0.084-0.182,0.184-0.182h4.588C77.576,37.498,77.652,37.578,77.652,37.68L77.652,37.68z"/>
			</g>
			<path fill="#E2AD4B" d="M77.842,37.927c0,0.198-0.086,0.359-0.205,0.359h-4.922c-0.109,0-0.201-0.162-0.201-0.359l0,0
				c0-0.197,0.092-0.355,0.201-0.355h4.922C77.756,37.571,77.842,37.729,77.842,37.927L77.842,37.927z"/>
		</g>
		<g>
			<g>
				<polygon fill="#F9E557" points="76.734,36.732 76.904,36.819 76.834,36.928 76.668,36.871 				"/>
				<polygon fill="#F9E557" points="72.045,36.738 71.875,36.819 71.963,36.895 72.135,36.819 				"/>
				<path fill="#F9E557" d="M76.875,36.909c0,0.099-0.084,0.178-0.188,0.178h-4.586c-0.104,0-0.188-0.079-0.188-0.178l0,0
					c0-0.099,0.084-0.182,0.188-0.182h4.586C76.791,36.727,76.875,36.81,76.875,36.909L76.875,36.909z"/>
			</g>
			<path fill="#E2AD4B" d="M77.061,37.156c0,0.197-0.094,0.359-0.201,0.359h-4.926c-0.115,0-0.201-0.163-0.201-0.359l0,0
				c0-0.193,0.086-0.352,0.201-0.352h4.926C76.967,36.804,77.061,36.962,77.061,37.156L77.061,37.156z"/>
		</g>
		<g>
			<g>
				<polygon fill="#F9E557" points="77.432,33.636 77.602,33.728 77.533,33.833 77.363,33.776 				"/>
				<polygon fill="#F9E557" points="72.738,33.645 72.566,33.728 72.654,33.802 72.832,33.728 				"/>
				<path fill="#F9E557" d="M77.57,33.817c0,0.099-0.084,0.181-0.188,0.181h-4.586c-0.1,0-0.184-0.083-0.184-0.181l0,0
					c0-0.1,0.084-0.184,0.184-0.184h4.586C77.486,33.633,77.57,33.717,77.57,33.817L77.57,33.817z"/>
			</g>
			<path fill="#E2AD4B" d="M77.756,34.064c0,0.199-0.09,0.357-0.203,0.357h-4.922c-0.115,0-0.203-0.158-0.203-0.357l0,0
				c0-0.196,0.088-0.354,0.203-0.354h4.922C77.666,33.709,77.756,33.868,77.756,34.064L77.756,34.064z"/>
		</g>
		<g>
			<g>
				<polygon fill="#F9E557" points="77.484,35.197 77.652,35.273 77.592,35.385 77.418,35.332 				"/>
				<polygon fill="#F9E557" points="72.793,35.203 72.627,35.273 72.711,35.353 72.889,35.273 				"/>
				<path fill="#F9E557" d="M77.629,35.367c0,0.101-0.088,0.187-0.188,0.187h-4.59c-0.1,0-0.188-0.086-0.188-0.187l0,0
					c0-0.099,0.088-0.175,0.188-0.175h4.59C77.541,35.191,77.629,35.268,77.629,35.367L77.629,35.367z"/>
			</g>
			<path fill="#E2AD4B" d="M77.807,35.614c0,0.199-0.086,0.357-0.195,0.357h-4.928c-0.113,0-0.199-0.158-0.199-0.357l0,0
				c0-0.196,0.086-0.354,0.199-0.354h4.928C77.721,35.26,77.807,35.417,77.807,35.614L77.807,35.614z"/>
		</g>
		<g>
			<g>
				<polygon fill="#F9E557" points="77.418,34.411 77.592,34.49 77.523,34.605 77.352,34.546 				"/>
				<polygon fill="#F9E557" points="72.723,34.417 72.557,34.49 72.646,34.567 72.82,34.49 				"/>
				<path fill="#F9E557" d="M77.561,34.583c0,0.109-0.084,0.182-0.188,0.182h-4.584c-0.105,0-0.188-0.072-0.188-0.182l0,0
					c0-0.099,0.082-0.175,0.188-0.175h4.584C77.477,34.407,77.561,34.484,77.561,34.583L77.561,34.583z"/>
			</g>
			<path fill="#E2AD4B" d="M77.744,34.836c0,0.194-0.092,0.359-0.203,0.359h-4.922c-0.117,0-0.203-0.165-0.203-0.359l0,0
				c0-0.199,0.086-0.362,0.203-0.362h4.922C77.652,34.474,77.744,34.637,77.744,34.836L77.744,34.836z"/>
		</g>
	</g>
	<line fill="none" stroke="#4C4C4D" stroke-width="0.25" stroke-miterlimit="10" x1="20.84" y1="56.566" x2="28.496" y2="37.14"/>
	<polygon fill="#EAEAEA" points="49.926,29.172 50.801,31.419 30.894,35.865 30.805,35.476 	"/>
	<polygon fill="#C5CBCB" points="50.699,31.42 51.463,32.607 30.923,35.967 30.894,35.865 	"/>
	<path fill="#B0AFB0" d="M30.916,35.962c0,0-0.676-1.261-1.661-0.936c-0.934,0.312-0.87,1.59-0.87,1.59l-0.147,0.067
		c0,0-0.223-0.666-0.011-1.214c0.128-0.329,0.449-0.767,0.937-0.915c0.468-0.145,1.016,0.055,1.295,0.396
		c0.248,0.295,0.345,0.542,0.345,0.542"/>
	<path fill="none" stroke="#B0AFB0" stroke-width="0.25" stroke-miterlimit="10" d="M28.033,37.188
		c0.058,0.247,0.275,0.395,0.482,0.333c0.208-0.063,0.333-0.314,0.273-0.567c-0.061-0.248-0.272-0.4-0.48-0.336
		C28.096,36.684,27.975,36.937,28.033,37.188z"/>
	<rect x="20.767" y="58.029" fill="#EAEAEA" width="15.521" height="0.592"/>
	<rect x="21.507" y="58.621" fill="#C5CBCB" width="14.039" height="1.568"/>
	<rect x="20.769" y="56.461" fill="#B0AFB0" width="0.227" height="1.568"/>
	<line fill="none" stroke="#4C4C4D" stroke-width="0.25" stroke-miterlimit="10" x1="36.167" y1="56.566" x2="28.49" y2="37.14"/>
	<rect x="36.057" y="56.461" fill="#B0AFB0" width="0.228" height="1.568"/>
	<rect x="66.439" y="42.887" fill="#EAEAEA" width="15.525" height="0.591"/>
	<rect x="67.184" y="43.478" fill="#C5CBCB" width="14.039" height="1.571"/>
	<line fill="none" stroke="#4C4C4D" stroke-width="0.25" stroke-miterlimit="10" x1="66.512" y1="41.42" x2="74.174" y2="21.989"/>
	<polygon fill="#EAEAEA" points="52.27,28.395 52.561,30.835 71.488,22.438 71.385,22.053 	"/>
	<polygon fill="#C5CBCB" points="52.648,30.771 52.559,32.242 71.51,22.542 71.488,22.438 	"/>
	<path fill="#B0AFB0" d="M71.389,22.065c0,0-0.025-0.266,0.049-0.669c0.078-0.457,0.453-0.964,0.916-1.131
		c0.479-0.169,0.955,0.01,1.215,0.209c0.432,0.334,0.551,1.033,0.551,1.033l-0.154,0.034c0,0-0.543-1.124-1.471-0.817
		c-0.984,0.327-0.98,1.811-0.98,1.811"/>
	<path fill="none" stroke="#B0AFB0" stroke-width="0.25" stroke-miterlimit="10" d="M74.521,21.81
		c0.068,0.247-0.057,0.503-0.258,0.575c-0.203,0.078-0.428-0.066-0.488-0.31c-0.062-0.251,0.043-0.504,0.254-0.579
		C74.234,21.423,74.461,21.563,74.521,21.81z"/>
	<line fill="none" stroke="#4C4C4D" stroke-width="0.25" stroke-miterlimit="10" x1="81.844" y1="41.42" x2="74.164" y2="21.989"/>
	<rect x="81.732" y="41.319" fill="#B0AFB0" width="0.227" height="1.568"/>
	<rect x="66.441" y="41.319" fill="#B0AFB0" width="0.23" height="1.568"/>
	<g>
		<g>
			<polygon fill="#FAD058" points="27.912,48.061 28.088,48.147 28.02,48.266 27.841,48.202 			"/>
			<polygon fill="#FAD058" points="23.084,48.065 22.905,48.147 22.997,48.228 23.178,48.147 			"/>
			<path fill="#FAD058" d="M28.054,48.245c0,0.101-0.088,0.19-0.191,0.19h-4.721c-0.107,0-0.189-0.09-0.189-0.19l0,0
				c0-0.107,0.083-0.19,0.189-0.19h4.721C27.966,48.054,28.054,48.137,28.054,48.245L28.054,48.245z"/>
			<path fill="#E3A04A" d="M28.245,48.509c0,0.204-0.092,0.372-0.207,0.372h-5.072c-0.113,0-0.205-0.168-0.205-0.372l0,0
				c0-0.209,0.092-0.381,0.205-0.381h5.072C28.153,48.128,28.245,48.3,28.245,48.509L28.245,48.509z"/>
		</g>
		<g>
			<polygon fill="#FAD058" points="28.299,53.043 28.478,53.133 28.41,53.248 28.231,53.184 			"/>
			<polygon fill="#FAD058" points="23.471,53.049 23.295,53.133 23.387,53.213 23.569,53.133 			"/>
			<path fill="#FAD058" d="M28.445,53.229c0,0.105-0.085,0.189-0.192,0.189h-4.722c-0.102,0-0.189-0.084-0.189-0.189l0,0
				c0-0.104,0.087-0.189,0.189-0.189h4.722C28.359,53.039,28.445,53.125,28.445,53.229L28.445,53.229z"/>
			<path fill="#E3A04A" d="M28.635,53.494c0,0.209-0.093,0.369-0.208,0.369h-5.07c-0.113,0-0.203-0.16-0.203-0.369l0,0
				c0-0.211,0.089-0.381,0.203-0.381h5.07C28.542,53.113,28.635,53.283,28.635,53.494L28.635,53.494z"/>
		</g>
		<g>
			<polygon fill="#FAD058" points="28.541,52.209 28.717,52.291 28.647,52.416 28.472,52.354 			"/>
			<polygon fill="#FAD058" points="23.71,52.219 23.534,52.291 23.626,52.381 23.809,52.291 			"/>
			<path fill="#FAD058" d="M28.684,52.396c0,0.104-0.084,0.189-0.192,0.189h-4.718c-0.109,0-0.191-0.086-0.191-0.189l0,0
				c0-0.109,0.082-0.188,0.191-0.188h4.718C28.6,52.209,28.684,52.287,28.684,52.396L28.684,52.396z"/>
			<path fill="#E3A04A" d="M28.875,52.66c0,0.203-0.095,0.377-0.207,0.377h-5.07c-0.114,0-0.206-0.174-0.206-0.377l0,0
				c0-0.213,0.091-0.375,0.206-0.375h5.07C28.78,52.285,28.875,52.447,28.875,52.66L28.875,52.66z"/>
		</g>
		<g>
			<polygon fill="#FAD058" points="27.912,51.383 28.088,51.469 28.02,51.584 27.841,51.521 			"/>
			<polygon fill="#FAD058" points="23.084,51.387 22.905,51.469 22.997,51.549 23.178,51.469 			"/>
			<path fill="#FAD058" d="M28.054,51.562c0,0.105-0.088,0.193-0.191,0.193h-4.721c-0.107,0-0.189-0.088-0.189-0.193l0,0
				c0-0.102,0.083-0.184,0.189-0.184h4.721C27.966,51.379,28.054,51.461,28.054,51.562L28.054,51.562z"/>
			<path fill="#E3A04A" d="M28.245,51.822c0,0.211-0.092,0.383-0.207,0.383h-5.072c-0.113,0-0.205-0.172-0.205-0.383l0,0
				c0-0.201,0.092-0.371,0.205-0.371h5.072C28.153,51.451,28.245,51.621,28.245,51.822L28.245,51.822z"/>
		</g>
		<g>
			<polygon fill="#FAD058" points="27.912,50.543 28.088,50.636 28.02,50.746 27.841,50.69 			"/>
			<polygon fill="#FAD058" points="23.084,50.557 22.905,50.636 22.997,50.719 23.178,50.636 			"/>
			<path fill="#FAD058" d="M28.054,50.732c0,0.107-0.088,0.19-0.191,0.19h-4.721c-0.107,0-0.189-0.083-0.189-0.19l0,0
				c0-0.104,0.083-0.193,0.189-0.193h4.721C27.966,50.539,28.054,50.627,28.054,50.732L28.054,50.732z"/>
			<path fill="#E3A04A" d="M28.245,50.993c0,0.214-0.092,0.38-0.207,0.38h-5.072c-0.113,0-0.205-0.166-0.205-0.38l0,0
				c0-0.206,0.092-0.374,0.205-0.374h5.072C28.153,50.619,28.245,50.787,28.245,50.993L28.245,50.993z"/>
		</g>
		<g>
			<polygon fill="#FAD058" points="27.912,49.714 28.088,49.807 28.02,49.924 27.841,49.857 			"/>
			<polygon fill="#FAD058" points="23.084,49.72 22.905,49.807 22.997,49.885 23.178,49.807 			"/>
			<path fill="#FAD058" d="M28.054,49.9c0,0.106-0.088,0.19-0.191,0.19h-4.721c-0.107,0-0.189-0.084-0.189-0.19l0,0
				c0-0.102,0.083-0.189,0.189-0.189h4.721C27.966,49.71,28.054,49.798,28.054,49.9L28.054,49.9z"/>
			<path fill="#E3A04A" d="M28.245,50.164c0,0.204-0.092,0.375-0.207,0.375h-5.072c-0.113,0-0.205-0.171-0.205-0.375l0,0
				c0-0.21,0.092-0.379,0.205-0.379h5.072C28.153,49.785,28.245,49.954,28.245,50.164L28.245,50.164z"/>
		</g>
		<g>
			<polygon fill="#FAD058" points="27.912,48.886 28.088,48.978 28.02,49.095 27.841,49.035 			"/>
			<polygon fill="#FAD058" points="23.084,48.902 22.905,48.978 22.997,49.062 23.178,48.978 			"/>
			<path fill="#FAD058" d="M28.054,49.078c0,0.105-0.088,0.193-0.191,0.193h-4.721c-0.107,0-0.189-0.088-0.189-0.193l0,0
				c0-0.104,0.083-0.193,0.189-0.193h4.721C27.966,48.884,28.054,48.974,28.054,49.078L28.054,49.078z"/>
			<path fill="#E3A04A" d="M28.245,49.338c0,0.213-0.092,0.378-0.207,0.378h-5.072c-0.113,0-0.205-0.165-0.205-0.378l0,0
				c0-0.21,0.092-0.378,0.205-0.378h5.072C28.153,48.96,28.245,49.128,28.245,49.338L28.245,49.338z"/>
		</g>
		<g>
			<polygon fill="#FAD058" points="27.912,53.863 28.088,53.957 28.02,54.074 27.841,54.014 			"/>
			<polygon fill="#FAD058" points="23.084,53.873 22.905,53.957 22.997,54.031 23.178,53.957 			"/>
			<path fill="#FAD058" d="M28.054,54.053c0,0.111-0.088,0.191-0.191,0.191h-4.721c-0.107,0-0.189-0.08-0.189-0.191l0,0
				c0-0.104,0.083-0.191,0.189-0.191h4.721C27.966,53.861,28.054,53.949,28.054,54.053L28.054,54.053z"/>
			<path fill="#E3A04A" d="M28.245,54.318c0,0.207-0.092,0.371-0.207,0.371h-5.072c-0.113,0-0.205-0.164-0.205-0.371l0,0
				c0-0.213,0.092-0.383,0.205-0.383h5.072C28.153,53.936,28.245,54.105,28.245,54.318L28.245,54.318z"/>
		</g>
		<g>
			<polygon fill="#FAD058" points="27.912,57.188 28.088,57.273 28.02,57.389 27.841,57.336 			"/>
			<polygon fill="#FAD058" points="23.084,57.193 22.905,57.273 22.997,57.354 23.178,57.273 			"/>
			<path fill="#FAD058" d="M28.054,57.369c0,0.111-0.088,0.191-0.191,0.191h-4.721c-0.107,0-0.189-0.08-0.189-0.191l0,0
				c0-0.102,0.083-0.188,0.189-0.188h4.721C27.966,57.182,28.054,57.268,28.054,57.369L28.054,57.369z"/>
			<path fill="#E3A04A" d="M28.245,57.635c0,0.207-0.092,0.379-0.207,0.379h-5.072c-0.113,0-0.205-0.172-0.205-0.379l0,0
				c0-0.207,0.092-0.379,0.205-0.379h5.072C28.153,57.256,28.245,57.428,28.245,57.635L28.245,57.635z"/>
		</g>
		<g>
			<polygon fill="#FAD058" points="27.912,56.355 28.088,56.441 28.02,56.559 27.841,56.494 			"/>
			<polygon fill="#FAD058" points="23.084,56.359 22.905,56.441 22.997,56.525 23.178,56.441 			"/>
			<path fill="#FAD058" d="M28.054,56.539c0,0.105-0.088,0.193-0.191,0.193h-4.721c-0.107,0-0.189-0.088-0.189-0.193l0,0
				c0-0.107,0.083-0.189,0.189-0.189h4.721C27.966,56.35,28.054,56.432,28.054,56.539L28.054,56.539z"/>
			<path fill="#E3A04A" d="M28.245,56.803c0,0.207-0.092,0.377-0.207,0.377h-5.072c-0.113,0-0.205-0.17-0.205-0.377l0,0
				c0-0.209,0.092-0.377,0.205-0.377h5.072C28.153,56.426,28.245,56.594,28.245,56.803L28.245,56.803z"/>
		</g>
		<g>
			<polygon fill="#FAD058" points="27.912,55.523 28.088,55.611 28.02,55.723 27.841,55.666 			"/>
			<polygon fill="#FAD058" points="23.084,55.529 22.905,55.611 22.997,55.693 23.178,55.611 			"/>
			<path fill="#FAD058" d="M28.054,55.709c0,0.111-0.088,0.189-0.191,0.189h-4.721c-0.107,0-0.189-0.078-0.189-0.189l0,0
				c0-0.104,0.083-0.189,0.189-0.189h4.721C27.966,55.52,28.054,55.605,28.054,55.709L28.054,55.709z"/>
			<path fill="#E3A04A" d="M28.245,55.971c0,0.209-0.092,0.377-0.207,0.377h-5.072c-0.113,0-0.205-0.168-0.205-0.377l0,0
				c0-0.209,0.092-0.373,0.205-0.373h5.072C28.153,55.598,28.245,55.762,28.245,55.971L28.245,55.971z"/>
		</g>
		<g>
			<polygon fill="#FAD058" points="27.912,54.701 28.088,54.787 28.02,54.906 27.841,54.846 			"/>
			<polygon fill="#FAD058" points="23.084,54.703 22.905,54.787 22.997,54.867 23.178,54.787 			"/>
			<path fill="#FAD058" d="M28.054,54.885c0,0.107-0.088,0.191-0.191,0.191h-4.721c-0.107,0-0.189-0.084-0.189-0.191l0,0
				c0-0.107,0.083-0.191,0.189-0.191h4.721C27.966,54.693,28.054,54.777,28.054,54.885L28.054,54.885z"/>
			<path fill="#E3A04A" d="M28.245,55.148c0,0.207-0.092,0.379-0.207,0.379h-5.072c-0.113,0-0.205-0.172-0.205-0.379l0,0
				c0-0.215,0.092-0.379,0.205-0.379h5.072C28.153,54.77,28.245,54.934,28.245,55.148L28.245,55.148z"/>
		</g>
		<g>
			<polygon fill="#FAD058" points="28.214,43.91 28.391,43.997 28.321,44.116 28.147,44.051 			"/>
			<polygon fill="#FAD058" points="23.387,43.917 23.209,43.997 23.298,44.077 23.483,43.997 			"/>
			<path fill="#FAD058" d="M28.358,44.096c0,0.104-0.082,0.186-0.189,0.186h-4.721c-0.106,0-0.192-0.082-0.192-0.186l0,0
				c0-0.109,0.086-0.191,0.192-0.191h4.721C28.276,43.905,28.358,43.987,28.358,44.096L28.358,44.096z"/>
			<path fill="#E3A04A" d="M28.548,44.362c0,0.206-0.093,0.371-0.204,0.371h-5.075c-0.109,0-0.203-0.165-0.203-0.371l0,0
				c0-0.215,0.094-0.384,0.203-0.384h5.075C28.456,43.978,28.548,44.147,28.548,44.362L28.548,44.362z"/>
		</g>
		<g>
			<polygon fill="#FAD058" points="28.214,47.226 28.391,47.316 28.321,47.433 28.147,47.369 			"/>
			<polygon fill="#FAD058" points="23.387,47.233 23.209,47.316 23.298,47.402 23.483,47.316 			"/>
			<path fill="#FAD058" d="M28.358,47.414c0,0.109-0.082,0.188-0.189,0.188h-4.721c-0.106,0-0.192-0.078-0.192-0.188l0,0
				c0-0.104,0.086-0.192,0.192-0.192h4.721C28.276,47.221,28.358,47.31,28.358,47.414L28.358,47.414z"/>
			<path fill="#E3A04A" d="M28.548,47.676c0,0.211-0.093,0.378-0.204,0.378h-5.075c-0.109,0-0.203-0.167-0.203-0.378l0,0
				c0-0.209,0.094-0.379,0.203-0.379h5.075C28.456,47.297,28.548,47.467,28.548,47.676L28.548,47.676z"/>
		</g>
		<g>
			<polygon fill="#FAD058" points="28.214,46.398 28.391,46.487 28.321,46.6 28.147,46.541 			"/>
			<polygon fill="#FAD058" points="23.387,46.403 23.209,46.487 23.298,46.568 23.483,46.487 			"/>
			<path fill="#FAD058" d="M28.358,46.58c0,0.104-0.082,0.191-0.189,0.191h-4.721c-0.106,0-0.192-0.088-0.192-0.191l0,0
				c0-0.102,0.086-0.188,0.192-0.188h4.721C28.276,46.392,28.358,46.478,28.358,46.58L28.358,46.58z"/>
			<path fill="#E3A04A" d="M28.548,46.847c0,0.203-0.093,0.372-0.204,0.372h-5.075c-0.109,0-0.203-0.169-0.203-0.372l0,0
				c0-0.208,0.094-0.378,0.203-0.378h5.075C28.456,46.469,28.548,46.639,28.548,46.847L28.548,46.847z"/>
		</g>
		<g>
			<polygon fill="#FAD058" points="28.214,45.559 28.391,45.656 28.321,45.771 28.147,45.704 			"/>
			<polygon fill="#FAD058" points="23.387,45.564 23.209,45.656 23.298,45.737 23.483,45.656 			"/>
			<path fill="#FAD058" d="M28.358,45.75c0,0.108-0.082,0.188-0.189,0.188h-4.721c-0.106,0-0.192-0.079-0.192-0.188l0,0
				c0-0.106,0.086-0.195,0.192-0.195h4.721C28.276,45.555,28.358,45.644,28.358,45.75L28.358,45.75z"/>
			<path fill="#E3A04A" d="M28.548,46.015c0,0.212-0.093,0.377-0.204,0.377h-5.075c-0.109,0-0.203-0.165-0.203-0.377l0,0
				c0-0.213,0.094-0.382,0.203-0.382h5.075C28.456,45.633,28.548,45.802,28.548,46.015L28.548,46.015z"/>
		</g>
		<g>
			<polygon fill="#FAD058" points="28.214,44.74 28.391,44.832 28.321,44.948 28.147,44.888 			"/>
			<polygon fill="#FAD058" points="23.387,44.747 23.209,44.832 23.298,44.91 23.483,44.832 			"/>
			<path fill="#FAD058" d="M28.358,44.924c0,0.108-0.082,0.198-0.189,0.198h-4.721c-0.106,0-0.192-0.09-0.192-0.198l0,0
				c0-0.097,0.086-0.189,0.192-0.189h4.721C28.276,44.735,28.358,44.828,28.358,44.924L28.358,44.924z"/>
			<path fill="#E3A04A" d="M28.548,45.183c0,0.216-0.093,0.376-0.204,0.376h-5.075c-0.109,0-0.203-0.16-0.203-0.376l0,0
				c0-0.208,0.094-0.373,0.203-0.373h5.075C28.456,44.81,28.548,44.975,28.548,45.183L28.548,45.183z"/>
		</g>
	</g>
	<g>
		<g>
			<g>
				<polygon fill="#F9E557" points="31.014,50.708 31.193,50.795 31.124,50.912 30.945,50.847 				"/>
				<polygon fill="#F9E557" points="26.093,50.716 25.914,50.795 26.007,50.878 26.192,50.795 				"/>
				<path fill="#F9E557" d="M31.162,50.891c0,0.104-0.087,0.187-0.196,0.187h-4.809c-0.107,0-0.194-0.083-0.194-0.187l0,0
					c0-0.104,0.087-0.187,0.194-0.187h4.809C31.075,50.705,31.162,50.787,31.162,50.891L31.162,50.891z"/>
			</g>
			<path fill="#E2AD4B" d="M31.356,51.154c0,0.201-0.095,0.367-0.21,0.367h-5.169c-0.116,0-0.209-0.166-0.209-0.367l0,0
				c0-0.208,0.094-0.373,0.209-0.373h5.169C31.261,50.782,31.356,50.946,31.356,51.154L31.356,51.154z"/>
		</g>
		<g>
			<g>
				<polygon fill="#F9E557" points="31.12,57.201 31.297,57.287 31.229,57.4 31.048,57.342 				"/>
				<polygon fill="#F9E557" points="26.201,57.203 26.017,57.287 26.113,57.361 26.296,57.287 				"/>
				<path fill="#F9E557" d="M31.266,57.377c0,0.111-0.088,0.191-0.196,0.191h-4.811c-0.105,0-0.193-0.08-0.193-0.191l0,0
					c0-0.096,0.087-0.184,0.193-0.184h4.811C31.178,57.193,31.266,57.281,31.266,57.377L31.266,57.377z"/>
			</g>
			<path fill="#E2AD4B" d="M31.458,57.639c0,0.205-0.094,0.375-0.208,0.375h-5.17c-0.113,0-0.208-0.17-0.208-0.375l0,0
				c0-0.205,0.095-0.371,0.208-0.371h5.17C31.364,57.268,31.458,57.434,31.458,57.639L31.458,57.639z"/>
		</g>
		<g>
			<g>
				<polygon fill="#F9E557" points="31.509,56.389 31.69,56.475 31.618,56.594 31.439,56.531 				"/>
				<polygon fill="#F9E557" points="26.587,56.398 26.408,56.475 26.502,56.559 26.686,56.475 				"/>
				<path fill="#F9E557" d="M31.652,56.568c0,0.107-0.084,0.191-0.191,0.191h-4.809c-0.108,0-0.194-0.084-0.194-0.191l0,0
					c0-0.1,0.086-0.182,0.194-0.182h4.809C31.568,56.387,31.652,56.469,31.652,56.568L31.652,56.568z"/>
			</g>
			<path fill="#E2AD4B" d="M31.851,56.834c0,0.209-0.097,0.369-0.209,0.369h-5.167c-0.117,0-0.212-0.16-0.212-0.369l0,0
				c0-0.205,0.095-0.373,0.212-0.373h5.167C31.754,56.461,31.851,56.629,31.851,56.834L31.851,56.834z"/>
		</g>
		<g>
			<g>
				<polygon fill="#F9E557" points="31.262,55.572 31.443,55.662 31.371,55.775 31.192,55.717 				"/>
				<polygon fill="#F9E557" points="26.343,55.58 26.165,55.662 26.253,55.742 26.439,55.662 				"/>
				<path fill="#F9E557" d="M31.409,55.76c0,0.1-0.086,0.186-0.196,0.186h-4.808c-0.109,0-0.195-0.086-0.195-0.186l0,0
					c0-0.109,0.085-0.189,0.195-0.189h4.808C31.323,55.57,31.409,55.65,31.409,55.76L31.409,55.76z"/>
			</g>
			<path fill="#E2AD4B" d="M31.605,56.021c0,0.197-0.098,0.367-0.213,0.367h-5.167c-0.117,0-0.209-0.17-0.209-0.367l0,0
				c0-0.207,0.092-0.375,0.209-0.375h5.167C31.507,55.646,31.605,55.814,31.605,56.021L31.605,56.021z"/>
		</g>
		<g>
			<g>
				<polygon fill="#F9E557" points="31.523,54.764 31.702,54.85 31.634,54.963 31.451,54.906 				"/>
				<polygon fill="#F9E557" points="26.604,54.766 26.423,54.85 26.514,54.928 26.701,54.85 				"/>
				<path fill="#F9E557" d="M31.669,54.949c0,0.1-0.089,0.186-0.197,0.186h-4.808c-0.111,0-0.197-0.086-0.197-0.186l0,0
					c0-0.104,0.086-0.189,0.197-0.189h4.808C31.58,54.76,31.669,54.846,31.669,54.949L31.669,54.949z"/>
			</g>
			<path fill="#E2AD4B" d="M31.86,55.209c0,0.199-0.094,0.365-0.209,0.365h-5.164c-0.119,0-0.21-0.166-0.21-0.365l0,0
				c0-0.207,0.091-0.373,0.21-0.373h5.164C31.766,54.836,31.86,55.002,31.86,55.209L31.86,55.209z"/>
		</g>
		<g>
			<g>
				<polygon fill="#F9E557" points="31.014,53.945 31.193,54.025 31.124,54.148 30.945,54.086 				"/>
				<polygon fill="#F9E557" points="26.093,53.953 25.914,54.025 26.007,54.111 26.192,54.025 				"/>
				<path fill="#F9E557" d="M31.162,54.127c0,0.107-0.087,0.191-0.196,0.191h-4.809c-0.107,0-0.194-0.084-0.194-0.191l0,0
					c0-0.104,0.087-0.188,0.194-0.188h4.809C31.075,53.939,31.162,54.023,31.162,54.127L31.162,54.127z"/>
			</g>
			<path fill="#E2AD4B" d="M31.356,54.391c0,0.205-0.095,0.369-0.21,0.369h-5.169c-0.116,0-0.209-0.164-0.209-0.369l0,0
				c0-0.209,0.094-0.375,0.209-0.375h5.169C31.261,54.016,31.356,54.182,31.356,54.391L31.356,54.391z"/>
		</g>
		<g>
			<g>
				<polygon fill="#F9E557" points="30.996,53.131 31.175,53.219 31.105,53.334 30.923,53.27 				"/>
				<polygon fill="#F9E557" points="26.077,53.135 25.894,53.219 25.986,53.295 26.174,53.219 				"/>
				<path fill="#F9E557" d="M31.14,53.312c0,0.105-0.086,0.195-0.194,0.195h-4.809c-0.107,0-0.193-0.09-0.193-0.195l0,0
					c0-0.104,0.086-0.184,0.193-0.184h4.809C31.053,53.129,31.14,53.209,31.14,53.312L31.14,53.312z"/>
			</g>
			<path fill="#E2AD4B" d="M31.334,53.572c0,0.207-0.095,0.369-0.209,0.369h-5.168c-0.113,0-0.209-0.162-0.209-0.369l0,0
				c0-0.203,0.096-0.369,0.209-0.369h5.168C31.24,53.203,31.334,53.369,31.334,53.572L31.334,53.572z"/>
		</g>
		<g>
			<g>
				<polygon fill="#F9E557" points="31.082,52.311 31.263,52.402 31.193,52.512 31.014,52.451 				"/>
				<polygon fill="#F9E557" points="26.167,52.328 25.982,52.402 26.077,52.486 26.261,52.402 				"/>
				<path fill="#F9E557" d="M31.229,52.498c0,0.107-0.086,0.186-0.193,0.186h-4.811c-0.107,0-0.194-0.078-0.194-0.186l0,0
					c0-0.102,0.087-0.189,0.194-0.189h4.811C31.144,52.309,31.229,52.396,31.229,52.498L31.229,52.498z"/>
			</g>
			<path fill="#E2AD4B" d="M31.423,52.752c0,0.207-0.094,0.379-0.208,0.379h-5.169c-0.113,0-0.207-0.172-0.207-0.379l0,0
				c0-0.203,0.094-0.367,0.207-0.367h5.169C31.329,52.385,31.423,52.549,31.423,52.752L31.423,52.752z"/>
		</g>
		<g>
			<g>
				<polygon fill="#F9E557" points="31.001,51.512 31.183,51.604 31.112,51.711 30.934,51.65 				"/>
				<polygon fill="#F9E557" points="26.083,51.516 25.902,51.604 25.997,51.682 26.178,51.604 				"/>
				<path fill="#F9E557" d="M31.148,51.695c0,0.104-0.085,0.186-0.192,0.186h-4.813c-0.106,0-0.193-0.082-0.193-0.186l0,0
					c0-0.105,0.087-0.188,0.193-0.188h4.813C31.063,51.508,31.148,51.59,31.148,51.695L31.148,51.695z"/>
			</g>
			<path fill="#E2AD4B" d="M31.34,51.951c0,0.207-0.091,0.377-0.206,0.377h-5.167c-0.117,0-0.21-0.17-0.21-0.377l0,0
				c0-0.205,0.094-0.371,0.21-0.371h5.167C31.249,51.58,31.34,51.746,31.34,51.951L31.34,51.951z"/>
		</g>
	</g>
</g>
<g>
	<path fill="#C9C9C9" d="M54.051,30.429c0,1.513-1.201,2.74-2.682,2.74c-1.484,0-2.688-1.227-2.688-2.74
		c0-1.517,1.204-2.744,2.688-2.744C52.85,27.686,54.051,28.913,54.051,30.429z"/>
	<path fill="#EAEAEA" d="M53.266,30.45c0,1.112-0.85,2.014-1.896,2.014c-1.051,0-1.9-0.902-1.9-2.014c0-1.111,0.849-2.009,1.9-2.009
		C52.416,28.44,53.266,29.339,53.266,30.45z"/>
	<ellipse fill="#C9C9C9" cx="51.368" cy="30.429" rx="1.087" ry="1.108"/>
</g>
</svg>
