<?xml version="1.0" encoding="utf-8"?>
<!-- Generator: Adobe Illustrator 16.0.0, SVG Export Plug-In . SVG Version: 6.00 Build 0)  -->
<!DOCTYPE svg PUBLIC "-//W3C//DTD SVG 1.1//EN" "http://www.w3.org/Graphics/SVG/1.1/DTD/svg11.dtd">
<svg version="1.1" id="Capa_1" xmlns="http://www.w3.org/2000/svg" xmlns:xlink="http://www.w3.org/1999/xlink" x="0px" y="0px"
	 width="41.833px" height="41.833px" viewBox="0 0 41.833 41.833" enable-background="new 0 0 41.833 41.833" xml:space="preserve">
<g>
	<g>
		<path fill="none" stroke="#505050" stroke-width="0.2" stroke-miterlimit="10" d="M2.5,31.458h15.792v3.334H15.75
			c-0.275,0-0.5,0.226-0.5,0.5v3.166c0,0.275,0.225,0.5,0.5,0.5h10.333c0.274,0,0.5-0.225,0.5-0.5v-3.166c0-0.274-0.226-0.5-0.5-0.5
			h-2.541v-3.334h15.791c1.379,0,2.5-1.121,2.5-2.5V5.375c0-1.378-1.121-2.5-2.5-2.5H2.5c-1.378,0-2.5,1.122-2.5,2.5v23.583
			C0,30.336,1.122,31.458,2.5,31.458z M16.25,37.958v-0.582h9.333v0.582H16.25z M25.583,36.375H16.25v-0.584h2.542h4.25h2.543
			L25.583,36.375L25.583,36.375z M22.542,34.792h-3.25v-3.332h3.25V34.792z M39.333,30.458H23.042h-4.25H2.5
			c-0.827,0-1.5-0.672-1.5-1.5v-1.75h39.833v1.75C40.833,29.786,40.159,30.458,39.333,30.458z M2.5,3.875h36.833
			c0.826,0,1.5,0.673,1.5,1.5v20.833H1V5.375C1,4.546,1.672,3.875,2.5,3.875z"/>
		<path fill="none" stroke="#505050" stroke-width="0.2" stroke-miterlimit="10" d="M7.667,25.125c0.139,0,0.276-0.06,0.375-0.17
			l6.643-7.512l3.457,3.57c0.003,0.004,0.006,0.004,0.009,0.006c0.003,0.004,0.004,0.008,0.006,0.01
			c0.031,0.029,0.068,0.047,0.103,0.063c0.02,0.012,0.035,0.026,0.056,0.035c0.06,0.023,0.123,0.037,0.187,0.037
			c0.064,0,0.128-0.014,0.189-0.038c0.02-0.008,0.036-0.024,0.056-0.036c0.035-0.021,0.072-0.037,0.104-0.066
			c0.003-0.002,0.003-0.006,0.006-0.01c0.003-0.002,0.006-0.002,0.009-0.006l5.24-5.519l4.084,2.119
			c0.008,0.004,0.02,0.003,0.025,0.006c0.063,0.03,0.135,0.05,0.205,0.05c0.08,0,0.158-0.025,0.229-0.064
			c0.021-0.012,0.039-0.031,0.063-0.047c0.029-0.022,0.062-0.038,0.088-0.067l6.834-8.125c0.179-0.211,0.148-0.527-0.063-0.705
			c-0.211-0.177-0.522-0.15-0.702,0.061l-6.574,7.818l-4.064-2.108c-0.01-0.005-0.02-0.004-0.023-0.008
			c-0.033-0.015-0.065-0.022-0.104-0.029c-0.026-0.006-0.058-0.014-0.086-0.015c-0.031-0.001-0.063,0.006-0.097,0.011
			c-0.03,0.005-0.063,0.009-0.096,0.021c-0.025,0.01-0.053,0.027-0.074,0.042c-0.031,0.018-0.063,0.036-0.088,0.061
			c-0.01,0.007-0.02,0.009-0.022,0.017l-5.142,5.414l-3.47-3.583c-0.005-0.005-0.012-0.007-0.018-0.011
			c-0.005-0.005-0.007-0.011-0.012-0.015c-0.02-0.018-0.045-0.025-0.066-0.039c-0.029-0.019-0.057-0.039-0.089-0.051
			c-0.029-0.011-0.06-0.014-0.091-0.019c-0.031-0.005-0.062-0.013-0.095-0.013c-0.033,0.001-0.065,0.01-0.097,0.017
			c-0.03,0.007-0.06,0.01-0.088,0.023c-0.031,0.013-0.058,0.035-0.086,0.054c-0.022,0.015-0.048,0.023-0.067,0.042
			c-0.005,0.005-0.007,0.012-0.011,0.017c-0.005,0.005-0.012,0.007-0.016,0.012l-7,7.917C7.109,24.5,7.127,24.814,7.334,25
			C7.432,25.083,7.548,25.125,7.667,25.125z"/>
	</g>
</g>
</svg>
