<?xml version="1.0" encoding="utf-8"?>
<!-- Generator: Adobe Illustrator 16.0.0, SVG Export Plug-In . SVG Version: 6.00 Build 0)  -->
<!DOCTYPE svg PUBLIC "-//W3C//DTD SVG 1.1//EN" "http://www.w3.org/Graphics/SVG/1.1/DTD/svg11.dtd">
<svg version="1.1" id="Layer_1" xmlns="http://www.w3.org/2000/svg" xmlns:xlink="http://www.w3.org/1999/xlink" x="0px" y="0px"
	 width="100px" height="100px" viewBox="0 0 100 100" enable-background="new 0 0 100 100" xml:space="preserve">
<g>
	<path fill="#65C2CC" d="M98.43,49.895c0,26.516-21.484,48-48,48c-26.516,0-48-21.483-48-48s21.484-48,48-48
		C76.945,1.895,98.43,23.379,98.43,49.895z"/>
	<path fill="#5296A0" d="M23.527,70.548l42.663,24.688c0,0,14.523-4.547,24-18.408c13.552-19.788,6.16-40.811,6.16-40.811
		L72.748,22.341L60.939,40.062l-18.679,12L35.4,69.208L23.527,70.548z"/>
	<path fill="#FFFFFF" d="M48.465,21.855c0,0-3.822-0.17-3.814,3.565c0.049,4.443-0.018,16.423-0.018,16.423l22.318,0.038V25.564
		l3.916-3.687L48.465,21.855z"/>
	<path fill="#FFFFFF" stroke="#000000" stroke-width="0.0745" stroke-miterlimit="10" d="M67.021,42.251"/>
	<path fill="#FFFFFF" stroke="#000000" stroke-width="0.0745" stroke-miterlimit="10" d="M67.021,42.251"/>
	<path fill="#DCDBDC" d="M66.951,42.429V25.751c0,0,0.041-3.876,3.852-3.876c3.754,0,3.803,3.832,3.803,3.832l0.015,13.132
		l3.364,3.59H66.951z"/>
	<path fill="#FFFFFF" d="M74.553,38.868c0,0,0.049,3.614,3.902,3.614c3.654,0,3.738-3.663,3.738-3.663L74.553,38.868z"/>
	<path fill="none" d="M21.842,67.544"/>
	<path fill="#DCDBDC" d="M25.74,71.148c-3.654-0.004-3.851-3.604-3.851-3.604h22.427c0,3.603,3.879,3.625,3.879,3.625
		S28.962,71.167,25.74,71.148z"/>
	<path fill="none" stroke="#020202" stroke-width="0.0925" stroke-miterlimit="10" d="M55.463,34.086"/>
	<path fill="#5A5B5B" d="M63.658,36.568c0,4.051-3.363,7.338-7.51,7.338c-4.135,0-7.499-3.287-7.499-7.338
		c0-4.065,3.364-7.355,7.499-7.355C60.295,29.213,63.658,32.503,63.658,36.568z"/>
	<path fill="#7F7F7F" d="M48.846,34.845c-0.918,4.067,1.594,6.476,1.594,6.476l5.736-4.723
		C56.176,36.598,48.867,34.755,48.846,34.845z"/>
	<path fill="#DAD9D9" d="M57.742,29.399c0,0,2.357,0.295,4.188,2.488c0.012,0.017-5.754,4.71-5.754,4.71L57.742,29.399z"/>
	<path fill="#9B9B9B" d="M48.846,34.845c0.936-4.043,5.16-6.323,8.896-5.445c0.008,0.002-1.566,7.198-1.566,7.198
		S48.836,34.908,48.846,34.845z"/>
	<path fill="#FFFFFF" d="M33.324,41.822c-3.891-0.035-3.924,3.771-3.924,3.771v21.949h14.917c0,0-0.514,3.645,3.879,3.625
		c3.562-0.023,3.668-3.625,3.668-3.625l-0.031-21.932l3.854-3.79C55.688,41.822,38.824,41.844,33.324,41.822z"/>
	<path fill="#DCDBDC" d="M63.287,56.709l-3.768-3.643L59.49,45.64c0,0,0.4-3.818-3.803-3.806c-3.92,0.011-3.855,3.777-3.855,3.777
		l-0.01,11.046L63.287,56.709z"/>
	<rect x="32.726" y="45.812" fill="#213F1C" width="10.331" height="0.391"/>
	<rect x="32.702" y="48.058" fill="#213F1C" width="8.628" height="0.39"/>
	<path fill="#EBEBEB" d="M55.654,41.834c0.02,0,3.836-0.11,3.836,3.761c-0.057,1.966,0,7.405,0,7.405s0.125,3.664,3.674,3.643
		C66.662,56.611,67,53,67,53l-0.049-11.156l-5.625-0.006L55.654,41.834z"/>
	<path fill="#565656" d="M58.852,43.284c0.113,0.111,2.56-1.459,2.56-1.459l-5.722-0.028C55.689,41.797,57.301,41.8,58.852,43.284z"
		/>
	<rect x="59.449" y="49.294" fill="#7F7F7F" width="5.482" height="1.127"/>
	<rect x="47.211" y="24.993" fill="#3C3C3C" width="16.234" height="0.984"/>
	<rect x="47.209" y="26.464" fill="#9B9B9B" width="5.584" height="1.126"/>
	<g id="Layer_2">
		<rect x="30.732" y="49.761" fill="#DAD9D9" width="19.721" height="13.523"/>
		<rect x="47.637" y="51.592" fill="#7F7F7F" width="1.543" height="11.158"/>
		<rect x="44.967" y="53.085" fill="#7F7F7F" width="1.518" height="9.664"/>
		<rect x="42.207" y="54.573" fill="#7F7F7F" width="1.543" height="8.176"/>
		<rect x="39.465" y="56.062" fill="#7F7F7F" width="1.516" height="6.687"/>
		<rect x="36.715" y="57.555" fill="#7F7F7F" width="1.515" height="5.194"/>
		<rect x="33.922" y="59.02" fill="#7F7F7F" width="1.512" height="3.729"/>
		<rect x="49.221" y="52.342" fill="#3C3C3C" width="0.746" height="10.415"/>
		<rect x="46.525" y="53.826" fill="#3C3C3C" width="0.779" height="8.923"/>
		<rect x="43.781" y="55.316" fill="#3C3C3C" width="0.764" height="7.433"/>
		<rect x="41.047" y="56.809" fill="#3C3C3C" width="0.758" height="5.94"/>
		<rect x="38.303" y="58.309" fill="#3C3C3C" width="0.756" height="4.448"/>
		<rect x="35.47" y="59.768" fill="#3C3C3C" width="0.768" height="2.981"/>
		<rect x="30.728" y="45.445" fill="#7F7F7F" width="1.14" height="1.126"/>
		<rect x="30.728" y="47.684" fill="#3C3C3C" width="1.14" height="1.125"/>
	</g>
</g>
</svg>
