<?xml version="1.0" encoding="utf-8"?>
<!-- Generator: Adobe Illustrator 16.0.0, SVG Export Plug-In . SVG Version: 6.00 Build 0)  -->
<!DOCTYPE svg PUBLIC "-//W3C//DTD SVG 1.1//EN" "http://www.w3.org/Graphics/SVG/1.1/DTD/svg11.dtd">
<svg version="1.1" id="Capa_1" xmlns="http://www.w3.org/2000/svg" xmlns:xlink="http://www.w3.org/1999/xlink" x="0px" y="0px"
	 width="85.988px" height="85.986px" viewBox="0 0 85.988 85.986" enable-background="new 0 0 85.988 85.986" xml:space="preserve">
<g>
	<path fill="none" stroke="#505050" stroke-width="0.4" stroke-miterlimit="10" d="M77.586,29.625c-2.661,0-4.821,2.185-4.821,4.868
		c0,2.685,2.16,4.867,4.821,4.867c2.651,0,4.811-2.184,4.811-4.867S80.236,29.625,77.586,29.625z M8.412,29.625
		c-2.66,0-4.821,2.185-4.821,4.868c0,2.685,2.161,4.867,4.821,4.867c2.654,0,4.813-2.184,4.813-4.867S11.066,29.625,8.412,29.625z
		 M63.265,20.772c-3.951,0-7.154,3.25-7.154,7.25c0,3.991,3.203,7.235,7.154,7.235s7.165-3.244,7.165-7.235
		C70.43,24.026,67.217,20.772,63.265,20.772z M85.488,64.829H77.33V49.637c0-2.609-0.759-5.033-1.976-7.146
		c0.717-0.212,1.453-0.363,2.231-0.363c4.351,0,7.902,3.594,7.902,8.006V64.829z M22.722,20.772c-3.954,0-7.166,3.25-7.166,7.25
		c0,3.991,3.212,7.235,7.166,7.235c3.941,0,7.153-3.244,7.153-7.235C29.875,24.026,26.664,20.772,22.722,20.772z M8.412,42.128
		c0.778,0,1.504,0.15,2.224,0.363c-1.23,2.112-1.976,4.536-1.976,7.146v15.192H0.5V50.134C0.5,45.721,4.055,42.128,8.412,42.128z
		 M42.986,6.296c-5.832,0-10.585,4.805-10.585,10.711c0,5.905,4.749,10.716,10.585,10.716c5.838,0,10.592-4.811,10.592-10.716
		C53.583,11.1,48.824,6.296,42.986,6.296z M74.71,70.484H62.212V47.368c0-3.179-0.829-6.136-2.169-8.787
		c1.022-0.306,2.098-0.523,3.224-0.523c6.306,0,11.443,5.188,11.443,11.579V70.484z M23.763,47.368v23.115H11.281V49.637
		c0-6.385,5.131-11.579,11.447-11.579c1.125,0,2.19,0.218,3.211,0.523C24.597,41.233,23.763,44.19,23.763,47.368z M26.384,77.174
		h33.207V47.368c0-9.265-7.451-16.798-16.605-16.798c-9.162,0-16.602,7.533-16.602,16.798V77.174z"/>
</g>
</svg>
