<?xml version="1.0" encoding="utf-8"?>
<!-- Generator: Adobe Illustrator 16.0.0, SVG Export Plug-In . SVG Version: 6.00 Build 0)  -->
<!DOCTYPE svg PUBLIC "-//W3C//DTD SVG 1.1//EN" "http://www.w3.org/Graphics/SVG/1.1/DTD/svg11.dtd">
<svg version="1.1" id="Layer_1" xmlns="http://www.w3.org/2000/svg" xmlns:xlink="http://www.w3.org/1999/xlink" x="0px" y="0px"
	 width="100px" height="100px" viewBox="0 0 100 100" enable-background="new 0 0 100 100" xml:space="preserve">
<g>
	<path fill="#65C2CC" d="M98.857,49.834c0,26.789-21.713,48.5-48.5,48.5c-26.788,0-48.5-21.711-48.5-48.5s21.711-48.5,48.5-48.5
		C77.146,1.334,98.857,23.045,98.857,49.834z"/>
	<path fill="#5296A0" d="M33.208,74.454l35.245,20.349c0,0,14.283-5.199,22.857-18.806c9.619-15.231,7.236-31.496,7.236-31.496
		l-44.734-25.82l-8.836,19.448L17.629,52.042l1.99,1.205l20.871,6.526L33.208,74.454z"/>
	<path fill="#E19E47" d="M57.207,24.547c0,3.741-3.025,6.772-6.765,6.772c-3.741,0-6.772-3.031-6.772-6.772
		c0-3.74,3.032-6.771,6.772-6.771S57.207,20.807,57.207,24.547z"/>
	<polygon fill="#F4F4F4" points="59.962,32.678 73.277,30.899 69.721,35.044 	"/>
	<polygon fill="#C6C0BE" points="72.087,35.191 73.277,30.899 69.721,35.044 	"/>
	<path fill="#FAFCF8" d="M81.398,50.007c0,11.724-13.912,21.22-31.072,21.22c-17.154,0-31.057-9.496-31.057-21.22
		s13.903-21.221,31.057-21.221C67.486,28.786,81.398,38.283,81.398,50.007z"/>
	<polygon fill="#FBFDF7" points="41.876,74.454 33.208,74.454 30.747,66.484 41.876,66.506 	"/>
	<polygon fill="#FBFDF7" points="67.254,74.4 58.593,74.4 58.593,66.451 70.029,66.377 	"/>
	<polygon fill="#FBFDF7" points="19.51,52.396 17.629,52.042 17.629,48.149 19.526,47.881 	"/>
	<polygon fill="#FBFDF7" points="83.328,54.365 80.159,54.376 81.057,47.354 83.328,47.365 	"/>
	<path fill="#B1B0B5" d="M75.645,43.914c0,0.655-0.535,1.183-1.189,1.183c-0.643,0-1.178-0.528-1.178-1.183
		c0-0.655,0.535-1.183,1.178-1.183C75.107,42.73,75.645,43.259,75.645,43.914z"/>
	<path fill="#FFFFFF" stroke="#000000" stroke-width="0.1183" stroke-miterlimit="10" d="M85.248,28.834"/>
	<polygon fill="#F4F4F4" points="61.152,34.449 69.721,31.642 66.18,35.779 	"/>
	<polygon fill="#C6C0BE" points="68.545,35.926 69.721,31.642 66.18,35.779 	"/>
	<rect x="43.258" y="30.35" fill="#C6C0BE" width="14.198" height="2.065"/>
	<circle fill="#FAD055" cx="50.403" cy="25.115" r="6.773"/>
	<path fill="#E19E47" d="M56.201,25.076c0,3.175-2.582,5.754-5.756,5.754c-3.175,0-5.754-2.579-5.754-5.754
		c0-3.176,2.58-5.748,5.754-5.748C53.619,19.328,56.201,21.9,56.201,25.076z"/>
	<path fill="#EFB54C" d="M50.445,19.328c3.895,0,5.764,3.567,5.756,5.148c-0.036,3.174-2.582,5.747-5.756,5.747
		c-3.175,0-5.753-2.572-5.754-5.747C44.689,22.833,46.55,19.328,50.445,19.328"/>
	<path id="path4135" fill="#E19E47" d="M50.861,29.646h-0.472l-0.004-1.419c-0.332-0.005-0.658-0.044-0.99-0.119
		c-0.331-0.067-0.664-0.174-0.997-0.316v-0.851c0.316,0.201,0.639,0.352,0.97,0.454c0.332,0.1,0.666,0.149,1.021,0.16v-2.154
		c-0.697-0.11-1.206-0.304-1.518-0.575c-0.319-0.273-0.473-0.647-0.473-1.12c0-0.507,0.166-0.915,0.509-1.208
		c0.346-0.294,0.839-0.467,1.481-0.512v-1.107h0.471v1.095c0.293,0.011,0.576,0.044,0.853,0.093
		c0.269,0.048,0.537,0.112,0.804,0.198v0.824c-0.267-0.127-0.539-0.237-0.813-0.304c-0.271-0.077-0.552-0.12-0.841-0.13v2.021
		c0.715,0.106,1.238,0.302,1.578,0.588c0.336,0.283,0.504,0.669,0.504,1.162c0,0.531-0.178,0.953-0.539,1.256
		c-0.354,0.311-0.868,0.487-1.543,0.535V29.646 M50.389,24.59v-1.937c-0.367,0.042-0.646,0.144-0.835,0.315
		c-0.193,0.163-0.288,0.387-0.288,0.665c0,0.267,0.087,0.481,0.269,0.631C49.708,24.413,49.991,24.526,50.389,24.59 M50.861,25.497
		v2.041c0.396-0.051,0.695-0.162,0.902-0.338c0.2-0.167,0.305-0.399,0.305-0.683c0-0.274-0.101-0.499-0.293-0.656
		C51.583,25.69,51.275,25.575,50.861,25.497"/>
	<path id="flowRoot2169" fill="#FAD055" d="M50.562,29.374H50.09l-0.004-1.418c-0.331-0.008-0.663-0.047-0.993-0.11
		c-0.332-0.079-0.663-0.181-0.996-0.323v-0.85c0.321,0.2,0.648,0.35,0.976,0.458c0.331,0.1,0.67,0.151,1.018,0.155v-2.159
		c-0.69-0.108-1.198-0.301-1.522-0.573c-0.308-0.268-0.471-0.64-0.471-1.111c0-0.514,0.176-0.923,0.514-1.217
		c0.344-0.294,0.839-0.467,1.479-0.511v-1.107h0.474v1.096c0.297,0.009,0.582,0.043,0.847,0.094
		c0.274,0.047,0.549,0.109,0.806,0.196v0.831c-0.257-0.134-0.527-0.235-0.81-0.311c-0.271-0.069-0.556-0.11-0.843-0.13v2.02
		c0.711,0.108,1.244,0.311,1.58,0.594c0.334,0.282,0.502,0.668,0.502,1.158c0,0.532-0.176,0.952-0.537,1.264
		c-0.355,0.299-0.867,0.48-1.545,0.528v1.426 M50.09,24.317v-1.938c-0.359,0.043-0.64,0.145-0.833,0.315
		c-0.189,0.17-0.287,0.387-0.287,0.666c0,0.272,0.09,0.479,0.26,0.629C49.412,24.147,49.7,24.253,50.09,24.317 M50.562,25.221v2.052
		c0.401-0.062,0.701-0.17,0.897-0.346c0.213-0.171,0.312-0.398,0.312-0.681c0-0.277-0.096-0.5-0.293-0.663
		C51.291,25.425,50.98,25.3,50.562,25.221"/>
	<path fill="none" stroke="#21231E" stroke-width="1.1829" stroke-miterlimit="10" d="M25.12,92.561"/>
</g>
</svg>
