<?xml version="1.0" encoding="utf-8"?>
<!-- Generator: Adobe Illustrator 16.0.0, SVG Export Plug-In . SVG Version: 6.00 Build 0)  -->
<!DOCTYPE svg PUBLIC "-//W3C//DTD SVG 1.1//EN" "http://www.w3.org/Graphics/SVG/1.1/DTD/svg11.dtd">
<svg version="1.1" id="Capa_1" xmlns="http://www.w3.org/2000/svg" xmlns:xlink="http://www.w3.org/1999/xlink" x="0px" y="0px"
	 width="512px" height="512px" viewBox="0 0 512 512" enable-background="new 0 0 512 512" xml:space="preserve">
<g>
	<path fill="#FFFDE7" stroke="#000000" stroke-width="2" stroke-miterlimit="10" d="M256,6C117.923,6,6,117.923,6,256s111.923,250,250,250
		s250-111.923,250-250S394.077,6,256,6z M256,466.938c-116.501,0-210.938-94.437-210.938-210.938S139.499,45.062,256,45.062
		S466.938,139.499,466.938,256S372.501,466.938,256,466.938z"/>
	<g>
		<path fill="#FFFDE7" stroke="#000000" stroke-width="2" stroke-miterlimit="10" d="M249.851,202.533h-60.257v-24.414h18.859
			c6.698,0,13.107-1.19,19.043-3.51c6.027-2.319,11.17-5.509,15.427-9.567c4.256-4.104,7.736-9.033,10.3-14.877
			c2.67-5.768,3.952-12.207,3.952-19.165h26.169v250h-33.493V202.533z"/>
	</g>
</g>
</svg>
