<?xml version="1.0" encoding="utf-8"?>
<!-- Generator: Adobe Illustrator 16.0.0, SVG Export Plug-In . SVG Version: 6.00 Build 0)  -->
<!DOCTYPE svg PUBLIC "-//W3C//DTD SVG 1.1//EN" "http://www.w3.org/Graphics/SVG/1.1/DTD/svg11.dtd">
<svg version="1.1" id="Capa_1" xmlns="http://www.w3.org/2000/svg" xmlns:xlink="http://www.w3.org/1999/xlink" x="0px" y="0px"
	 width="512px" height="512px" viewBox="0 0 512 512" enable-background="new 0 0 512 512" xml:space="preserve">
<g>
	<path fill="none" stroke="#000000" stroke-width="2" stroke-miterlimit="10" d="M256,6C117.923,6,6,117.923,6,256s111.923,250,250,250
		s250-111.923,250-250S394.077,6,256,6z M256,466.938c-116.501,0-210.938-94.437-210.938-210.938S139.499,45.062,256,45.062
		S466.938,139.499,466.938,256S372.501,466.938,256,466.938z"/>
	<g>
		<path fill="none" stroke="#000000" stroke-width="2" stroke-miterlimit="10" d="M273.776,381v-61.035h-95.901v-36.331L273.776,131h28.61v160.629
			h31.738v28.336h-31.738V381H273.776z M203.693,291.629h70.084V178.821L203.693,291.629z"/>
	</g>
</g>
</svg>
