<?xml version="1.0" encoding="utf-8"?>
<!-- Generator: Adobe Illustrator 16.0.0, SVG Export Plug-In . SVG Version: 6.00 Build 0)  -->
<!DOCTYPE svg PUBLIC "-//W3C//DTD SVG 1.1//EN" "http://www.w3.org/Graphics/SVG/1.1/DTD/svg11.dtd">
<svg version="1.1" id="Capa_1" xmlns="http://www.w3.org/2000/svg" xmlns:xlink="http://www.w3.org/1999/xlink" x="0px" y="0px"
	 width="512px" height="512px" viewBox="0 0 512 512" enable-background="new 0 0 512 512" xml:space="preserve">
<g>
	<path fill="none" stroke="#000000" stroke-width="2" stroke-miterlimit="10" d="M256,6C117.923,6,6,117.923,6,256s111.923,250,250,250
		s250-111.923,250-250S394.077,6,256,6z M256,466.938c-116.501,0-210.938-94.437-210.938-210.938S139.499,45.062,256,45.062
		S466.938,139.499,466.938,256S372.501,466.938,256,466.938z"/>
	<g>
		<path fill="none" stroke="#000000" stroke-width="2" stroke-miterlimit="10" d="M177.875,210.834c2.472-23.834,10.712-43.106,24.78-57.831
			C216.663,138.324,235.858,131,260.135,131c11.946,0,22.629,2.091,31.83,6.332c9.201,4.196,16.968,9.903,23.163,17.074
			c6.18,7.11,10.956,15.183,14.175,24.216c3.205,9.049,4.823,18.402,4.823,28.03c0,8.423-0.961,16.007-2.99,22.721
			c-2.046,6.714-4.837,12.68-8.484,17.868c-3.662,5.311-7.843,10.132-12.802,14.648c-4.807,4.578-10.086,8.865-15.809,12.925
			c-10.591,8.207-21.606,16.065-32.883,23.634c-11.322,7.568-22.187,16.144-32.593,25.711c-3.784,3.586-6.896,7.263-9.369,11.185
			c-2.441,3.924-4.486,8.819-6.119,14.666h114.624V381H180.347v-23.636c0-9.812,3.113-19.531,9.399-28.885
			c6.287-9.507,14.1-18.738,23.56-27.558c9.399-8.819,19.715-17.41,31.036-25.741c11.337-8.316,22.003-16.373,32.12-24.2
			c7.66-5.844,13.702-12.069,18.234-18.783c4.41-6.698,6.698-15.259,6.698-25.727c0-14.816-3.723-26.397-11.459-34.698
			c-7.599-8.285-17.518-12.436-29.801-12.436c-14.999,0-26.886,4.593-35.599,13.778c-8.789,9.155-13.123,21.729-13.123,37.72
			L177.875,210.834L177.875,210.834z"/>
	</g>
</g>
</svg>
