<?xml version="1.0" encoding="utf-8"?>
<!-- Generator: Adobe Illustrator 16.0.0, SVG Export Plug-In . SVG Version: 6.00 Build 0)  -->
<!DOCTYPE svg PUBLIC "-//W3C//DTD SVG 1.1//EN" "http://www.w3.org/Graphics/SVG/1.1/DTD/svg11.dtd">
<svg version="1.1" id="Capa_1" xmlns="http://www.w3.org/2000/svg" xmlns:xlink="http://www.w3.org/1999/xlink" x="0px" y="0px"
	 width="611.997px" height="611.997px" viewBox="0 0 611.997 611.997" enable-background="new 0 0 611.997 611.997"
	 xml:space="preserve">
<g>
	<g>
		<g>
			<path fill="none" stroke="#505050" stroke-width="2" stroke-miterlimit="10" d="M184.736,480.989
				c3.697-3.727,9.739-3.746,13.454-0.039c3.717,3.705,3.737,9.764,0.04,13.486l-47.697,47.854
				c-3.697,3.729-9.738,3.746-13.455,0.041c-1.868-1.873-2.802-4.322-2.802-6.771h-0.04V382.513c0-3.606,1.987-6.755,4.928-8.39
				l342.766-229.088c4.351-2.929,10.275-1.772,13.195,2.61c2.923,4.363,1.75,10.3-2.603,13.229L153.335,387.592v124.914
				L184.736,480.989z"/>
			<path fill="none" stroke="#505050" stroke-width="2" stroke-miterlimit="10" d="M175.196,427.458
				c-3.697-3.727-3.677-9.781,0.04-13.486c3.717-3.705,9.758-3.688,13.454,0.039l106.424,106.705L592.168,92.619v-3.467
				l-563.8,164.122l122.145,122.465c3.716,3.727,3.716,9.801,0,13.527c-3.717,3.725-9.778,3.725-13.494,0L3.507,255.386l0.02-0.02
				c-1.094-1.116-1.948-2.471-2.405-4.084c-1.45-5.041,1.452-10.34,6.479-11.814l590.65-171.93c1.073-0.398,2.225-0.638,3.458-0.638
				c5.267,0,9.539,4.284,9.539,9.563v19.125h-0.021c0,1.893-0.557,3.805-1.708,5.459L304.257,540.995l-0.02-0.021
				c-0.318,0.459-0.695,0.916-1.113,1.314c-3.717,3.707-9.759,3.686-13.455-0.039L175.196,427.458z"/>
		</g>
	</g>
</g>
</svg>
