<?xml version="1.0" encoding="utf-8"?>
<!-- Generator: Adobe Illustrator 16.0.0, SVG Export Plug-In . SVG Version: 6.00 Build 0)  -->
<!DOCTYPE svg PUBLIC "-//W3C//DTD SVG 1.1//EN" "http://www.w3.org/Graphics/SVG/1.1/DTD/svg11.dtd">
<svg version="1.1" id="Layer_1" xmlns="http://www.w3.org/2000/svg" xmlns:xlink="http://www.w3.org/1999/xlink" x="0px" y="0px"
	 width="100px" height="100px" viewBox="0 0 100 100" enable-background="new 0 0 100 100" xml:space="preserve">
<g>
	<circle fill="#64C2CC" cx="51.023" cy="49.5" r="48.189"/>
	<path fill="#5296A0" d="M71.417,23.875l-7.875,20.042L53.71,66.25l-18.817,9.688l32.65,18.771c0,0,16.832-5.333,25.789-22.167
		c9.324-17.524,4.749-33.249,4.749-33.249L71.417,23.875z"/>
	<polygon fill="#5296A0" points="30.938,39.5 39.125,24.031 44.031,26.875 51.5,31.156 56.375,25.875 59.469,27.594 67.375,40.344 
		75.062,44.75 58.062,55.312 46.75,48.906 46.25,48.219 	"/>
	<path fill="#EAEAEA" d="M80.743,65.936H53.835V54.381c0,0-0.349-11.311,13.382-11.311c13.835,0,13.526,11.311,13.526,11.311V65.936
		z"/>
	<circle fill="#EAEAEA" cx="67.217" cy="31.585" r="8.77"/>
	<path fill="#EAEAEA" d="M48.167,65.936H21.26V54.381c0,0-0.348-11.311,13.382-11.311c13.834,0,13.526,11.311,13.526,11.311
		L48.167,65.936L48.167,65.936z"/>
	<circle fill="#EAEAEA" cx="34.641" cy="31.585" r="8.77"/>
	<path fill="#FFFFFF" d="M67.107,75.938H34.893V62.104c0,0-0.416-13.542,16.021-13.542c16.562,0,16.193,13.542,16.193,13.542V75.938
		z"/>
	<circle fill="#FFFFFF" cx="50.914" cy="34.812" r="10.5"/>
	<polygon fill="#5296A0" points="21.26,65.936 34.896,65.938 34.917,73.875 	"/>
	<path fill="none" d="M40.833,38.166c0,0-0.75-3.583-0.104-5.958c0.659-2.423,2.125-4.354,2.125-4.354"/>
	<path fill="none" d="M58.969,27.875c0,0,1.562,1.688,2.219,4.938c0.617,3.052-0.125,5.141-0.125,5.141"/>
	<path fill="none" d="M34.781,66.438l0.094-5.344c0,0,0.321-4.955,4.062-8.656c2.781-2.75,8.25-3.75,8.25-3.75"/>
	<path fill="none" d="M54.828,48.734c0,0,4.672,0.349,9.006,4.683c3.375,3.375,3.375,8.416,3.375,8.416l0.025,4.136"/>
</g>
</svg>
