<?xml version="1.0" encoding="utf-8"?>
<!-- Generator: Adobe Illustrator 16.0.0, SVG Export Plug-In . SVG Version: 6.00 Build 0)  -->
<!DOCTYPE svg PUBLIC "-//W3C//DTD SVG 1.1//EN" "http://www.w3.org/Graphics/SVG/1.1/DTD/svg11.dtd">
<svg version="1.1" id="Layer_1" xmlns="http://www.w3.org/2000/svg" xmlns:xlink="http://www.w3.org/1999/xlink" x="0px" y="0px"
	 width="100px" height="100px" viewBox="0 0 100 100" enable-background="new 0 0 100 100" xml:space="preserve">
<circle fill="#65C2CC" cx="50.25" cy="50" r="48"/>
<path fill="#5296A0" d="M54.194,78.11l-0.295-6.846l-2.83-14.62l-3.134-4.799l-12.212-7.087c0,0,0.468-16.045,0.515-15.952
	c0.047,0.094,15.25-11.159,15.25-11.159l46.43,26.828c0,0,1.829,11.514-3.547,24.332c-6.099,14.533-18.507,21.773-18.507,21.773
	L54.194,78.11z"/>
<polygon fill="#EEB54B" points="50.562,51.155 48.969,51.707 46.955,45.863 48.549,45.319 "/>
<circle fill="#E19E48" cx="43.742" cy="31.253" r="15.685"/>
<path fill="#C6C0BE" d="M57.75,31.188c0,7.748-6.285,14.031-14.035,14.031c-7.753,0-14.037-6.284-14.037-14.031
	c0-7.755,6.284-14.039,14.037-14.039C51.465,17.149,57.75,23.433,57.75,31.188z"/>
<path fill="#EDF4F4" d="M42.005,18.688c0,0,4.382-1.381,7.543,0.855c2.911,2.058,3.79,5.054,3.79,5.054s-0.987-2.069-4.242-4.346
	C46.82,18.66,42.005,18.688,42.005,18.688z"/>
<polygon fill="#E19E48" points="62.695,75.187 54.194,78.11 45.425,52.628 53.918,49.705 "/>
<path fill="none" stroke="#091414" stroke-width="0.1" stroke-miterlimit="10" d="M139.994,110.088"/>
<path fill="none" stroke="#091414" stroke-width="0.1123" stroke-miterlimit="10" d="M5.151,36.341"/>
<path fill="none" stroke="#091414" stroke-width="0.1" stroke-miterlimit="10" d="M162.994,91.005"/>
<path fill="none" stroke="#091414" stroke-width="0.1123" stroke-miterlimit="10" d="M30.975,14.91"/>
</svg>
