<?xml version="1.0" encoding="utf-8"?>
<!-- Generator: Adobe Illustrator 16.0.0, SVG Export Plug-In . SVG Version: 6.00 Build 0)  -->
<!DOCTYPE svg PUBLIC "-//W3C//DTD SVG 1.1//EN" "http://www.w3.org/Graphics/SVG/1.1/DTD/svg11.dtd">
<svg version="1.1" id="Layer_1" xmlns="http://www.w3.org/2000/svg" xmlns:xlink="http://www.w3.org/1999/xlink" x="0px" y="0px"
	 width="100px" height="100px" viewBox="0 0 100 100" enable-background="new 0 0 100 100" xml:space="preserve">
<path fill="#65C1CB" d="M97.954,50c0,26.498-21.481,47.977-47.972,47.977C23.479,97.977,2,76.498,2,50
	C2,23.504,23.479,2.023,49.982,2.023C76.473,2.023,97.954,23.504,97.954,50z"/>
<path fill="#52959F" d="M66.237,82.756l-0.021-2.721l-2.233-4.662l-3.827-3.08L35.531,58.076l10.406-27.713l3.722-7.376l1.335-3.895
	l46.753,26.95c0,0,1.588,10.625-3.192,21.68c-6.79,15.715-17.103,21.578-17.103,21.578L66.237,82.756z"/>
<polygon fill="#E19E48" points="66.236,82.793 66.489,82.346 66.961,82.291 67.108,82.633 66.78,82.926 "/>
<polygon fill="#E19E48" points="69.456,81.391 66.78,82.926 47.958,50.348 50.641,48.793 "/>
<polygon fill="#EEB54B" points="68.925,81.236 66.236,82.793 47.426,50.201 50.104,48.664 "/>
<polygon fill="#C6C0BE" points="36.234,58.234 35.504,58.086 36.126,57.295 36.653,57.602 "/>
<polygon fill="#C6C0BE" points="50.991,19.067 51.204,19.83 50.248,19.959 50.25,18.937 "/>
<polygon fill="#C6C0BE" points="64.262,42.049 36.234,58.234 22.964,35.246 50.991,19.067 "/>
<polygon fill="#F4F4F4" points="63.518,41.915 35.504,58.086 22.234,35.112 50.25,18.937 "/>
<polygon fill="#B05454" points="53.849,40.209 53.332,42.149 32.557,36.575 33.083,34.63 "/>
<polygon fill="#B05454" points="52.938,42.378 52.955,41.61 53.332,42.149 "/>
<polygon fill="#B05454" points="32.673,34.868 33.083,34.63 33.296,35.249 "/>
<polygon fill="#B05454" points="46.915,28.204 44.977,27.678 39.41,48.438 41.361,48.973 "/>
<polygon fill="#B05454" points="44.57,27.908 45.447,28.365 44.977,27.678 "/>
<polygon fill="#B05454" points="40.946,49.221 41.361,48.973 40.917,48.479 "/>
<polygon fill="#E5696A" points="46.52,28.432 44.57,27.908 39.001,48.682 40.946,49.221 "/>
<polygon fill="#E5696A" points="53.458,40.442 52.938,42.378 32.151,36.811 32.673,34.868 "/>
</svg>
