<?xml version="1.0" encoding="utf-8"?>
<!-- Generator: Adobe Illustrator 16.0.0, SVG Export Plug-In . SVG Version: 6.00 Build 0)  -->
<!DOCTYPE svg PUBLIC "-//W3C//DTD SVG 1.1//EN" "http://www.w3.org/Graphics/SVG/1.1/DTD/svg11.dtd">
<svg version="1.1" id="Layer_1" xmlns="http://www.w3.org/2000/svg" xmlns:xlink="http://www.w3.org/1999/xlink" x="0px" y="0px"
	 width="100px" height="100px" viewBox="0 0 100 100" enable-background="new 0 0 100 100" xml:space="preserve">
<path fill="#65C2CC" d="M97.965,49.583c0,26.512-21.483,48-47.981,48C23.48,97.584,2,76.096,2,49.583c0-26.51,21.48-48,47.984-48
	C76.481,1.583,97.965,23.073,97.965,49.583z"/>
<path fill="#5296A0" d="M19.143,65.842l4.712-1.89l2.862-3.434l-8.9-5.197l7.624-1.267l14.818-3.409l4.804-1.548l6.808-3.45
	l7.809-4.958l7.904-8.936l1.046-2.636l29.207,16.843c0,0,1.644,13.679-5.514,26.248c-10.111,17.764-24.432,21.79-24.432,21.79
	L19.143,65.842z"/>
<rect x="35.894" y="54.927" fill="#C5BFBD" width="14.135" height="10.964"/>
<rect x="19.122" y="60.873" fill="#C5BFBD" width="14.137" height="5.049"/>
<polygon fill="#C6C0BE" points="82.985,42.549 83.395,42.908 82.981,43.901 "/>
<polygon fill="#C5BFBD" points="52.174,65.529 52.562,65.891 52.567,65.529 "/>
<polygon fill="#C5BFBD" points="50.029,54.927 49.55,54.562 49.55,55.289 "/>
<polygon fill="#C5BFBD" points="35.42,65.509 35.903,65.509 35.894,65.891 "/>
<polygon fill="#C5BFBD" points="32.81,60.478 33.259,60.873 32.816,61.112 "/>
<polygon fill="#C5BFBD" points="18.677,65.527 19.198,65.509 19.122,65.922 "/>
<rect x="18.677" y="60.478" fill="#F4F4F4" width="14.133" height="5.05"/>
<rect x="35.42" y="54.562" fill="#F4F4F4" width="14.129" height="10.946"/>
<rect x="69.271" y="42.908" fill="#C6C0BE" width="14.123" height="22.999"/>
<rect x="52.562" y="49.033" fill="#C6C0BE" width="14.138" height="16.858"/>
<polygon fill="#C6C0BE" points="68.844,65.548 69.271,65.906 69.271,65.529 "/>
<polygon fill="#C6C0BE" points="66.318,48.7 66.7,49.033 66.318,49.309 "/>
<rect x="52.174" y="48.7" fill="#F4F4F4" width="14.145" height="16.829"/>
<rect x="68.844" y="42.549" fill="#F4F4F4" width="14.142" height="22.999"/>
<path fill="none" stroke="#E19E48" stroke-width="0.8417" stroke-miterlimit="10" d="M18.196,55.181c0,0,16.745-1.02,30.294-7.44
	c13.331-6.33,17.823-13.769,17.823-13.769"/>
<polygon fill="#E19E48" points="61.82,35.107 69.029,29.392 66.867,39.733 66.078,34.643 "/>
<polygon fill="#E19E48" points="17.973,55.113 17.778,55.321 18.204,55.562 18.572,55.273 "/>
<polygon fill="#E19E48" points="68.627,29.115 69.029,29.392 68.565,30.046 68.292,30.085 "/>
<polygon fill="#E19E48" points="61.379,34.817 61.82,35.107 62.504,34.866 62.567,34.557 "/>
<polygon fill="#E19E48" points="66.867,39.733 66.441,39.455 66.48,38.447 66.993,37.826 "/>
<path fill="none" stroke="#FAD056" stroke-width="0.8417" stroke-miterlimit="10" d="M17.772,54.874c0,0,16.747-0.998,30.301-7.432
	c13.306-6.299,17.795-13.739,17.795-13.739"/>
<polygon fill="#FAD056" points="61.379,34.817 68.627,29.115 66.441,39.455 65.665,34.354 "/>
</svg>
