<?xml version="1.0" encoding="utf-8"?>
<!-- Generator: Adobe Illustrator 16.0.0, SVG Export Plug-In . SVG Version: 6.00 Build 0)  -->
<!DOCTYPE svg PUBLIC "-//W3C//DTD SVG 1.1//EN" "http://www.w3.org/Graphics/SVG/1.1/DTD/svg11.dtd">
<svg version="1.1" id="Layer_1" xmlns="http://www.w3.org/2000/svg" xmlns:xlink="http://www.w3.org/1999/xlink" x="0px" y="0px"
	 width="100px" height="100px" viewBox="0 0 100 100" enable-background="new 0 0 100 100" xml:space="preserve">
<circle fill="#65C1CB" cx="49.813" cy="50" r="48"/>
<path fill="#52959F" d="M36.169,76.154l-4.527-3.146l-4.061-4.06l-2.631-4.153l-1.711-4.255l-1.147-4.724l5.952,3.48l0.92-5.952
	l0.74-12.981l-6.717-3.881l0.345-3.69l-1.259-3.762l3.844,2.112l7.569-7.241l5.73-2.884l5.196-1.598l3.346-0.251l5.052,0.042
	l6.12,1.438l5.264,2.077l32.875,18.927c0,0,4.864,21.385-10.906,39.702c-8.37,9.717-18.412,13.149-18.412,13.149L36.169,76.154z"/>
<path fill="#E29F49" d="M74.652,48.014c0,13.413-10.83,24.312-24.277,24.312c-13.448,0-24.316-10.899-24.316-24.312
	c0-13.446,10.869-24.351,24.316-24.351C63.822,23.663,74.652,34.568,74.652,48.014z"/>
<path fill="#FAD057" d="M50.226,25.688c13.484,0,24.321,10.906,24.321,24.319c0,13.485-10.837,24.314-24.321,24.314
	c-13.411,0-24.317-10.829-24.317-24.314C25.909,36.594,36.814,25.688,50.226,25.688z"/>
<path fill="#E29F49" d="M71.094,49.894c0,11.421-9.322,20.668-20.713,20.668c-11.387,0-20.674-9.247-20.674-20.668
	c0-11.425,9.289-20.667,20.674-20.667C61.771,29.226,71.094,38.469,71.094,49.894z"/>
<path fill="#EEB54C" d="M50.38,29.226c13.979,0,20.721,12.818,20.713,18.49c-0.186,11.418-9.322,20.667-20.713,20.667
	c-11.387,0-20.673-9.248-20.674-20.667C29.705,41.801,36.401,29.226,50.38,29.226"/>
<path id="path4135" fill="#E29F49" d="M51.883,66.309h-1.708l-0.004-5.091c-1.197-0.004-2.346-0.191-3.542-0.425
	c-1.19-0.288-2.389-0.626-3.581-1.139v-3.097c1.138,0.729,2.284,1.323,3.48,1.655c1.192,0.321,2.391,0.519,3.646,0.604v-7.775
	c-2.5-0.405-4.317-1.053-5.457-2.072c-1.142-0.949-1.67-2.299-1.67-4.043c0-1.781,0.578-3.24,1.821-4.286
	c1.243-1.077,3.012-1.697,5.305-1.857v-3.989h1.705v3.943c1.042,0.045,2.076,0.152,3.033,0.349c1.011,0.165,1.955,0.38,2.897,0.692
	v2.955c-0.942-0.428-1.891-0.837-2.914-1.057c-0.944-0.3-1.977-0.457-3.014-0.501v7.27c2.582,0.401,4.467,1.05,5.703,2.09
	c1.159,1.031,1.78,2.463,1.78,4.231c0,1.882-0.631,3.423-1.963,4.483c-1.253,1.134-3.105,1.753-5.521,1.887V66.309 M50.175,48.131
	v-6.959c-1.306,0.16-2.296,0.52-2.975,1.137c-0.716,0.613-1.038,1.364-1.038,2.391c0,0.942,0.314,1.752,0.945,2.282
	C47.733,47.505,48.766,47.918,50.175,48.131 M51.883,51.367v7.358c1.451-0.199,2.499-0.606,3.233-1.235
	c0.72-0.545,1.128-1.379,1.128-2.411c0-1.023-0.404-1.84-1.055-2.376C54.482,52.078,53.382,51.668,51.883,51.367"/>
<path id="flowRoot2169" fill="#FAD057" d="M50.798,65.286h-1.675l-0.041-5.089c-1.154-0.008-2.351-0.13-3.541-0.341
	c-1.196-0.3-2.388-0.699-3.584-1.145v-3.1c1.147,0.729,2.335,1.249,3.49,1.661c1.191,0.322,2.432,0.521,3.676,0.524v-7.706
	c-2.489-0.403-4.31-1.123-5.458-2.071c-1.129-0.943-1.709-2.29-1.709-4.032c0-1.79,0.628-3.287,1.827-4.333
	c1.246-1.08,3.049-1.702,5.34-1.854v-3.959h1.712v3.943c1.046,0.014,2.08,0.122,3.019,0.32c0.958,0.161,1.974,0.409,2.905,0.724
	v2.964c-0.932-0.474-1.945-0.836-2.909-1.134c-0.979-0.221-2.011-0.374-3.015-0.435v7.271c2.545,0.336,4.472,1.062,5.632,2.097
	c1.231,1.03,1.852,2.389,1.852,4.155c0,1.955-0.629,3.429-1.961,4.563c-1.264,1.048-3.116,1.748-5.523,1.878v5.097 M49.123,47.182
	v-6.989c-1.293,0.148-2.322,0.52-3.006,1.129c-0.674,0.616-1.035,1.401-1.035,2.405c0,0.971,0.353,1.705,0.935,2.23
	C46.684,46.564,47.721,46.896,49.123,47.182 M50.798,50.408v7.378c1.452-0.211,2.541-0.622,3.256-1.244
	c0.742-0.623,1.134-1.451,1.134-2.482c0-0.953-0.382-1.776-1.089-2.384C53.44,51.139,52.307,50.717,50.798,50.408"/>
<path fill="none" stroke="#AEABAB" stroke-width="0.4433" stroke-miterlimit="10" d="M75.232,64.523c0,0-8.636,15.569-25.58,14.914
	c-24.666-0.968-27.49-23.377-27.49-23.377"/>
<polygon fill="#AEABAB" points="76.689,62.13 77.574,69.584 75.138,64.817 71.146,64.35 "/>
<polygon fill="#AEABAB" points="77.297,69.349 77.574,69.584 77.134,68.11 "/>
<polygon fill="#AEABAB" points="76.412,61.903 76.689,62.13 76.477,62.499 "/>
<polygon fill="#AEABAB" points="70.868,64.123 71.146,64.35 71.634,64.18 "/>
<polygon fill="#C5BFBD" points="76.412,61.903 77.297,69.349 74.91,64.591 70.868,64.123 "/>
<polygon fill="#AEABAB" points="22.365,56.023 22.092,55.817 22.159,56.214 "/>
<path fill="none" stroke="#C5BFBD" stroke-width="0.4433" stroke-miterlimit="10" d="M74.952,64.425c0,0-8.633,15.441-25.577,14.786
	c-24.661-0.977-27.489-23.386-27.489-23.386"/>
<path fill="none" stroke="#AEABAB" stroke-width="0.4433" stroke-miterlimit="10" d="M24.163,33.863c0,0,8.635-15.57,25.583-14.914
	c24.657,0.967,27.482,23.376,27.482,23.376"/>
<polygon fill="#AEABAB" points="22.709,36.252 21.82,28.802 24.257,33.564 28.253,34.032 "/>
<polygon fill="#AEABAB" points="22.098,29.033 21.82,28.802 22.256,30.271 "/>
<polygon fill="#AEABAB" points="22.986,36.483 22.709,36.252 22.914,35.883 "/>
<polygon fill="#AEABAB" points="28.531,34.263 28.253,34.032 27.765,34.203 "/>
<polygon fill="#C5BFBD" points="22.986,36.483 22.098,29.033 24.488,33.795 28.531,34.263 "/>
<polygon fill="#AEABAB" points="77.025,42.358 77.303,42.564 77.231,42.168 "/>
<path fill="none" stroke="#C5BFBD" stroke-width="0.4433" stroke-miterlimit="10" d="M24.443,33.962c0,0,8.632-15.442,25.576-14.787
	c24.661,0.972,27.486,23.381,27.486,23.381"/>
<path fill="none" stroke="#211614" stroke-width="0.1" stroke-miterlimit="10" d="M140.37,134.588"/>
<path fill="none" stroke="#211614" stroke-width="0.1108" stroke-miterlimit="10" d="M6.201,59.024"/>
<path fill="none" stroke="#211614" stroke-width="0.1" stroke-miterlimit="10" d="M147.246,127.338"/>
<path fill="none" stroke="#211614" stroke-width="0.1108" stroke-miterlimit="10" d="M13.818,50.996"/>
<path fill="none" stroke="#211614" stroke-width="0.1" stroke-miterlimit="10" d="M151.12,105.297"/>
<path fill="none" stroke="#211614" stroke-width="0.1108" stroke-miterlimit="10" d="M18.114,26.565"/>
<path fill="none" stroke="#211614" stroke-width="0.1" stroke-miterlimit="10" d="M144.912,108.088"/>
<path fill="none" stroke="#211614" stroke-width="0.1108" stroke-miterlimit="10" d="M11.233,29.659"/>
<path fill="none" stroke="#211614" stroke-width="0.1" stroke-miterlimit="10" d="M155.537,121.63"/>
<path fill="none" stroke="#211614" stroke-width="0.1108" stroke-miterlimit="10" d="M23.007,44.666"/>
<path fill="none" stroke="#211614" stroke-width="0.1" stroke-miterlimit="10" d="M172.662,90.13"/>
<path fill="none" stroke="#211614" stroke-width="0.1108" stroke-miterlimit="10" d="M41.986,9.755"/>
</svg>
