<?xml version="1.0" encoding="utf-8"?>
<!-- Generator: Adobe Illustrator 16.0.0, SVG Export Plug-In . SVG Version: 6.00 Build 0)  -->
<!DOCTYPE svg PUBLIC "-//W3C//DTD SVG 1.1//EN" "http://www.w3.org/Graphics/SVG/1.1/DTD/svg11.dtd">
<svg version="1.1" id="Layer_1" xmlns="http://www.w3.org/2000/svg" xmlns:xlink="http://www.w3.org/1999/xlink" x="0px" y="0px"
	 width="100px" height="100px" viewBox="0 0 100 100" enable-background="new 0 0 100 100" xml:space="preserve">
<path fill="#65C2CC" d="M97.865,50c0,26.524-21.475,48-48,48c-26.524,0-48-21.476-48-48s21.476-48,48-48
	C76.391,2,97.865,23.476,97.865,50z"/>
<path fill="#5296A0" d="M37.492,68.655l21.294-40.216l16.664,9.469l0.562-14.582l19.225,11.201c0,0,6.179,13.885-0.288,31.788
	C88.765,83.46,75.45,90.511,75.45,90.511L37.492,68.655z"/>
<path fill="#E29F49" d="M70.226,47.644c0,12.104-9.769,21.941-21.905,21.941c-12.135,0-21.94-9.838-21.94-21.941
	c0-12.132,9.807-21.97,21.94-21.97C60.457,25.673,70.226,35.511,70.226,47.644z"/>
<path fill="#FAD057" d="M48.184,27.501c12.169,0,21.945,9.84,21.945,21.943c0,12.167-9.775,21.943-21.945,21.943
	c-12.102,0-21.941-9.776-21.941-21.943C26.243,37.341,36.082,27.501,48.184,27.501z"/>
<path fill="#E29F49" d="M67.015,49.34c0,10.305-8.416,18.654-18.69,18.654c-10.274,0-18.655-8.35-18.655-18.654
	c0-10.308,8.382-18.648,18.655-18.648C58.599,30.691,67.015,39.032,67.015,49.34z"/>
<path fill="#EEB54C" d="M48.325,30.691c12.615,0,18.698,11.569,18.69,16.687c-0.167,10.306-8.416,18.647-18.69,18.647
	c-10.274,0-18.654-8.342-18.655-18.647C29.668,42.04,35.71,30.691,48.325,30.691"/>
<path id="path4135" fill="#E29F49" d="M49.681,64.153h-1.542l-0.004-4.597c-1.078-0.004-2.117-0.173-3.194-0.379
	c-1.076-0.261-2.155-0.562-3.232-1.029v-2.794c1.028,0.655,2.064,1.194,3.141,1.49c1.078,0.294,2.157,0.473,3.29,0.549v-7.016
	c-2.253-0.369-3.896-0.952-4.921-1.871c-1.032-0.857-1.51-2.074-1.51-3.649c0-1.607,0.522-2.924,1.643-3.865
	c1.124-0.972,2.719-1.533,4.788-1.679v-3.6h1.54v3.559c0.941,0.041,1.874,0.138,2.74,0.317c0.91,0.147,1.763,0.343,2.613,0.624
	v2.667c-0.851-0.387-1.707-0.755-2.63-0.951c-0.854-0.272-1.784-0.416-2.721-0.455v6.56c2.325,0.364,4.027,0.95,5.145,1.885
	c1.049,0.931,1.606,2.225,1.606,3.819c0,1.698-0.567,3.093-1.771,4.044c-1.134,1.023-2.804,1.588-4.98,1.703V64.153 M48.138,47.752
	v-6.281c-1.178,0.146-2.072,0.469-2.682,1.027c-0.647,0.554-0.938,1.231-0.938,2.157c0,0.851,0.283,1.583,0.854,2.058
	C45.934,47.186,46.866,47.558,48.138,47.752 M49.681,50.668v6.644c1.305-0.181,2.252-0.551,2.913-1.116
	c0.655-0.49,1.018-1.241,1.018-2.173c0-0.923-0.358-1.666-0.945-2.147C52.023,51.314,51.033,50.94,49.681,50.668"/>
<path id="flowRoot2169" fill="#FAD057" d="M48.701,63.231h-1.51l-0.036-4.595c-1.044-0.008-2.122-0.111-3.197-0.304
	c-1.077-0.272-2.154-0.636-3.231-1.035v-2.797c1.033,0.655,2.106,1.13,3.147,1.496c1.077,0.295,2.193,0.475,3.319,0.479v-6.955
	c-2.246-0.367-3.888-1.014-4.926-1.87c-1.019-0.852-1.54-2.065-1.54-3.639c0-1.616,0.564-2.966,1.648-3.907
	c1.123-0.975,2.752-1.538,4.818-1.676v-3.57h1.543v3.559c0.945,0.01,1.878,0.108,2.726,0.288c0.866,0.143,1.781,0.368,2.621,0.65
	v2.676c-0.84-0.428-1.753-0.754-2.625-1.024c-0.887-0.198-1.819-0.337-2.722-0.39v6.558c2.298,0.304,4.032,0.961,5.082,1.892
	c1.112,0.93,1.669,2.159,1.669,3.752c0,1.763-0.565,3.09-1.769,4.115c-1.136,0.947-2.814,1.583-4.982,1.694v4.603 M47.191,46.895
	v-6.307c-1.169,0.134-2.098,0.47-2.713,1.02c-0.61,0.557-0.934,1.264-0.934,2.172c0,0.875,0.316,1.536,0.843,2.01
	C44.99,46.336,45.926,46.636,47.191,46.895 M48.701,49.809v6.655c1.31-0.192,2.289-0.559,2.939-1.125
	c0.669-0.56,1.023-1.305,1.023-2.235c0-0.861-0.345-1.603-0.987-2.155C51.083,50.466,50.059,50.081,48.701,49.809"/>
<polygon fill="#AEABAB" points="79.211,63.976 75.943,79.445 72.738,64.144 "/>
<rect x="75.55" y="23.463" fill="#AEABAB" width="0.762" height="42.106"/>
<polygon fill="#AEABAB" points="76.013,23.327 76.312,23.463 75.931,24.401 "/>
<rect x="75.188" y="23.327" fill="#C6C0BE" width="0.825" height="42.136"/>
<polygon fill="#AEABAB" points="78.85,63.868 79.211,63.976 78.943,64.537 "/>
<polygon fill="#AEABAB" points="75.645,79.338 75.943,79.445 76.123,77.468 "/>
<polygon fill="#C6C0BE" points="78.85,63.868 75.645,79.338 72.376,63.973 "/>
</svg>
