<?xml version="1.0" encoding="utf-8"?>
<!-- Generator: Adobe Illustrator 16.0.0, SVG Export Plug-In . SVG Version: 6.00 Build 0)  -->
<!DOCTYPE svg PUBLIC "-//W3C//DTD SVG 1.1//EN" "http://www.w3.org/Graphics/SVG/1.1/DTD/svg11.dtd">
<svg version="1.1" id="Layer_1" xmlns="http://www.w3.org/2000/svg" xmlns:xlink="http://www.w3.org/1999/xlink" x="0px" y="0px"
	 width="100px" height="100px" viewBox="0 0 100 100" enable-background="new 0 0 100 100" xml:space="preserve">
<path fill="#65C1CB" d="M98.169,49.987c0,26.54-21.506,47.998-48,47.998c-26.518,0-48-21.458-48-47.998
	c0-26.498,21.482-47.973,48-47.973C76.663,2.015,98.169,23.489,98.169,49.987z"/>
<path fill="#52959F" d="M35.078,79.152l2.438-7.391l12.789-29.28l14.211-14.436l3.641-6.719l-3.091-8.401l28.356,16.394
	c0,0,9.938,18.917,0.698,40.017c-9.346,21.313-30.089,26.581-30.089,26.581L35.078,79.152z"/>
<path fill="#FFFFFF" d="M80.477,52.765c0,16.8-13.613,30.411-30.413,30.411c-16.798,0-30.411-13.611-30.411-30.411
	c0-16.774,13.613-30.385,30.411-30.385C66.863,22.38,80.477,35.99,80.477,52.765z"/>
<path fill="#E5686A" d="M76.736,52.731c0,14.69-11.906,26.644-26.609,26.644c-14.685,0-26.603-11.953-26.603-26.644
	c0-14.672,11.918-26.598,26.603-26.598C64.83,26.134,76.736,38.06,76.736,52.731z"/>
<path fill="#FFFFFF" d="M72.989,52.621c0,12.584-10.197,22.838-22.773,22.838c-12.595,0-22.814-10.254-22.814-22.838
	c0-12.588,10.22-22.785,22.814-22.785C62.792,29.836,72.989,40.033,72.989,52.621z"/>
<path fill="#E5686A" d="M69.3,52.577c0,10.528-8.541,19.022-19.018,19.022c-10.505,0-19.02-8.494-19.02-19.022
	c0-10.483,8.515-18.988,19.02-18.988C60.759,33.589,69.3,42.094,69.3,52.577z"/>
<path fill="#FFFFFF" d="M65.488,52.577c0,8.425-6.827,15.212-15.206,15.212c-8.399,0-15.207-6.787-15.207-15.212
	c0-8.359,6.807-15.175,15.207-15.175C58.661,37.402,65.488,44.218,65.488,52.577z"/>
<path fill="#E5686A" d="M61.53,52.731c0,6.308-5.083,11.437-11.403,11.437c-6.284,0-11.406-5.129-11.406-11.437
	c0-6.261,5.122-11.396,11.406-11.396C56.447,41.336,61.53,46.471,61.53,52.731z"/>
<path fill="#FFFFFF" d="M55.524,52.944c0,2.987-2.415,5.413-5.397,5.413c-2.972,0-5.399-2.426-5.399-5.413
	c0-2.965,2.427-5.395,5.399-5.395C53.109,47.55,55.524,49.979,55.524,52.944z"/>
<polygon fill="#5B5C5C" points="49.784,53.524 48.837,51.921 66.11,22.034 67.523,22.847 "/>
<polygon fill="#5B5C5C" points="49.778,53.507 51.649,53.515 68.925,23.609 67.51,22.817 "/>
<polygon fill="#5B5C5C" points="73.785,26.154 77.34,20.016 69.93,18.701 66.377,24.837 "/>
<polygon fill="#5B5C5C" points="69.93,18.701 66.377,24.837 61.506,19.062 65.065,12.926 "/>
<polygon fill="#AFACAC" points="62,32.093 62.109,32.28 70.359,18.78 69.578,18.296 "/>
</svg>
