<?xml version="1.0" encoding="utf-8"?>
<!-- Generator: Adobe Illustrator 16.0.0, SVG Export Plug-In . SVG Version: 6.00 Build 0)  -->
<!DOCTYPE svg PUBLIC "-//W3C//DTD SVG 1.1//EN" "http://www.w3.org/Graphics/SVG/1.1/DTD/svg11.dtd">
<svg version="1.1" id="Layer_1" xmlns="http://www.w3.org/2000/svg" xmlns:xlink="http://www.w3.org/1999/xlink" x="0px" y="0px"
	 width="100px" height="100px" viewBox="0 0 100 100" enable-background="new 0 0 100 100" xml:space="preserve">
<g>
	<g>
		<g>
			<g>
				<path fill="#54959F" d="M50.129,86.917l44.73-54.394L80.947,13.194H19.319L5.393,32.523L50.129,86.917L50.129,86.917z
					 M97.917,33.523L51.302,90.196c-0.062,0.084-0.132,0.173-0.224,0.234c-0.646,0.507-1.594,0.412-2.115-0.223L2.343,33.523
					c-0.414-0.506-0.46-1.248-0.061-1.805l14.976-20.785c0.266-0.435,0.744-0.73,1.288-0.73h63.179v0.008
					c0.467,0.004,0.928,0.216,1.222,0.628l15.007,20.856L97.917,33.523z"/>
			</g>
			<path fill="#54959F" d="M60.647,31.094c0.837,0,1.505,0.663,1.505,1.49c0,0.819-0.668,1.489-1.505,1.489H3.504
				C2.677,34.072,2,33.403,2,32.583c0-0.827,0.676-1.49,1.504-1.49H60.647z"/>
			<path fill="#54959F" d="M96.493,31.094c0.829,0,1.507,0.663,1.507,1.49c0,0.819-0.678,1.489-1.507,1.489h-5.759
				c-0.835,0-1.5-0.669-1.5-1.489c0-0.827,0.665-1.49,1.5-1.49H96.493z"/>
			<path fill="#54959F" d="M17.155,12.255c-0.315-0.765,0.062-1.637,0.835-1.936c0.768-0.309,1.642,0.064,1.943,0.824l31.593,77.573
				c0.302,0.765-0.073,1.637-0.842,1.938c-0.76,0.297-1.642-0.071-1.949-0.835L17.155,12.255z"/>
			<path fill="#54959F" d="M66.359,45.454c0.294-0.76,1.178-1.134,1.947-0.826c0.77,0.3,1.146,1.175,0.829,1.941L51.526,89.824
				c-0.312,0.764-1.188,1.136-1.956,0.831c-0.766-0.298-1.141-1.174-0.835-1.934L66.359,45.454z"/>
			<path fill="#54959F" d="M80.328,11.144c0.291-0.762,1.175-1.133,1.946-0.824c0.772,0.3,1.147,1.176,0.831,1.937l-2.426,5.962
				c-0.312,0.764-1.195,1.138-1.945,0.833c-0.77-0.311-1.146-1.176-0.844-1.936L80.328,11.144z"/>
			<path fill="#54959F" d="M28.595,33.673c-0.607,0.559-1.56,0.521-2.126-0.081c-0.562-0.599-0.53-1.544,0.077-2.1l22.567-20.879
				c0.604-0.561,1.559-0.527,2.119,0.072c0.563,0.595,0.521,1.543-0.07,2.097L28.595,33.673z"/>
			<path fill="#54959F" d="M66.179,24.53c0.613,0.558,0.649,1.501,0.087,2.099c-0.562,0.598-1.512,0.629-2.126,0.068L49.108,12.783
				c-0.604-0.557-0.633-1.501-0.07-2.097c0.563-0.599,1.505-0.633,2.12-0.072L66.179,24.53z"/>
			<path fill="#54959F" d="M77.047,22.963l2.797,5.512l5.547,2.777c0.75,0.364,1.032,1.266,0.664,2.004
				c-0.142,0.289-0.383,0.516-0.664,0.656l-5.547,2.776l-2.797,5.518c-0.375,0.731-1.289,1.03-2.023,0.659
				c-0.302-0.15-0.515-0.385-0.668-0.659l-2.795-5.518l-5.565-2.776c-0.737-0.375-1.034-1.266-0.666-2.001
				c0.167-0.296,0.392-0.519,0.666-0.659l5.565-2.777l2.795-5.512c0.372-0.729,1.285-1.023,2.028-0.659
				C76.672,22.45,76.895,22.688,77.047,22.963L77.047,22.963z M77.387,30.256l-1.683-3.316l-1.68,3.316
				c-0.153,0.275-0.366,0.511-0.67,0.656l-3.339,1.67l3.339,1.668c0.276,0.141,0.505,0.364,0.67,0.659l1.68,3.314l1.683-3.314
				c0.129-0.27,0.362-0.506,0.665-0.659l3.335-1.668l-3.335-1.67C77.778,30.772,77.528,30.547,77.387,30.256z"/>
		</g>
	</g>
</g>
</svg>
