<?xml version="1.0" encoding="utf-8"?>
<!-- Generator: Adobe Illustrator 16.0.0, SVG Export Plug-In . SVG Version: 6.00 Build 0)  -->
<!DOCTYPE svg PUBLIC "-//W3C//DTD SVG 1.1//EN" "http://www.w3.org/Graphics/SVG/1.1/DTD/svg11.dtd">
<svg version="1.1" id="Layer_1" xmlns="http://www.w3.org/2000/svg" xmlns:xlink="http://www.w3.org/1999/xlink" x="0px" y="0px"
	 width="100px" height="100px" viewBox="0 0 100 100" enable-background="new 0 0 100 100" xml:space="preserve">
<g>
	<g>
		<path fill="#52959F" d="M97.322,79.251c-4.129,0.445-8.205-0.185-12.266-0.824c-3.165-0.495-16.568-3.702-23.226-8.634
			c-2.005-1.449-9.204-10.607-11.131-12.226c-3.462-2.923-7.066-3.066-11.396-4.396c-1.593-0.487-3.25-0.855-4.902-1.035
			c-1.744-0.173-3.267-0.865-4.788-1.677c-2.535-1.335-5.082-2.717-7.042-4.924c-1.945-2.199-3.734-4.554-5.466-6.945
			c-2.134-2.961-4.1-6.062-6.209-9.047c-1.074-1.532-2.248-2.999-3.869-3.933c-0.765-0.437-1.558-0.679-2.365-1.019
			c-0.164-0.062-0.32-0.292-0.486-0.356c-0.263-0.102-0.8,0.15-1.014,0.411c-0.297,0.363-0.14,0.63-0.329,1.059
			c-0.076,0.176-1.027,0.669-0.799,1.128c0.263-0.04,0.569-0.185,0.655-0.097c0.044,0.1-0.185,0.313-0.368,0.614
			c0.314,0.288,0.551-0.024,0.727-0.106c1.09-0.514,2.067-0.321,2.939,0.474c1.72,1.551,3.148,3.377,4.254,5.455
			c1.662,3.132,3.244,6.313,4.886,9.451c1.721,3.279,4.085,6,6.64,8.562c1.292,1.307,2.652,2.548,3.887,3.931
			c1.095,1.238,1.456,2.904,1.988,4.457c0.504,1.482,1.158,2.894,1.72,4.354c0.131,0.321,0.248,0.701,0.232,1.064
			c-0.173,3.775-0.353,7.568-0.585,11.345c-0.047,0.687-0.306,1.403-0.605,2.051c-0.014,0.033-0.029,0.083-0.051,0.112
			c-0.286,0.091-0.658,0.262-0.9,0.569c-0.383,0.527,0.307,0.149,1.05,0.158c0.082,0.015,0.177,0.03,0.304,0.033
			c0.717,0.049,1.451,0.05,2.159-0.05c0.203-0.05,0.488-0.46,0.516-0.726c0.148-2.04,0.24-4.089,0.368-6.107
			c0.041-0.644,0.137-1.276,0.335-1.917c0.568,2.703,2.208,5.196,1.535,8.19c-0.281,0.105-0.673,0.303-0.895,0.661
			c-0.349,0.509,0.261,0.122,0.986,0.062c0.858,0.021,1.655,0.035,2.445-0.044c0.141-0.014,0.366-0.593,0.325-0.899
			c-0.269-2.175-0.602-4.353-0.891-6.527c-0.146-1.107-0.242-2.221-0.367-3.323c3.509,0.516,6.979,1.002,10.504,1.492
			c-0.346,2.86,0.091,5.97-1.362,8.803c-0.174,0.101-0.331,0.253-0.438,0.438c-0.328,0.495,0.219,0.141,0.908,0.085
			c0.667,0.007,1.353,0.021,2.02-0.036c0.521-0.04,0.709-0.463,0.692-0.989c-0.083-2.586,0.654-5.014,1.16-7.474
			c0.017-0.071,0.065-0.12,0.175-0.345c0.123,0.646,0.217,1.172,0.315,1.683c0.243,1.289,0.449,2.587,0.759,3.842
			c0.258,0.964,0.269,1.848-0.242,2.857c-0.186,0.102-0.368,0.24-0.486,0.462c-0.397,0.591,0.469-0.002,1.311,0.054
			c0.105,0.007,0.192,0,0.245-0.01c0.437,0,0.86,0,1.271-0.001c0.578-0.006,0.774-0.394,0.731-0.929
			c-0.107-1.068-0.187-2.169-0.445-3.214c-0.48-1.988,0.162-3.291,0.241-5.521c9.875,5.977,36.582,11.385,45.301,9.847
			C97.994,79.513,98,79.406,98,79.275C97.771,79.266,97.54,79.235,97.322,79.251z"/>
	</g>
</g>
</svg>
