<?xml version="1.0" encoding="utf-8"?>
<!-- Generator: Adobe Illustrator 16.0.0, SVG Export Plug-In . SVG Version: 6.00 Build 0)  -->
<!DOCTYPE svg PUBLIC "-//W3C//DTD SVG 1.1//EN" "http://www.w3.org/Graphics/SVG/1.1/DTD/svg11.dtd">
<svg version="1.1" id="Layer_1" xmlns="http://www.w3.org/2000/svg" xmlns:xlink="http://www.w3.org/1999/xlink" x="0px" y="0px"
	 width="100px" height="100px" viewBox="0 0 100 100" enable-background="new 0 0 100 100" xml:space="preserve">
<g>
	<g>
		<path fill="#54959F" d="M89.141,45.213c-1.527-1.988-8.263-8.839-10.309-10.911C78.789,16.483,63.187,1.998,44.015,1.998
			c-19.2,0-34.819,14.521-34.819,32.372c0,12.022,7.049,22.919,18.438,28.567c0.005,0.003,4.764,2.235,4.764,8.357v24.709
			c0,1.105,0.899,1.998,2.003,1.998h27.991c1.104,0,1.996-0.893,1.996-1.998V85.216c0.263-4.336,0.861-5.29,3.346-5.345
			c0,0,0,0,0.002,0c0,0,6.782,0.008,6.988,0.008c1.146,0,3.733-0.229,5.786-2.102c1.701-1.556,2.562-3.791,2.562-6.641V58.812
			c0.817-0.969,2.543-2.99,3.757-4.195C91.52,49.921,90.294,46.709,89.141,45.213z M83.997,51.782
			c-1.758,1.762-4.355,4.896-4.466,5.025c-0.293,0.355-0.458,0.812-0.458,1.276v13.053c0,1.671-0.42,2.903-1.248,3.67
			c-1.291,1.202-3.312,1.072-3.317,1.072c-0.059-0.006-6.837-0.004-6.837-0.004c-0.002,0-0.006,0-0.01,0
			c-7.877,0.202-7.271,9.24-7.271,9.283v8.849h-23.99V71.235c0-0.043,0.667-7.926-6.122-11.427
			c-12.095-6.229-17.081-14.797-17.081-25.438c0-15.646,13.823-28.376,30.817-28.376c16.989,0,30.812,12.73,30.812,28.375
			c0,0.252-0.006,0.501-0.008,0.754c-0.018,0.721,0.344,1.368,0.917,1.736c2.7,2.726,8.946,9.118,10.235,10.789
			C86.863,48.816,84.481,51.303,83.997,51.782z"/>
		<g>
			<path fill="#54959F" d="M50.006,24.997H47.36c-0.297-1.711-0.974-3.292-1.937-4.658l1.876-1.876c0.781-0.778,0.781-2.045,0-2.824
				c-0.785-0.782-2.049-0.782-2.833,0l-1.873,1.874c-1.369-0.962-2.953-1.635-4.666-1.936v-2.647c0-1.104-0.892-1.998-2-1.998
				c-1.104,0-1.999,0.894-1.999,1.998v2.647c-1.711,0.301-3.295,0.974-4.664,1.936l-1.875-1.874c-0.781-0.782-2.048-0.782-2.83,0
				c-0.782,0.78-0.782,2.046,0,2.824l1.878,1.876c-0.963,1.366-1.639,2.947-1.937,4.658h-2.648c-1.105,0-2.002,0.894-2.002,1.998
				c0,1.107,0.896,2.001,2.002,2.001h2.648c0.297,1.71,0.971,3.292,1.937,4.656l-1.878,1.876c-0.782,0.78-0.782,2.047,0,2.825
				c0.392,0.392,0.902,0.589,1.417,0.589c0.512,0,1.025-0.197,1.414-0.589l1.875-1.873c1.369,0.961,2.953,1.635,4.664,1.935v2.645
				c0,1.104,0.896,1.998,1.999,1.998c1.107,0,2.001-0.894,2.001-1.998v-2.645c1.711-0.3,3.295-0.974,4.664-1.935l1.875,1.873
				c0.391,0.392,0.901,0.589,1.415,0.589c0.513,0,1.023-0.197,1.416-0.589c0.781-0.778,0.783-2.045,0-2.825l-1.876-1.876
				c0.963-1.364,1.64-2.945,1.937-4.656h2.648c1.103,0,2.002-0.894,2.002-2.001C52.011,25.891,51.111,24.997,50.006,24.997z
				 M35.929,34.592c-4.19,0-7.602-3.405-7.602-7.597c0-4.187,3.411-7.596,7.602-7.596c4.194,0,7.606,3.409,7.606,7.596
				C43.535,31.187,40.124,34.592,35.929,34.592z"/>
			<path fill="#54959F" d="M68.423,39.921h-1.602c-0.232-1.042-0.638-2.051-1.232-2.979l1.135-1.129c0.78-0.782,0.78-2.048,0-2.829
				c-0.781-0.778-2.046-0.778-2.828,0l-1.134,1.131c-0.917-0.585-1.919-1-2.979-1.231v-1.599c0-1.105-0.896-1.999-2-1.999l0,0
				c-1.105,0-2.003,0.894-2.003,1.999v1.599c-1.061,0.231-2.067,0.646-2.979,1.231l-1.131-1.131c-0.781-0.778-2.049-0.778-2.829,0
				c-0.785,0.78-0.785,2.046,0,2.829l1.133,1.129c-0.593,0.928-1.004,1.936-1.232,2.979h-1.603l0,0
				c-1.105,0-2.005,0.893-2.005,1.996c0,1.103,0.899,2.002,2.005,2.002h1.603c0.228,1.039,0.639,2.048,1.23,2.976l-1.131,1.129
				c-0.785,0.781-0.785,2.044,0,2.824c0.391,0.392,0.901,0.591,1.415,0.591c0.511,0,1.023-0.199,1.414-0.59l1.131-1.127
				c0.913,0.584,1.918,1.001,2.979,1.234v1.6c0,1.104,0.897,1.994,2.003,1.994s2-0.892,2-1.995v-1.599
				c1.06-0.233,2.062-0.649,2.98-1.234l1.132,1.127c0.392,0.391,0.9,0.59,1.415,0.59c0.508,0,1.022-0.199,1.413-0.59
				c0.782-0.781,0.782-2.044,0-2.824l-1.135-1.13c0.597-0.927,1-1.937,1.234-2.976h1.6c1.105,0,2.003-0.898,2.003-2.002
				S69.526,39.921,68.423,39.921z M61.503,45.636c-0.998,0.992-2.317,1.538-3.722,1.538c-1.403,0-2.729-0.546-3.719-1.538
				c-2.05-2.051-2.05-5.385,0-7.434c0.991-0.995,2.315-1.54,3.721-1.54c1.402,0,2.722,0.545,3.72,1.54
				C63.555,40.251,63.555,43.585,61.503,45.636z"/>
		</g>
	</g>
</g>
</svg>
