<?xml version="1.0" encoding="utf-8"?>
<!-- Generator: Adobe Illustrator 16.0.0, SVG Export Plug-In . SVG Version: 6.00 Build 0)  -->
<!DOCTYPE svg PUBLIC "-//W3C//DTD SVG 1.1//EN" "http://www.w3.org/Graphics/SVG/1.1/DTD/svg11.dtd">
<svg version="1.1" id="Layer_1" xmlns="http://www.w3.org/2000/svg" xmlns:xlink="http://www.w3.org/1999/xlink" x="0px" y="0px"
	 width="100px" height="100px" viewBox="0 0 100 100" enable-background="new 0 0 100 100" xml:space="preserve">
<g>
	<g>
		<path fill="#54959F" d="M53.962,62.566c-0.536-0.193-1.136-0.059-1.536,0.343L33.504,81.878c-2.099,2.103-4.894,3.258-7.87,3.258
			c-2.977,0-5.77-1.157-7.868-3.258c-4.339-4.351-4.339-11.431,0-15.778l18.919-18.96c0.403-0.402,0.538-1.003,0.346-1.54
			c-0.191-0.538-0.677-0.917-1.242-0.971l-13.21-1.316c-0.441-0.051-0.874,0.112-1.186,0.425L8.423,56.736
			c-4.59,4.601-7.118,10.728-7.118,17.252S3.833,86.64,8.423,91.24c4.589,4.602,10.702,7.134,17.212,7.134
			c6.508,0,12.622-2.532,17.212-7.134l12.972-13.002c0.312-0.311,0.466-0.75,0.423-1.188L54.93,63.81
			C54.874,63.242,54.499,62.758,53.962,62.566z"/>
		<path fill="#54959F" d="M90.187,9.287c-4.588-4.601-10.701-7.134-17.212-7.134c-6.508,0-12.622,2.533-17.212,7.134l-12.97,13.001
			c-0.311,0.311-0.469,0.75-0.425,1.189l1.312,13.241c0.056,0.568,0.434,1.054,0.969,1.244c0.537,0.193,1.134,0.058,1.538-0.346
			L65.104,18.65c2.1-2.103,4.896-3.261,7.87-3.261c2.977,0,5.771,1.16,7.871,3.261c4.34,4.35,4.34,11.427,0,15.777l-18.92,18.963
			c-0.402,0.4-0.536,1.003-0.346,1.538c0.192,0.541,0.677,0.918,1.243,0.97l13.208,1.316c0.048,0.007,0.098,0.01,0.144,0.01
			c0.389,0,0.763-0.152,1.042-0.434l12.97-13C99.678,34.278,99.678,18.799,90.187,9.287z"/>
		<path fill="#54959F" d="M9.983,39.242c0.01,0,0.019,0,0.026,0l15.896-0.277c0.729-0.014,1.338-0.555,1.436-1.279
			c0.096-0.723-0.35-1.408-1.048-1.615l-15.265-4.46c-0.413-0.12-0.857-0.056-1.214,0.182c-0.361,0.233-0.601,0.613-0.657,1.041
			L8.523,37.57c-0.057,0.428,0.074,0.855,0.36,1.178C9.162,39.062,9.564,39.242,9.983,39.242z"/>
		<path fill="#54959F" d="M35.148,27.197c0.184,0.636,0.768,1.062,1.413,1.062c0.065,0,0.131-0.003,0.197-0.015
			c0.72-0.096,1.263-0.705,1.276-1.433l0.276-15.935c0.006-0.43-0.173-0.843-0.495-1.129c-0.32-0.285-0.748-0.416-1.174-0.358
			l-4.727,0.638c-0.427,0.058-0.807,0.298-1.04,0.659c-0.233,0.359-0.298,0.805-0.179,1.216L35.148,27.197z"/>
		<path fill="#54959F" d="M88.603,61.285l-15.898,0.275c-0.728,0.016-1.335,0.557-1.433,1.279c-0.098,0.722,0.348,1.409,1.044,1.617
			l15.267,4.457c0.133,0.041,0.275,0.063,0.409,0.063c0.285,0,0.564-0.083,0.807-0.242c0.356-0.231,0.598-0.611,0.653-1.043
			l0.636-4.734c0.057-0.43-0.072-0.855-0.359-1.178C89.443,61.457,89.011,61.265,88.603,61.285z"/>
		<path fill="#54959F" d="M63.462,73.33c-0.202-0.7-0.882-1.153-1.608-1.047c-0.721,0.097-1.263,0.708-1.279,1.435l-0.275,15.934
			c-0.007,0.429,0.175,0.84,0.495,1.127c0.271,0.241,0.62,0.372,0.979,0.372c0.063,0,0.131-0.003,0.195-0.013l4.725-0.636
			c0.429-0.06,0.808-0.299,1.04-0.657c0.237-0.36,0.301-0.807,0.181-1.215L63.462,73.33z"/>
	</g>
</g>
</svg>
