<?xml version="1.0" encoding="utf-8"?>
<!-- Generator: Adobe Illustrator 16.0.0, SVG Export Plug-In . SVG Version: 6.00 Build 0)  -->
<!DOCTYPE svg PUBLIC "-//W3C//DTD SVG 1.1//EN" "http://www.w3.org/Graphics/SVG/1.1/DTD/svg11.dtd">
<svg version="1.1" id="Layer_1" xmlns="http://www.w3.org/2000/svg" xmlns:xlink="http://www.w3.org/1999/xlink" x="0px" y="0px"
	 width="728.5px" height="1031.812px" viewBox="0 0 728.5 1031.812" enable-background="new 0 0 728.5 1031.812"
	 xml:space="preserve">
<path fill="#FFFFFF" stroke="#FFFFFF" stroke-miterlimit="10" d="M287.356,805.179h73.815
	c-14.162-140.322,81.969-239.275,250.87-190.07c-76.542-38.777-138.812-54.979-219.003-10.826
	C330.432,638.751,298.934,704.681,287.356,805.179"/>
<path fill="#FFFFFF" stroke="#FFFFFF" stroke-miterlimit="10" d="M387.39,805.179h70.38
	c0.041-87.863,49.071-173.799,152.848-168.908C563.566,608.181,383.077,614.24,387.39,805.179"/>
<path fill="#FFFFFF" stroke="#FFFFFF" stroke-miterlimit="10" d="M488.997,805.179h37.75
	c-19.683-98.771,43.853-127.336,92.43-141.123C546.61,664.195,483.662,705.597,488.997,805.179"/>
<path fill="#FFFFFF" stroke="#FFFFFF" stroke-miterlimit="10" d="M441.938,395.565c0.766-10.737,0.575-20.395-2.134-25.094
	c-22.788-39.603-50.586-43.27-72.455-59.785c-9.758-7.368-21.646-22.667-25.342-28.54l-0.248-0.487v0.083l-0.194-0.35
	c0.09,0.837,0.161,1.671,0.235,2.495c-0.146,8.184-1.605,27.356-5.229,39.532c-8.533,28.682-28.106,51.834-25.155,99.235
	c0.345,5.605,2.229,12.443,5.151,19.361c3.064-0.224,6.189,0.948,8.576,3.52c-5.817-23.237-4.965-54.219,5.302-76.64
	c1.688-3.692,11.299-26.626,17.041-41.54c2.471-5.907,3.896-10.272,4.281-12.244c1.522,1.439,7.499,5.896,12.034,7.983
	c12.273,7.534,29.685,17.55,32.767,19.105c19.308,9.818,35.887,32.462,43.837,54.378
	C440.893,396.19,441.407,395.856,441.938,395.565z"/>
<path fill="#FFFFFF" stroke="#FFFFFF" stroke-width="0.5669" stroke-miterlimit="22.9256" d="M441.938,395.565
	c0.766-10.737,0.575-20.395-2.134-25.094c-22.788-39.603-50.586-43.27-72.455-59.785c-9.758-7.368-21.646-22.667-25.342-28.54
	l-0.248-0.487v0.083l-0.194-0.35c0.09,0.837,0.161,1.671,0.235,2.495c-0.146,8.184-1.605,27.356-5.229,39.532
	c-8.533,28.682-28.106,51.834-25.155,99.235c0.345,5.605,2.229,12.443,5.151,19.361c3.064-0.224,6.189,0.948,8.576,3.52
	c-5.817-23.237-4.965-54.219,5.302-76.64c1.688-3.692,11.299-26.626,17.041-41.54c2.471-5.907,3.896-10.272,4.281-12.244
	c1.522,1.439,7.499,5.896,12.034,7.983c12.273,7.534,29.685,17.55,32.767,19.105c19.308,9.818,35.887,32.462,43.837,54.378
	C440.893,396.19,441.407,395.856,441.938,395.565z"/>
<g>
	<defs>
		<filter id="Adobe_OpacityMaskFilter" filterUnits="userSpaceOnUse" x="310.615" y="278.992" width="132.213" height="168.31">
			<feColorMatrix  type="matrix" values="1 0 0 0 0  0 1 0 0 0  0 0 1 0 0  0 0 0 1 0"/>
		</filter>
	</defs>
	<mask maskUnits="userSpaceOnUse" x="310.615" y="278.992" width="132.213" height="168.31" id="SVGID_1_">
		<g filter="url(#Adobe_OpacityMaskFilter)">
			<g>
				<g>
					<defs>
						<rect id="SVGID_2_" x="305.588" y="278.026" width="150.6" height="251.106"/>
					</defs>
					<clipPath id="SVGID_3_">
						<use xlink:href="#SVGID_2_"  overflow="visible"/>
					</clipPath>
					<polygon clip-path="url(#SVGID_3_)" fill="#FFFFFF" points="492.487,425.834 513.438,511.161 316.361,573.027 295.407,487.695 
											"/>
				</g>
				<g>
					<defs>
						<rect id="SVGID_4_" x="305.588" y="278.026" width="150.6" height="251.106"/>
					</defs>
					<clipPath id="SVGID_5_">
						<use xlink:href="#SVGID_4_"  overflow="visible"/>
					</clipPath>
					<polygon clip-path="url(#SVGID_5_)" fill="#010101" points="466.361,319.46 445.407,234.131 248.33,295.992 269.283,381.321 
											"/>
				</g>
				<g>
					<g>
						<defs>
							<rect id="SVGID_7_" x="305.588" y="278.026" width="150.6" height="251.106"/>
						</defs>
						<clipPath id="SVGID_8_">
							<use xlink:href="#SVGID_7_"  overflow="visible"/>
						</clipPath>
					</g>
					<g>
						<defs>
							<rect id="SVGID_9_" x="305.588" y="278.026" width="150.6" height="251.106"/>
						</defs>
						<defs>
							<polygon id="SVGID_10_" points="495.753,439.137 463.099,306.158 266.021,368.021 298.674,500.998 							"/>
						</defs>
						<clipPath id="SVGID_12_">
							<use xlink:href="#SVGID_9_"  overflow="visible"/>
						</clipPath>
						<clipPath id="SVGID_13_" clip-path="url(#SVGID_12_)">
							<use xlink:href="#SVGID_10_"  overflow="visible"/>
						</clipPath>
						<g transform="matrix(1 0 -1.490116e-08 1 0 -3.051758e-05)">
						</g>
					</g>
				</g>
			</g>
		</g>
	</mask>
	<path mask="url(#SVGID_1_)" fill="#FFFFFF" stroke="#FFFFFF" stroke-miterlimit="10" d="M441.938,395.565
		c0.766-10.737,0.575-20.395-2.134-25.094c-22.788-39.603-50.586-43.27-72.455-59.785c-9.758-7.368-21.646-22.667-25.342-28.54
		l-0.248-0.487v0.083l-0.194-0.35c0.09,0.837,0.161,1.671,0.235,2.495c-0.146,8.184-1.605,27.356-5.229,39.532
		c-8.533,28.682-28.106,51.834-25.155,99.235c0.345,5.605,2.229,12.443,5.151,19.361c3.064-0.224,6.189,0.948,8.576,3.52
		c-5.817-23.237-4.965-54.219,5.302-76.64c1.688-3.692,11.299-26.626,17.041-41.54c2.471-5.907,3.896-10.272,4.281-12.244
		c1.522,1.439,7.499,5.896,12.034,7.983c12.273,7.534,29.685,17.55,32.767,19.105c19.308,9.818,35.887,32.462,43.837,54.378
		C440.893,396.19,441.407,395.856,441.938,395.565z"/>
	<defs>
		<filter id="Adobe_OpacityMaskFilter_1_" filterUnits="userSpaceOnUse" x="310.832" y="280.031" width="131.78" height="166.505">
			<feColorMatrix  type="matrix" values="1 0 0 0 0  0 1 0 0 0  0 0 1 0 0  0 0 0 1 0"/>
		</filter>
	</defs>
	<mask maskUnits="userSpaceOnUse" x="310.832" y="280.031" width="131.78" height="166.505" id="SVGID_6_">
		<g filter="url(#Adobe_OpacityMaskFilter_1_)">
			<g>
				<g>
					<defs>
						<rect id="SVGID_14_" x="305.588" y="278.026" width="150.6" height="251.106"/>
					</defs>
					<clipPath id="SVGID_15_">
						<use xlink:href="#SVGID_14_"  overflow="visible"/>
					</clipPath>
					<polygon clip-path="url(#SVGID_15_)" fill="#FFFFFF" points="492.487,425.834 513.438,511.161 316.361,573.027 
						295.407,487.695 					"/>
				</g>
				<g>
					<defs>
						<rect id="SVGID_17_" x="305.588" y="278.026" width="150.6" height="251.106"/>
					</defs>
					<clipPath id="SVGID_18_">
						<use xlink:href="#SVGID_17_"  overflow="visible"/>
					</clipPath>
					<polygon clip-path="url(#SVGID_18_)" fill="#010101" points="466.361,319.46 445.407,234.131 248.33,295.992 269.283,381.321 
											"/>
				</g>
				<g>
					<g>
						<defs>
							<rect id="SVGID_19_" x="305.588" y="278.026" width="150.6" height="251.106"/>
						</defs>
						<clipPath id="SVGID_20_">
							<use xlink:href="#SVGID_19_"  overflow="visible"/>
						</clipPath>
					</g>
					<g>
						<defs>
							<rect id="SVGID_22_" x="305.588" y="278.026" width="150.6" height="251.106"/>
						</defs>
						<defs>
							<polygon id="SVGID_23_" points="495.753,439.137 463.099,306.158 266.021,368.021 298.674,500.998 							"/>
						</defs>
						<clipPath id="SVGID_24_">
							<use xlink:href="#SVGID_22_"  overflow="visible"/>
						</clipPath>
						<clipPath id="SVGID_25_" clip-path="url(#SVGID_24_)">
							<use xlink:href="#SVGID_23_"  overflow="visible"/>
						</clipPath>
						<g transform="matrix(1 0 -1.490116e-08 1 0 -3.051758e-05)">
						</g>
					</g>
				</g>
			</g>
		</g>
	</mask>
	<path mask="url(#SVGID_6_)" fill="#FFFFFF" stroke="#FFFFFF" stroke-width="0.5669" stroke-miterlimit="22.9256" d="
		M441.938,395.565c0.766-10.737,0.575-20.395-2.134-25.094c-22.788-39.603-50.586-43.27-72.455-59.785
		c-9.758-7.368-21.646-22.667-25.342-28.54l-0.248-0.487v0.083l-0.194-0.35c0.09,0.837,0.161,1.671,0.235,2.495
		c-0.146,8.184-1.605,27.356-5.229,39.532c-8.533,28.682-28.106,51.834-25.155,99.235c0.345,5.605,2.229,12.443,5.151,19.361
		c3.064-0.224,6.189,0.948,8.576,3.52c-5.817-23.237-4.965-54.219,5.302-76.64c1.688-3.692,11.299-26.626,17.041-41.54
		c2.471-5.907,3.896-10.272,4.281-12.244c1.522,1.439,7.499,5.896,12.034,7.983c12.273,7.534,29.685,17.55,32.767,19.105
		c19.308,9.818,35.887,32.462,43.837,54.378C440.893,396.19,441.407,395.856,441.938,395.565z"/>
</g>
<path fill="#FFFFFF" stroke="#FFFFFF" stroke-miterlimit="10" d="M410.464,430.082c5.699-8.345,4.252-29.086-0.574-37.453
	c-12.37-21.484-27.448-23.48-39.313-32.442c-5.298-4.004-11.738-12.302-13.741-15.482c-0.051-0.093-0.099-0.173-0.146-0.267
	l0.01,0.035l-0.108-0.188c0.042,0.465,0.086,0.917,0.128,1.36c-0.076,4.444-0.872,14.843-2.838,21.447
	c-4.629,15.565-15.255,28.133-13.656,53.843c0.626,10.084,10.424,27.417,19.275,29.805c-13.02-3.501-18.507-38.08-8.941-58.972
	c0.913-1.995,6.126-14.449,9.243-22.538c1.339-3.203,2.113-5.571,2.319-6.639c0.83,0.779,4.083,3.19,6.523,4.331
	c6.676,4.082,16.116,9.515,17.782,10.363C404.935,386.686,418.832,417.823,410.464,430.082z"/>
<path fill="#FFFFFF" stroke="#FFFFFF" stroke-width="0.5669" stroke-miterlimit="22.9256" d="M410.464,430.082
	c5.699-8.345,4.252-29.086-0.574-37.453c-12.37-21.484-27.448-23.48-39.313-32.442c-5.298-4.004-11.738-12.302-13.741-15.482
	c-0.051-0.093-0.099-0.173-0.146-0.267l0.01,0.035l-0.108-0.188c0.042,0.465,0.086,0.917,0.128,1.36
	c-0.076,4.444-0.872,14.843-2.838,21.447c-4.629,15.565-15.255,28.133-13.656,53.843c0.626,10.084,10.424,27.417,19.275,29.805
	c-13.02-3.501-18.507-38.08-8.941-58.972c0.913-1.995,6.126-14.449,9.243-22.538c1.339-3.203,2.113-5.571,2.319-6.639
	c0.83,0.779,4.083,3.19,6.523,4.331c6.676,4.082,16.116,9.515,17.782,10.363C404.935,386.686,418.832,417.823,410.464,430.082z"/>
<g>
	<defs>
		<filter id="Adobe_OpacityMaskFilter_2_" filterUnits="userSpaceOnUse" x="339.562" y="342.066" width="75.098" height="109.156">
			<feColorMatrix  type="matrix" values="1 0 0 0 0  0 1 0 0 0  0 0 1 0 0  0 0 0 1 0"/>
		</filter>
	</defs>
	<mask maskUnits="userSpaceOnUse" x="339.562" y="342.066" width="75.098" height="109.156" id="SVGID_11_">
		<g filter="url(#Adobe_OpacityMaskFilter_2_)">
			<g>
				<g>
					<defs>
						<rect id="SVGID_27_" x="334.057" y="337.589" width="93.187" height="131.964"/>
					</defs>
					<clipPath id="SVGID_28_">
						<use xlink:href="#SVGID_27_"  overflow="visible"/>
					</clipPath>
					<polygon clip-path="url(#SVGID_28_)" fill="#FFFFFF" points="452.188,439.158 457.319,460.108 340.722,496.711 
						335.579,475.763 					"/>
				</g>
				<g>
					<defs>
						<rect id="SVGID_29_" x="334.057" y="337.589" width="93.187" height="131.964"/>
					</defs>
					<clipPath id="SVGID_30_">
						<use xlink:href="#SVGID_29_"  overflow="visible"/>
					</clipPath>
					<polygon clip-path="url(#SVGID_30_)" fill="#010101" points="425.724,331.392 420.566,310.443 303.968,347.05 309.111,367.998 
											"/>
				</g>
				<g>
					<g>
						<defs>
							<rect id="SVGID_32_" x="334.057" y="337.589" width="93.187" height="131.964"/>
						</defs>
						<clipPath id="SVGID_33_">
							<use xlink:href="#SVGID_32_"  overflow="visible"/>
						</clipPath>
					</g>
					<g>
						<defs>
							<rect id="SVGID_34_" x="334.057" y="337.589" width="93.187" height="131.964"/>
						</defs>
						<defs>
							<polygon id="SVGID_35_" points="455.491,452.631 422.405,317.917 305.806,354.524 338.883,489.241 							"/>
						</defs>
						<clipPath id="SVGID_37_">
							<use xlink:href="#SVGID_34_"  overflow="visible"/>
						</clipPath>
						<clipPath id="SVGID_38_" clip-path="url(#SVGID_37_)">
							<use xlink:href="#SVGID_35_"  overflow="visible"/>
						</clipPath>
						<g transform="matrix(1 2.980232e-08 0 1 0 3.051758e-05)">
						</g>
					</g>
				</g>
			</g>
		</g>
	</mask>
	<path mask="url(#SVGID_11_)" fill="#FFFFFF" stroke="#FFFFFF" stroke-miterlimit="10" d="M410.464,430.082
		c5.699-8.345,4.252-29.086-0.574-37.453c-12.37-21.484-27.448-23.48-39.313-32.442c-5.298-4.004-11.738-12.302-13.741-15.482
		c-0.051-0.093-0.099-0.173-0.146-0.267l0.01,0.035l-0.108-0.188c0.042,0.465,0.086,0.917,0.128,1.36
		c-0.076,4.444-0.872,14.843-2.838,21.447c-4.629,15.565-15.255,28.133-13.656,53.843c0.626,10.084,10.424,27.417,19.275,29.805
		c-13.02-3.501-18.507-38.08-8.941-58.972c0.913-1.995,6.126-14.449,9.243-22.538c1.339-3.203,2.113-5.571,2.319-6.639
		c0.83,0.779,4.083,3.19,6.523,4.331c6.676,4.082,16.116,9.515,17.782,10.363C404.935,386.686,418.832,417.823,410.464,430.082z"/>
	<defs>
		<filter id="Adobe_OpacityMaskFilter_3_" filterUnits="userSpaceOnUse" x="339.779" y="341.657" width="74.665" height="109.356">
			<feColorMatrix  type="matrix" values="1 0 0 0 0  0 1 0 0 0  0 0 1 0 0  0 0 0 1 0"/>
		</filter>
	</defs>
	<mask maskUnits="userSpaceOnUse" x="339.779" y="341.657" width="74.665" height="109.356" id="SVGID_16_">
		<g filter="url(#Adobe_OpacityMaskFilter_3_)">
			<g>
				<g>
					<defs>
						<rect id="SVGID_39_" x="334.057" y="337.589" width="93.187" height="131.964"/>
					</defs>
					<clipPath id="SVGID_40_">
						<use xlink:href="#SVGID_39_"  overflow="visible"/>
					</clipPath>
					<polygon clip-path="url(#SVGID_40_)" fill="#FFFFFF" points="452.188,439.158 457.319,460.108 340.722,496.711 
						335.579,475.763 					"/>
				</g>
				<g>
					<defs>
						<rect id="SVGID_42_" x="334.057" y="337.589" width="93.187" height="131.964"/>
					</defs>
					<clipPath id="SVGID_43_">
						<use xlink:href="#SVGID_42_"  overflow="visible"/>
					</clipPath>
					<polygon clip-path="url(#SVGID_43_)" fill="#010101" points="425.724,331.392 420.566,310.443 303.968,347.05 309.111,367.998 
											"/>
				</g>
				<g>
					<g>
						<defs>
							<rect id="SVGID_44_" x="334.057" y="337.589" width="93.187" height="131.964"/>
						</defs>
						<clipPath id="SVGID_45_">
							<use xlink:href="#SVGID_44_"  overflow="visible"/>
						</clipPath>
					</g>
					<g>
						<defs>
							<rect id="SVGID_47_" x="334.057" y="337.589" width="93.187" height="131.964"/>
						</defs>
						<defs>
							<polygon id="SVGID_48_" points="455.491,452.631 422.405,317.917 305.806,354.524 338.883,489.241 							"/>
						</defs>
						<clipPath id="SVGID_49_">
							<use xlink:href="#SVGID_47_"  overflow="visible"/>
						</clipPath>
						<clipPath id="SVGID_50_" clip-path="url(#SVGID_49_)">
							<use xlink:href="#SVGID_48_"  overflow="visible"/>
						</clipPath>
						<g transform="matrix(1 2.980232e-08 0 1 0 3.051758e-05)">
						</g>
					</g>
				</g>
			</g>
		</g>
	</mask>
	<path mask="url(#SVGID_16_)" fill="#FFFFFF" stroke="#FFFFFF" stroke-width="0.5669" stroke-miterlimit="22.9256" d="
		M410.464,430.082c5.699-8.345,4.252-29.086-0.574-37.453c-12.37-21.484-27.448-23.48-39.313-32.442
		c-5.298-4.004-11.738-12.302-13.741-15.482c-0.051-0.093-0.099-0.173-0.146-0.267l0.01,0.035l-0.108-0.188
		c0.042,0.465,0.086,0.917,0.128,1.36c-0.076,4.444-0.872,14.843-2.838,21.447c-4.629,15.565-15.255,28.133-13.656,53.843
		c0.626,10.084,10.424,27.417,19.275,29.805c-13.02-3.501-18.507-38.08-8.941-58.972c0.913-1.995,6.126-14.449,9.243-22.538
		c1.339-3.203,2.113-5.571,2.319-6.639c0.83,0.779,4.083,3.19,6.523,4.331c6.676,4.082,16.116,9.515,17.782,10.363
		C404.935,386.686,418.832,417.823,410.464,430.082z"/>
</g>
<path fill="#FFFFFF" stroke="#FFFFFF" stroke-width="0.5669" stroke-miterlimit="22.9256" d="M180.812,598.628
	c-11.865-14.17-25.964-30.133-34.86-31.117c-48.105-5.322-71.12,20.396-100.116,30.793c-12.943,4.643-33.751,5.721-41.107,5.256
	l-0.569-0.09l0.056,0.047l-0.411-0.047c0.735,0.521,1.457,1.043,2.162,1.566c6.437,6.041,20.689,21.404,27.805,33.9
	c16.736,29.424,21.096,66.156,61.089,97.389c7.31,5.715,19.604,9.775,32.187,11.107c0.083-2.17,0.653-4.309,1.648-6.162
	c-24.302-9.449-51.66-34.322-63.025-63.221c-1.725-4.396-13.108-30.775-20.875-47.422c-2.929-6.787-5.388-11.385-6.686-13.207
	c2.244-0.521,10.125-3.416,15.075-6.523c14.895-7.104,35.462-17.643,38.931-19.65c26.203-15.184,64.372-12.938,88.258,0.15
	c-0.216,2.102-0.103,5.062,0.43,6.998L180.812,598.628z"/>
<path fill="#FFFFFF" stroke="#FFFFFF" stroke-width="0.5669" stroke-miterlimit="22.9256" d="M180.812,598.628
	c-11.865-14.17-25.964-30.133-34.86-31.117c-48.105-5.322-71.12,20.396-100.116,30.793c-12.943,4.643-33.751,5.721-41.107,5.256
	l-0.569-0.09l0.056,0.047l-0.411-0.047c0.735,0.521,1.457,1.043,2.162,1.566c6.437,6.041,20.689,21.404,27.805,33.9
	c16.736,29.424,21.096,66.156,61.089,97.389c7.31,5.715,19.604,9.775,32.187,11.107c0.083-2.17,0.653-4.309,1.648-6.162
	c-24.302-9.449-51.66-34.322-63.025-63.221c-1.725-4.396-13.108-30.775-20.875-47.422c-2.929-6.787-5.388-11.385-6.686-13.207
	c2.244-0.521,10.125-3.416,15.075-6.523c14.895-7.104,35.462-17.643,38.931-19.65c26.203-15.184,64.372-12.938,88.258,0.15
	c-0.216,2.102-0.103,5.062,0.43,6.998L180.812,598.628z"/>
<path fill="#FFFFFF" stroke="#FFFFFF" stroke-width="0.5669" stroke-miterlimit="22.9256" d="M179.808,634.423
	c-2.616-12.199-20.767-26.104-31.235-27.275c-26.882-2.969-39.739,11.4-55.944,17.215c-7.233,2.588-18.857,3.191-22.976,2.938
	c-0.103-0.027-0.209-0.039-0.317-0.061l0.036,0.033l-0.237-0.021c0.415,0.275,0.824,0.58,1.211,0.875
	c3.599,3.371,11.565,11.949,15.539,18.939c9.356,16.441,11.79,36.979,34.137,54.422c8.756,6.848,30.304,9.447,38.862,1.9
	c-12.577,11.1-45.108-8.865-55.174-34.471c-0.964-2.447-7.323-17.199-11.659-26.5c-1.644-3.795-3.015-6.355-3.739-7.381
	c1.254-0.289,5.658-1.9,8.424-3.641c8.319-3.971,19.812-9.855,21.752-10.984C140,607.945,175.953,616.492,179.808,634.423z"/>
<path fill="#FFFFFF" stroke="#FFFFFF" stroke-width="0.5669" stroke-miterlimit="22.9256" d="M179.808,634.423
	c-2.616-12.199-20.767-26.104-31.235-27.275c-26.882-2.969-39.739,11.4-55.944,17.215c-7.233,2.588-18.857,3.191-22.976,2.938
	c-0.103-0.027-0.209-0.039-0.317-0.061l0.036,0.033l-0.237-0.021c0.415,0.275,0.824,0.58,1.211,0.875
	c3.599,3.371,11.565,11.949,15.539,18.939c9.356,16.441,11.79,36.979,34.137,54.422c8.756,6.848,30.304,9.447,38.862,1.9
	c-12.577,11.1-45.108-8.865-55.174-34.471c-0.964-2.447-7.323-17.199-11.659-26.5c-1.644-3.795-3.015-6.355-3.739-7.381
	c1.254-0.289,5.658-1.9,8.424-3.641c8.319-3.971,19.812-9.855,21.752-10.984C140,607.945,175.953,616.492,179.808,634.423z"/>
<g>
	<defs>
		<filter id="Adobe_OpacityMaskFilter_4_" filterUnits="userSpaceOnUse" x="2.742" y="566.511" width="178.381" height="181.235">
			<feColorMatrix  type="matrix" values="1 0 0 0 0  0 1 0 0 0  0 0 1 0 0  0 0 0 1 0"/>
		</filter>
	</defs>
	<mask maskUnits="userSpaceOnUse" x="2.742" y="566.511" width="178.381" height="181.235" id="SVGID_21_">
		<g filter="url(#Adobe_OpacityMaskFilter_4_)">
			<g>
				<g>
					<defs>
						<rect id="SVGID_52_" x="-7.004" y="549.767" width="301.75" height="201.045"/>
					</defs>
					<clipPath id="SVGID_53_">
						<use xlink:href="#SVGID_52_"  overflow="visible"/>
					</clipPath>
					<polygon clip-path="url(#SVGID_53_)" fill="#FFFFFF" points="237.492,523.396 356.876,578.388 251.789,870.011 
						132.412,815.017 					"/>
				</g>
				<g>
					<defs>
						<rect id="SVGID_54_" x="-7.004" y="549.767" width="301.75" height="201.045"/>
					</defs>
					<clipPath id="SVGID_55_">
						<use xlink:href="#SVGID_54_"  overflow="visible"/>
					</clipPath>
					<polygon clip-path="url(#SVGID_55_)" fill="#010101" points="155.331,485.558 35.946,430.567 -69.134,722.193 50.252,777.181 
											"/>
				</g>
				<g>
					<g>
						<defs>
							<rect id="SVGID_57_" x="-7.004" y="549.767" width="301.75" height="201.045"/>
						</defs>
						<clipPath id="SVGID_58_">
							<use xlink:href="#SVGID_57_"  overflow="visible"/>
						</clipPath>
					</g>
					<g>
						<defs>
							<rect id="SVGID_59_" x="-7.004" y="549.767" width="301.75" height="201.045"/>
						</defs>
						<defs>
							<polygon id="SVGID_60_" points="247.763,528.13 145.061,480.825 39.982,772.451 142.685,819.755 							"/>
						</defs>
						<clipPath id="SVGID_62_">
							<use xlink:href="#SVGID_59_"  overflow="visible"/>
						</clipPath>
						<clipPath id="SVGID_63_" clip-path="url(#SVGID_62_)">
							<use xlink:href="#SVGID_60_"  overflow="visible"/>
						</clipPath>
						<g transform="matrix(1 -2.980232e-08 0 1 1.525879e-05 0)">
						</g>
					</g>
				</g>
			</g>
		</g>
	</mask>
	<path mask="url(#SVGID_21_)" fill="#FFFFFF" stroke="#FFFFFF" stroke-width="0.5669" stroke-miterlimit="22.9256" d="
		M180.812,598.628c-11.865-14.17-25.964-30.133-34.86-31.117c-48.105-5.322-71.12,20.396-100.116,30.793
		c-12.943,4.643-33.751,5.721-41.107,5.256l-0.569-0.09l0.056,0.047l-0.411-0.047c0.735,0.521,1.457,1.043,2.162,1.566
		c6.437,6.041,20.689,21.404,27.805,33.9c16.736,29.424,21.096,66.156,61.089,97.389c7.31,5.715,19.604,9.775,32.187,11.107
		c0.083-2.17,0.653-4.309,1.648-6.162c-24.302-9.449-51.66-34.322-63.025-63.221c-1.725-4.396-13.108-30.775-20.875-47.422
		c-2.929-6.787-5.388-11.385-6.686-13.207c2.244-0.521,10.125-3.416,15.075-6.523c14.895-7.104,35.462-17.643,38.931-19.65
		c26.203-15.184,64.372-12.938,88.258,0.15c-0.216,2.102-0.103,5.062,0.43,6.998L180.812,598.628z"/>
	<defs>
		<filter id="Adobe_OpacityMaskFilter_5_" filterUnits="userSpaceOnUse" x="2.742" y="566.511" width="178.381" height="181.235">
			<feColorMatrix  type="matrix" values="1 0 0 0 0  0 1 0 0 0  0 0 1 0 0  0 0 0 1 0"/>
		</filter>
	</defs>
	<mask maskUnits="userSpaceOnUse" x="2.742" y="566.511" width="178.381" height="181.235" id="SVGID_26_">
		<g filter="url(#Adobe_OpacityMaskFilter_5_)">
			<g>
				<g>
					<defs>
						<rect id="SVGID_64_" x="-7.004" y="549.767" width="301.75" height="201.045"/>
					</defs>
					<clipPath id="SVGID_65_">
						<use xlink:href="#SVGID_64_"  overflow="visible"/>
					</clipPath>
					<polygon clip-path="url(#SVGID_65_)" fill="#FFFFFF" points="237.492,523.396 356.876,578.388 251.789,870.011 
						132.412,815.017 					"/>
				</g>
				<g>
					<defs>
						<rect id="SVGID_67_" x="-7.004" y="549.767" width="301.75" height="201.045"/>
					</defs>
					<clipPath id="SVGID_68_">
						<use xlink:href="#SVGID_67_"  overflow="visible"/>
					</clipPath>
					<polygon clip-path="url(#SVGID_68_)" fill="#010101" points="155.331,485.558 35.946,430.567 -69.134,722.193 50.252,777.181 
											"/>
				</g>
				<g>
					<g>
						<defs>
							<rect id="SVGID_69_" x="-7.004" y="549.767" width="301.75" height="201.045"/>
						</defs>
						<clipPath id="SVGID_70_">
							<use xlink:href="#SVGID_69_"  overflow="visible"/>
						</clipPath>
					</g>
					<g>
						<defs>
							<rect id="SVGID_72_" x="-7.004" y="549.767" width="301.75" height="201.045"/>
						</defs>
						<defs>
							<polygon id="SVGID_73_" points="247.763,528.13 145.061,480.825 39.982,772.451 142.685,819.755 							"/>
						</defs>
						<clipPath id="SVGID_74_">
							<use xlink:href="#SVGID_72_"  overflow="visible"/>
						</clipPath>
						<clipPath id="SVGID_75_" clip-path="url(#SVGID_74_)">
							<use xlink:href="#SVGID_73_"  overflow="visible"/>
						</clipPath>
						<g transform="matrix(1 -2.980232e-08 0 1 1.525879e-05 0)">
						</g>
					</g>
				</g>
			</g>
		</g>
	</mask>
	<path mask="url(#SVGID_26_)" fill="#FFFFFF" stroke="#FFFFFF" stroke-width="0.5669" stroke-miterlimit="22.9256" d="
		M180.812,598.628c-11.865-14.17-25.964-30.133-34.86-31.117c-48.105-5.322-71.12,20.396-100.116,30.793
		c-12.943,4.643-33.751,5.721-41.107,5.256l-0.569-0.09l0.056,0.047l-0.411-0.047c0.735,0.521,1.457,1.043,2.162,1.566
		c6.437,6.041,20.689,21.404,27.805,33.9c16.736,29.424,21.096,66.156,61.089,97.389c7.31,5.715,19.604,9.775,32.187,11.107
		c0.083-2.17,0.653-4.309,1.648-6.162c-24.302-9.449-51.66-34.322-63.025-63.221c-1.725-4.396-13.108-30.775-20.875-47.422
		c-2.929-6.787-5.388-11.385-6.686-13.207c2.244-0.521,10.125-3.416,15.075-6.523c14.895-7.104,35.462-17.643,38.931-19.65
		c26.203-15.184,64.372-12.938,88.258,0.15c-0.216,2.102-0.103,5.062,0.43,6.998L180.812,598.628z"/>
</g>
<g>
	<defs>
		<filter id="Adobe_OpacityMaskFilter_6_" filterUnits="userSpaceOnUse" x="68.044" y="606.465" width="112.041" height="101.783">
			<feColorMatrix  type="matrix" values="1 0 0 0 0  0 1 0 0 0  0 0 1 0 0  0 0 0 1 0"/>
		</filter>
	</defs>
	<mask maskUnits="userSpaceOnUse" x="68.044" y="606.465" width="112.041" height="101.783" id="SVGID_31_">
		<g filter="url(#Adobe_OpacityMaskFilter_6_)">
			<g>
				<g>
					<defs>
						<rect id="SVGID_77_" x="59.072" y="589.24" width="170.34" height="122.1"/>
					</defs>
					<clipPath id="SVGID_78_">
						<use xlink:href="#SVGID_77_"  overflow="visible"/>
					</clipPath>
					<polygon clip-path="url(#SVGID_78_)" fill="#FFFFFF" points="216.411,583.25 267.143,606.615 205.164,778.632 154.426,755.255 
											"/>
				</g>
				<g>
					<defs>
						<rect id="SVGID_79_" x="59.072" y="589.24" width="170.34" height="122.1"/>
					</defs>
					<clipPath id="SVGID_80_">
						<use xlink:href="#SVGID_79_"  overflow="visible"/>
					</clipPath>
					<polygon clip-path="url(#SVGID_80_)" fill="#010101" points="134.05,545.324 83.317,521.947 21.339,693.966 72.073,717.332 
											"/>
				</g>
				<g>
					<g>
						<defs>
							<rect id="SVGID_82_" x="59.072" y="589.24" width="170.34" height="122.1"/>
						</defs>
						<clipPath id="SVGID_83_">
							<use xlink:href="#SVGID_82_"  overflow="visible"/>
						</clipPath>
					</g>
					<g>
						<defs>
							<rect id="SVGID_84_" x="59.072" y="589.24" width="170.34" height="122.1"/>
						</defs>
						<defs>
							<polygon id="SVGID_85_" points="226.707,587.998 123.76,540.576 61.774,712.582 164.723,760.005 							"/>
						</defs>
						<clipPath id="SVGID_87_">
							<use xlink:href="#SVGID_84_"  overflow="visible"/>
						</clipPath>
						<clipPath id="SVGID_88_" clip-path="url(#SVGID_87_)">
							<use xlink:href="#SVGID_85_"  overflow="visible"/>
						</clipPath>
						<g transform="matrix(1 0 0 1 -1.525879e-05 -6.103516e-05)">
						</g>
					</g>
				</g>
			</g>
		</g>
	</mask>
	<path mask="url(#SVGID_31_)" fill="#FFFFFF" stroke="#FFFFFF" stroke-width="0.5669" stroke-miterlimit="22.9256" d="
		M179.808,634.423c-2.616-12.199-20.767-26.104-31.235-27.275c-26.882-2.969-39.739,11.4-55.944,17.215
		c-7.233,2.588-18.857,3.191-22.976,2.938c-0.103-0.027-0.209-0.039-0.317-0.061l0.036,0.033l-0.237-0.021
		c0.415,0.275,0.824,0.58,1.211,0.875c3.599,3.371,11.565,11.949,15.539,18.939c9.356,16.441,11.79,36.979,34.137,54.422
		c8.756,6.848,30.304,9.447,38.862,1.9c-12.577,11.1-45.108-8.865-55.174-34.471c-0.964-2.447-7.323-17.199-11.659-26.5
		c-1.644-3.795-3.015-6.355-3.739-7.381c1.254-0.289,5.658-1.9,8.424-3.641c8.319-3.971,19.812-9.855,21.752-10.984
		C140,607.945,175.953,616.492,179.808,634.423z"/>
	<defs>
		<filter id="Adobe_OpacityMaskFilter_7_" filterUnits="userSpaceOnUse" x="68.044" y="606.465" width="112.041" height="101.783">
			<feColorMatrix  type="matrix" values="1 0 0 0 0  0 1 0 0 0  0 0 1 0 0  0 0 0 1 0"/>
		</filter>
	</defs>
	<mask maskUnits="userSpaceOnUse" x="68.044" y="606.465" width="112.041" height="101.783" id="SVGID_36_">
		<g filter="url(#Adobe_OpacityMaskFilter_7_)">
			<g>
				<g>
					<defs>
						<rect id="SVGID_89_" x="59.072" y="589.24" width="170.34" height="122.1"/>
					</defs>
					<clipPath id="SVGID_90_">
						<use xlink:href="#SVGID_89_"  overflow="visible"/>
					</clipPath>
					<polygon clip-path="url(#SVGID_90_)" fill="#FFFFFF" points="216.411,583.25 267.143,606.615 205.164,778.632 154.426,755.255 
											"/>
				</g>
				<g>
					<defs>
						<rect id="SVGID_92_" x="59.072" y="589.24" width="170.34" height="122.1"/>
					</defs>
					<clipPath id="SVGID_93_">
						<use xlink:href="#SVGID_92_"  overflow="visible"/>
					</clipPath>
					<polygon clip-path="url(#SVGID_93_)" fill="#010101" points="134.05,545.324 83.317,521.947 21.339,693.966 72.073,717.332 
											"/>
				</g>
				<g>
					<g>
						<defs>
							<rect id="SVGID_94_" x="59.072" y="589.24" width="170.34" height="122.1"/>
						</defs>
						<clipPath id="SVGID_95_">
							<use xlink:href="#SVGID_94_"  overflow="visible"/>
						</clipPath>
					</g>
					<g>
						<defs>
							<rect id="SVGID_97_" x="59.072" y="589.24" width="170.34" height="122.1"/>
						</defs>
						<defs>
							<polygon id="SVGID_98_" points="226.707,587.998 123.76,540.576 61.774,712.582 164.723,760.005 							"/>
						</defs>
						<clipPath id="SVGID_99_">
							<use xlink:href="#SVGID_97_"  overflow="visible"/>
						</clipPath>
						<clipPath id="SVGID_100_" clip-path="url(#SVGID_99_)">
							<use xlink:href="#SVGID_98_"  overflow="visible"/>
						</clipPath>
						<g transform="matrix(1 0 0 1 -1.525879e-05 -6.103516e-05)">
						</g>
					</g>
				</g>
			</g>
		</g>
	</mask>
	<path mask="url(#SVGID_36_)" fill="#FFFFFF" stroke="#FFFFFF" stroke-width="0.5669" stroke-miterlimit="22.9256" d="
		M179.808,634.423c-2.616-12.199-20.767-26.104-31.235-27.275c-26.882-2.969-39.739,11.4-55.944,17.215
		c-7.233,2.588-18.857,3.191-22.976,2.938c-0.103-0.027-0.209-0.039-0.317-0.061l0.036,0.033l-0.237-0.021
		c0.415,0.275,0.824,0.58,1.211,0.875c3.599,3.371,11.565,11.949,15.539,18.939c9.356,16.441,11.79,36.979,34.137,54.422
		c8.756,6.848,30.304,9.447,38.862,1.9c-12.577,11.1-45.108-8.865-55.174-34.471c-0.964-2.447-7.323-17.199-11.659-26.5
		c-1.644-3.795-3.015-6.355-3.739-7.381c1.254-0.289,5.658-1.9,8.424-3.641c8.319-3.971,19.812-9.855,21.752-10.984
		C140,607.945,175.953,616.492,179.808,634.423z"/>
</g>
<path fill="#FFFFFF" stroke="#FFFFFF" stroke-width="0.5669" stroke-miterlimit="22.9256" d="M394.074,578.623
	c5.389-25.336-16.855-68.516-35.501-80.541c-47.873-30.885-84.133-16.015-119.421-20.37c-15.749-1.923-38.06-11.729-45.546-16.095
	c-0.188-0.141-0.377-0.256-0.561-0.396l0.042,0.082l-0.409-0.256c0.528,0.916,1.037,1.844,1.527,2.775
	c3.88,9.721,11.563,33.311,13.101,50.152c3.638,39.658-9.161,80.439,17.969,134.216c10.634,21.076,48.827,46.227,71.236,40.129
	c-32.946,8.959-77.048-59.07-74.268-116.572c0.264-5.512,0.81-39.158,0.542-60.689c0.133-8.649-0.264-14.773-0.764-17.363
	c2.597,0.64,12.214,1.753,18.875,1.092c18.953,0.396,45.479,0.149,50.061-0.138C341.82,491.516,402.007,541.375,394.074,578.623z"/>
<path fill="#FFFFFF" stroke="#FFFFFF" stroke-width="0.5669" stroke-miterlimit="22.9256" d="M394.074,578.623
	c5.389-25.336-16.855-68.516-35.501-80.541c-47.873-30.885-84.133-16.015-119.421-20.37c-15.749-1.923-38.06-11.729-45.546-16.095
	c-0.188-0.141-0.377-0.256-0.561-0.396l0.042,0.082l-0.409-0.256c0.528,0.916,1.037,1.844,1.527,2.775
	c3.88,9.721,11.563,33.311,13.101,50.152c3.638,39.658-9.161,80.439,17.969,134.216c10.634,21.076,48.827,46.227,71.236,40.129
	c-32.946,8.959-77.048-59.07-74.268-116.572c0.264-5.512,0.81-39.158,0.542-60.689c0.133-8.649-0.264-14.773-0.764-17.363
	c2.597,0.64,12.214,1.753,18.875,1.092c18.953,0.396,45.479,0.149,50.061-0.138C341.82,491.516,402.007,541.375,394.074,578.623z"/>
<g>
	<defs>
		<filter id="Adobe_OpacityMaskFilter_8_" filterUnits="userSpaceOnUse" x="191.865" y="460.204" width="203.312" height="229.328">
			<feColorMatrix  type="matrix" values="1 0 0 0 0  0 1 0 0 0  0 0 1 0 0  0 0 0 1 0"/>
		</filter>
	</defs>
	<mask maskUnits="userSpaceOnUse" x="191.865" y="460.204" width="203.312" height="229.328" id="SVGID_41_">
		<g filter="url(#Adobe_OpacityMaskFilter_8_)">
			<g>
				<g>
					<defs>
						<rect id="SVGID_102_" x="185.559" y="457.683" width="243.982" height="275.061"/>
					</defs>
					<clipPath id="SVGID_103_">
						<use xlink:href="#SVGID_102_"  overflow="visible"/>
					</clipPath>
					<polygon clip-path="url(#SVGID_103_)" fill="#FFFFFF" points="475.55,506.449 550.928,586.339 315.414,870.38 240.038,790.486 
											"/>
				</g>
				<g>
					<defs>
						<rect id="SVGID_104_" x="185.559" y="457.683" width="243.982" height="275.061"/>
					</defs>
					<clipPath id="SVGID_105_">
						<use xlink:href="#SVGID_104_"  overflow="visible"/>
					</clipPath>
					<polygon clip-path="url(#SVGID_105_)" fill="#010101" points="375.062,399.926 299.688,320.041 64.167,604.072 
						139.542,683.957 					"/>
				</g>
				<g>
					<g>
						<defs>
							<rect id="SVGID_107_" x="185.559" y="457.683" width="243.982" height="275.061"/>
						</defs>
						<clipPath id="SVGID_108_">
							<use xlink:href="#SVGID_107_"  overflow="visible"/>
						</clipPath>
					</g>
					<g>
						<defs>
							<rect id="SVGID_109_" x="185.559" y="457.683" width="243.982" height="275.061"/>
						</defs>
						<defs>
							<polygon id="SVGID_110_" points="488.116,519.763 362.497,386.614 126.977,670.65 252.601,803.796 							"/>
						</defs>
						<clipPath id="SVGID_112_">
							<use xlink:href="#SVGID_109_"  overflow="visible"/>
						</clipPath>
						<clipPath id="SVGID_113_" clip-path="url(#SVGID_112_)">
							<use xlink:href="#SVGID_110_"  overflow="visible"/>
						</clipPath>
						<g transform="matrix(1 0 0 1 1.525879e-05 0)">
						</g>
					</g>
				</g>
			</g>
		</g>
	</mask>
	<path mask="url(#SVGID_41_)" fill="#FFFFFF" stroke="#FFFFFF" stroke-width="0.5669" stroke-miterlimit="22.9256" d="
		M394.074,578.623c5.389-25.336-16.855-68.516-35.501-80.541c-47.873-30.885-84.133-16.015-119.421-20.37
		c-15.749-1.923-38.06-11.729-45.546-16.095c-0.188-0.141-0.377-0.256-0.561-0.396l0.042,0.082l-0.409-0.256
		c0.528,0.916,1.037,1.844,1.527,2.775c3.88,9.721,11.563,33.311,13.101,50.152c3.638,39.658-9.161,80.439,17.969,134.216
		c10.634,21.076,48.827,46.227,71.236,40.129c-32.946,8.959-77.048-59.07-74.268-116.572c0.264-5.512,0.81-39.158,0.542-60.689
		c0.133-8.649-0.264-14.773-0.764-17.363c2.597,0.64,12.214,1.753,18.875,1.092c18.953,0.396,45.479,0.149,50.061-0.138
		C341.82,491.516,402.007,541.375,394.074,578.623z"/>
	<defs>
		<filter id="Adobe_OpacityMaskFilter_9_" filterUnits="userSpaceOnUse" x="191.865" y="460.204" width="203.312" height="229.328">
			<feColorMatrix  type="matrix" values="1 0 0 0 0  0 1 0 0 0  0 0 1 0 0  0 0 0 1 0"/>
		</filter>
	</defs>
	<mask maskUnits="userSpaceOnUse" x="191.865" y="460.204" width="203.312" height="229.328" id="SVGID_46_">
		<g filter="url(#Adobe_OpacityMaskFilter_9_)">
			<g>
				<g>
					<defs>
						<rect id="SVGID_114_" x="185.559" y="457.683" width="243.982" height="275.061"/>
					</defs>
					<clipPath id="SVGID_115_">
						<use xlink:href="#SVGID_114_"  overflow="visible"/>
					</clipPath>
					<polygon clip-path="url(#SVGID_115_)" fill="#FFFFFF" points="475.55,506.449 550.928,586.339 315.414,870.38 240.038,790.486 
											"/>
				</g>
				<g>
					<defs>
						<rect id="SVGID_117_" x="185.559" y="457.683" width="243.982" height="275.061"/>
					</defs>
					<clipPath id="SVGID_118_">
						<use xlink:href="#SVGID_117_"  overflow="visible"/>
					</clipPath>
					<polygon clip-path="url(#SVGID_118_)" fill="#010101" points="375.062,399.926 299.688,320.041 64.167,604.072 
						139.542,683.957 					"/>
				</g>
				<g>
					<g>
						<defs>
							<rect id="SVGID_119_" x="185.559" y="457.683" width="243.982" height="275.061"/>
						</defs>
						<clipPath id="SVGID_120_">
							<use xlink:href="#SVGID_119_"  overflow="visible"/>
						</clipPath>
					</g>
					<g>
						<defs>
							<rect id="SVGID_122_" x="185.559" y="457.683" width="243.982" height="275.061"/>
						</defs>
						<defs>
							<polygon id="SVGID_123_" points="488.116,519.763 362.497,386.614 126.977,670.65 252.601,803.796 							"/>
						</defs>
						<clipPath id="SVGID_124_">
							<use xlink:href="#SVGID_122_"  overflow="visible"/>
						</clipPath>
						<clipPath id="SVGID_125_" clip-path="url(#SVGID_124_)">
							<use xlink:href="#SVGID_123_"  overflow="visible"/>
						</clipPath>
						<g transform="matrix(1 0 0 1 1.525879e-05 0)">
						</g>
					</g>
				</g>
			</g>
		</g>
	</mask>
	<path mask="url(#SVGID_46_)" fill="#FFFFFF" stroke="#FFFFFF" stroke-width="0.5669" stroke-miterlimit="22.9256" d="
		M394.074,578.623c5.389-25.336-16.855-68.516-35.501-80.541c-47.873-30.885-84.133-16.015-119.421-20.37
		c-15.749-1.923-38.06-11.729-45.546-16.095c-0.188-0.141-0.377-0.256-0.561-0.396l0.042,0.082l-0.409-0.256
		c0.528,0.916,1.037,1.844,1.527,2.775c3.88,9.721,11.563,33.311,13.101,50.152c3.638,39.658-9.161,80.439,17.969,134.216
		c10.634,21.076,48.827,46.227,71.236,40.129c-32.946,8.959-77.048-59.07-74.268-116.572c0.264-5.512,0.81-39.158,0.542-60.689
		c0.133-8.649-0.264-14.773-0.764-17.363c2.597,0.64,12.214,1.753,18.875,1.092c18.953,0.396,45.479,0.149,50.061-0.138
		C341.82,491.516,402.007,541.375,394.074,578.623z"/>
</g>
<path fill="#FFFFFF" stroke="#FFFFFF" stroke-width="0.5669" stroke-miterlimit="22.9256" d="M368.067,592.699
	c3.257-15.309-10.191-41.4-21.457-48.664c-28.937-18.664-50.839-9.68-72.176-12.307c-9.511-1.168-22.999-7.102-27.518-9.738
	c-0.115-0.078-0.228-0.148-0.34-0.229l0.024,0.049l-0.25-0.166c0.326,0.57,0.627,1.125,0.925,1.684
	c2.347,5.875,6.986,20.137,7.919,30.307c2.196,23.965-5.54,48.613,10.86,81.113c6.429,12.734,29.504,27.939,43.053,24.256
	c-19.917,5.408-46.568-35.695-44.886-70.463c0.161-3.33,0.49-23.652,0.326-36.662c0.083-5.232-0.163-8.938-0.463-10.504
	c1.569,0.396,7.387,1.055,11.412,0.662c11.456,0.242,27.487,0.096,30.255-0.082C336.49,540.064,372.853,570.193,368.067,592.699z"/>
<path fill="#FFFFFF" stroke="#FFFFFF" stroke-width="0.5669" stroke-miterlimit="22.9256" d="M368.067,592.699
	c3.257-15.309-10.191-41.4-21.457-48.664c-28.937-18.664-50.839-9.68-72.176-12.307c-9.511-1.168-22.999-7.102-27.518-9.738
	c-0.115-0.078-0.228-0.148-0.34-0.229l0.024,0.049l-0.25-0.166c0.326,0.57,0.627,1.125,0.925,1.684
	c2.347,5.875,6.986,20.137,7.919,30.307c2.196,23.965-5.54,48.613,10.86,81.113c6.429,12.734,29.504,27.939,43.053,24.256
	c-19.917,5.408-46.568-35.695-44.886-70.463c0.161-3.33,0.49-23.652,0.326-36.662c0.083-5.232-0.163-8.938-0.463-10.504
	c1.569,0.396,7.387,1.055,11.412,0.662c11.456,0.242,27.487,0.096,30.255-0.082C336.49,540.064,372.853,570.193,368.067,592.699z"/>
<g>
	<defs>
		
			<filter id="Adobe_OpacityMaskFilter_10_" filterUnits="userSpaceOnUse" x="245.511" y="520.747" width="123.334" height="139.101">
			<feColorMatrix  type="matrix" values="1 0 0 0 0  0 1 0 0 0  0 0 1 0 0  0 0 0 1 0"/>
		</filter>
	</defs>
	<mask maskUnits="userSpaceOnUse" x="245.511" y="520.747" width="123.334" height="139.101" id="SVGID_51_">
		<g filter="url(#Adobe_OpacityMaskFilter_10_)">
			<g>
				<g>
					<defs>
						<rect id="SVGID_127_" x="239.297" y="518.277" width="136.576" height="153.854"/>
					</defs>
					<clipPath id="SVGID_128_">
						<use xlink:href="#SVGID_127_"  overflow="visible"/>
					</clipPath>
					<polygon clip-path="url(#SVGID_128_)" fill="#FFFFFF" points="424.076,569.382 443.766,590.236 311.978,749.177 292.3,728.322 
											"/>
				</g>
				<g>
					<defs>
						<rect id="SVGID_129_" x="239.297" y="518.277" width="136.576" height="153.854"/>
					</defs>
					<clipPath id="SVGID_130_">
						<use xlink:href="#SVGID_129_"  overflow="visible"/>
					</clipPath>
					<polygon clip-path="url(#SVGID_130_)" fill="#010101" points="322.86,462.091 303.186,441.236 171.403,600.175 
						191.075,621.033 					"/>
				</g>
				<g>
					<g>
						<defs>
							<rect id="SVGID_131_" x="239.297" y="518.277" width="136.576" height="153.854"/>
						</defs>
						<clipPath id="SVGID_132_">
							<use xlink:href="#SVGID_131_"  overflow="visible"/>
						</clipPath>
					</g>
					<g>
						<defs>
							<rect id="SVGID_133_" x="239.297" y="518.277" width="136.576" height="153.854"/>
						</defs>
						<defs>
							<polygon id="SVGID_134_" points="436.744,582.798 310.209,448.688 178.422,607.611 304.953,741.736 							"/>
						</defs>
						<clipPath id="SVGID_135_">
							<use xlink:href="#SVGID_133_"  overflow="visible"/>
						</clipPath>
						<clipPath id="SVGID_136_" clip-path="url(#SVGID_135_)">
							<use xlink:href="#SVGID_134_"  overflow="visible"/>
						</clipPath>
						<g transform="matrix(1 0 0 1 0 0)">
						</g>
					</g>
				</g>
			</g>
		</g>
	</mask>
	<path mask="url(#SVGID_51_)" fill="#FFFFFF" stroke="#FFFFFF" stroke-width="0.5669" stroke-miterlimit="22.9256" d="
		M368.067,592.699c3.257-15.309-10.191-41.4-21.457-48.664c-28.937-18.664-50.839-9.68-72.176-12.307
		c-9.511-1.168-22.999-7.102-27.518-9.738c-0.115-0.078-0.228-0.148-0.34-0.229l0.024,0.049l-0.25-0.166
		c0.326,0.57,0.627,1.125,0.925,1.684c2.347,5.875,6.986,20.137,7.919,30.307c2.196,23.965-5.54,48.613,10.86,81.113
		c6.429,12.734,29.504,27.939,43.053,24.256c-19.917,5.408-46.568-35.695-44.886-70.463c0.161-3.33,0.49-23.652,0.326-36.662
		c0.083-5.232-0.163-8.938-0.463-10.504c1.569,0.396,7.387,1.055,11.412,0.662c11.456,0.242,27.487,0.096,30.255-0.082
		C336.49,540.064,372.853,570.193,368.067,592.699z"/>
	<defs>
		
			<filter id="Adobe_OpacityMaskFilter_11_" filterUnits="userSpaceOnUse" x="245.511" y="520.747" width="123.334" height="139.101">
			<feColorMatrix  type="matrix" values="1 0 0 0 0  0 1 0 0 0  0 0 1 0 0  0 0 0 1 0"/>
		</filter>
	</defs>
	<mask maskUnits="userSpaceOnUse" x="245.511" y="520.747" width="123.334" height="139.101" id="SVGID_56_">
		<g filter="url(#Adobe_OpacityMaskFilter_11_)">
			<g>
				<g>
					<defs>
						<rect id="SVGID_137_" x="239.297" y="518.277" width="136.576" height="153.854"/>
					</defs>
					<clipPath id="SVGID_138_">
						<use xlink:href="#SVGID_137_"  overflow="visible"/>
					</clipPath>
					<polygon clip-path="url(#SVGID_138_)" fill="#FFFFFF" points="424.076,569.382 443.766,590.236 311.978,749.177 292.3,728.322 
											"/>
				</g>
				<g>
					<defs>
						<rect id="SVGID_139_" x="239.297" y="518.277" width="136.576" height="153.854"/>
					</defs>
					<clipPath id="SVGID_140_">
						<use xlink:href="#SVGID_139_"  overflow="visible"/>
					</clipPath>
					<polygon clip-path="url(#SVGID_140_)" fill="#010101" points="322.86,462.091 303.186,441.236 171.403,600.175 
						191.075,621.033 					"/>
				</g>
				<g>
					<g>
						<defs>
							<rect id="SVGID_141_" x="239.297" y="518.277" width="136.576" height="153.854"/>
						</defs>
						<clipPath id="SVGID_142_">
							<use xlink:href="#SVGID_141_"  overflow="visible"/>
						</clipPath>
					</g>
					<g>
						<defs>
							<rect id="SVGID_143_" x="239.297" y="518.277" width="136.576" height="153.854"/>
						</defs>
						<defs>
							<polygon id="SVGID_144_" points="436.744,582.798 310.209,448.688 178.422,607.611 304.953,741.736 							"/>
						</defs>
						<clipPath id="SVGID_145_">
							<use xlink:href="#SVGID_143_"  overflow="visible"/>
						</clipPath>
						<clipPath id="SVGID_146_" clip-path="url(#SVGID_145_)">
							<use xlink:href="#SVGID_144_"  overflow="visible"/>
						</clipPath>
						<g transform="matrix(1 0 0 1 0 0)">
						</g>
					</g>
				</g>
			</g>
		</g>
	</mask>
	<path mask="url(#SVGID_56_)" fill="#FFFFFF" stroke="#FFFFFF" stroke-width="0.5669" stroke-miterlimit="22.9256" d="
		M368.067,592.699c3.257-15.309-10.191-41.4-21.457-48.664c-28.937-18.664-50.839-9.68-72.176-12.307
		c-9.511-1.168-22.999-7.102-27.518-9.738c-0.115-0.078-0.228-0.148-0.34-0.229l0.024,0.049l-0.25-0.166
		c0.326,0.57,0.627,1.125,0.925,1.684c2.347,5.875,6.986,20.137,7.919,30.307c2.196,23.965-5.54,48.613,10.86,81.113
		c6.429,12.734,29.504,27.939,43.053,24.256c-19.917,5.408-46.568-35.695-44.886-70.463c0.161-3.33,0.49-23.652,0.326-36.662
		c0.083-5.232-0.163-8.938-0.463-10.504c1.569,0.396,7.387,1.055,11.412,0.662c11.456,0.242,27.487,0.096,30.255-0.082
		C336.49,540.064,372.853,570.193,368.067,592.699z"/>
</g>
<path fill="#FFFFFF" stroke="#FFFFFF" stroke-miterlimit="10" d="M640.29,585.306c23.655,5.568,44.236-17.561,51.74-33.369
	c19.279-40.611,9.036-69.22,11.293-98.121c0.995-12.894,7.004-31.558,9.712-37.885l0.244-0.474l-0.052,0.036l0.165-0.353
	l-1.775,1.406c-6.26,3.7-21.453,11.27-32.367,13.463c-25.694,5.188-52.403-2.888-86.878,22.185c-2.708,1.944-5.5,4.821-8.19,8.292
	c2.309,3.929,2.753,5.41,2.753,10.146c14.853-13.926,35.755-24.722,55.044-25.229c3.569-0.096,25.438-1.545,39.417-2.983
	c5.623-0.385,9.587-1.057,11.272-1.605c-0.37,2.137-0.944,10.021-0.41,15.394c0.062,15.411,0.646,36.927,0.902,40.631
	C696.032,537.964,664.625,589.632,640.29,585.306z"/>
<path fill="#FFFFFF" stroke="#FFFFFF" stroke-width="0.5669" stroke-miterlimit="22.9256" d="M640.29,585.306
	c23.655,5.568,44.236-17.561,51.74-33.369c19.279-40.611,9.036-69.22,11.293-98.121c0.995-12.894,7.004-31.558,9.712-37.885
	l0.244-0.474l-0.052,0.036l0.165-0.353l-1.775,1.406c-6.26,3.7-21.453,11.27-32.367,13.463
	c-25.694,5.188-52.403-2.888-86.878,22.185c-2.708,1.944-5.5,4.821-8.19,8.292c2.309,3.929,2.753,5.41,2.753,10.146
	c14.853-13.926,35.755-24.722,55.044-25.229c3.569-0.096,25.438-1.545,39.417-2.983c5.623-0.385,9.587-1.057,11.272-1.605
	c-0.37,2.137-0.944,10.021-0.41,15.394c0.062,15.411,0.646,36.927,0.902,40.631C696.032,537.964,664.625,589.632,640.29,585.306z"/>
<path fill="#FFFFFF" stroke="#FFFFFF" stroke-miterlimit="10" d="M627.657,577.039c23.332-0.975,30.518-12.111,35.693-23.021
	c13.302-28.027,6.241-47.765,7.776-67.703c0.7-8.899,4.847-21.786,6.718-26.136l0.16-0.336l-0.027,0.032l0.114-0.246l-1.236,0.964
	c-4.308,2.554-14.801,7.777-22.314,9.297c-17.738,3.575-36.165-1.993-59.953,15.302c-1.725,1.24-3.487,3.016-5.212,5.164
	c1.301,2.493,1.578,4.632,1.578,7.45c10.249-9.55,24.6-16.946,37.862-17.293c2.462-0.069,17.556-1.065,27.205-2.062
	c3.878-0.255,6.608-0.735,7.759-1.104c-0.247,1.471-0.639,6.911-0.269,10.615c0.039,10.633,0.441,25.492,0.615,28.045
	C666.107,544.369,644.438,580.025,627.657,577.039z"/>
<path fill="#FFFFFF" stroke="#FFFFFF" stroke-width="0.5669" stroke-miterlimit="22.9256" d="M627.657,577.039
	c23.332-0.975,30.518-12.111,35.693-23.021c13.302-28.027,6.241-47.765,7.776-67.703c0.7-8.899,4.847-21.786,6.718-26.136
	l0.16-0.336l-0.027,0.032l0.114-0.246l-1.236,0.964c-4.308,2.554-14.801,7.777-22.314,9.297
	c-17.738,3.575-36.165-1.993-59.953,15.302c-1.725,1.24-3.487,3.016-5.212,5.164c1.301,2.493,1.578,4.632,1.578,7.45
	c10.249-9.55,24.6-16.946,37.862-17.293c2.462-0.069,17.556-1.065,27.205-2.062c3.878-0.255,6.608-0.735,7.759-1.104
	c-0.247,1.471-0.639,6.911-0.269,10.615c0.039,10.633,0.441,25.492,0.615,28.045C666.107,544.369,644.438,580.025,627.657,577.039z"
	/>
<path fill="#FFFFFF" stroke="#FFFFFF" stroke-miterlimit="10" d="M411.805,544.882c-17.537-20.254-19.457-76.23-8.915-100.313
	c27.08-61.84,66.829-72.542,96.044-100.721c13.04-12.582,27.975-37.071,32.443-46.299c0.104-0.256,0.2-0.499,0.296-0.755l0.01,0.104
	l0.228-0.535c0,1.243,0.018,2.462,0.042,3.668c1.438,11.839,6.467,39.368,13.556,56.327c16.706,39.937,48.609,69.754,51.506,139.053
	c1.133,27.172-20.205,76.997-43.217,86.528c33.836-14.008,38.864-108.377,7.473-160.806c-3.009-5.025-20.406-36.444-31-56.966
	c-4.479-8.077-7.188-14.136-8.05-16.922c-1.991,2.369-10.001,9.979-16.252,13.905c-16.682,13.311-40.405,31.187-44.625,34.041
	C414.489,426.921,386.014,515.1,411.805,544.882z"/>
<path fill="#FFFFFF" stroke="#FFFFFF" stroke-width="0.5669" stroke-miterlimit="22.9256" d="M411.805,544.882
	c-17.537-20.254-19.457-76.23-8.915-100.313c27.08-61.84,66.829-72.542,96.044-100.721c13.04-12.582,27.975-37.071,32.443-46.299
	c0.104-0.256,0.2-0.499,0.296-0.755l0.01,0.104l0.228-0.535c0,1.243,0.018,2.462,0.042,3.668
	c1.438,11.839,6.467,39.368,13.556,56.327c16.706,39.937,48.609,69.754,51.506,139.053c1.133,27.172-20.205,76.997-43.217,86.528
	c33.836-14.008,38.864-108.377,7.473-160.806c-3.009-5.025-20.406-36.444-31-56.966c-4.479-8.077-7.188-14.136-8.05-16.922
	c-1.991,2.369-10.001,9.979-16.252,13.905c-16.682,13.311-40.405,31.187-44.625,34.041
	C414.489,426.921,386.014,515.1,411.805,544.882z"/>
<path fill="#FFFFFF" stroke="#FFFFFF" stroke-miterlimit="10" d="M438.677,540.666c-11.294-13.029-12.524-49.047-5.726-64.541
	c17.406-39.787,42.989-46.672,61.784-64.797c8.389-8.091,17.997-23.853,20.874-29.796c0.059-0.162,0.121-0.314,0.184-0.477
	l0.008,0.069l0.154-0.345c-0.007,0.798,0,1.586,0.02,2.354c0.926,7.626,4.158,25.327,8.729,36.246
	c10.745,25.695,31.271,44.871,33.138,89.463c0.715,17.48-12.998,49.539-27.797,55.664c21.759-9.01,25.005-69.729,4.803-103.458
	c-1.941-3.225-13.143-23.446-19.959-36.642c-2.872-5.202-4.618-9.098-5.172-10.889c-1.285,1.519-6.426,6.421-10.448,8.938
	c-10.737,8.564-26.004,20.066-28.715,21.915C440.404,464.784,422.089,521.505,438.677,540.666z"/>
<path fill="#FFFFFF" stroke="#FFFFFF" stroke-width="0.5669" stroke-miterlimit="22.9256" d="M438.677,540.666
	c-11.294-13.029-12.524-49.047-5.726-64.541c17.406-39.787,42.989-46.672,61.784-64.797c8.389-8.091,17.997-23.853,20.874-29.796
	c0.059-0.162,0.121-0.314,0.184-0.477l0.008,0.069l0.154-0.345c-0.007,0.798,0,1.586,0.02,2.354
	c0.926,7.626,4.158,25.327,8.729,36.246c10.745,25.695,31.271,44.871,33.138,89.463c0.715,17.48-12.998,49.539-27.797,55.664
	c21.759-9.01,25.005-69.729,4.803-103.458c-1.941-3.225-13.143-23.446-19.959-36.642c-2.872-5.202-4.618-9.098-5.172-10.889
	c-1.285,1.519-6.426,6.421-10.448,8.938c-10.737,8.564-26.004,20.066-28.715,21.915
	C440.404,464.784,422.089,521.505,438.677,540.666z"/>
<path fill="#FFFFFF" stroke="#FFFFFF" stroke-miterlimit="10" d="M461.629,539.126c-6.138-7.084-6.808-26.649-3.121-35.063
	c9.467-21.624,23.367-25.364,33.584-35.221c4.55-4.395,9.779-12.951,11.339-16.186c0.029-0.084,0.062-0.176,0.105-0.255v0.03
	l0.079-0.185c0,0.431,0,0.863,0.023,1.279c0.491,4.141,2.258,13.766,4.729,19.697c5.845,13.957,16.994,24.383,18.008,48.615
	c0.399,9.492-7.062,26.916-15.108,30.246c11.833-4.896,13.591-37.892,2.616-56.22c-1.046-1.755-7.146-12.744-10.843-19.918
	c-1.559-2.82-2.511-4.93-2.814-5.915c-0.696,0.83-3.488,3.489-5.685,4.859c-5.832,4.654-14.122,10.909-15.593,11.912
	C462.575,497.896,452.616,528.722,461.629,539.126z"/>
<path fill="#FFFFFF" stroke="#FFFFFF" stroke-width="0.5669" stroke-miterlimit="22.9256" d="M461.629,539.126
	c-6.138-7.084-6.808-26.649-3.121-35.063c9.467-21.624,23.367-25.364,33.584-35.221c4.55-4.395,9.779-12.951,11.339-16.186
	c0.029-0.084,0.062-0.176,0.105-0.255v0.03l0.079-0.185c0,0.431,0,0.863,0.023,1.279c0.491,4.141,2.258,13.766,4.729,19.697
	c5.845,13.957,16.994,24.383,18.008,48.615c0.399,9.492-7.062,26.916-15.108,30.246c11.833-4.896,13.591-37.892,2.616-56.22
	c-1.046-1.755-7.146-12.744-10.843-19.918c-1.559-2.82-2.511-4.93-2.814-5.915c-0.696,0.83-3.488,3.489-5.685,4.859
	c-5.832,4.654-14.122,10.909-15.593,11.912C462.575,497.896,452.616,528.722,461.629,539.126z"/>
<g>
	<defs>
		
			<filter id="Adobe_OpacityMaskFilter_12_" filterUnits="userSpaceOnUse" x="395.923" y="293.912" width="201.634" height="288.489">
			<feColorMatrix  type="matrix" values="1 0 0 0 0  0 1 0 0 0  0 0 1 0 0  0 0 0 1 0"/>
		</filter>
	</defs>
	<mask maskUnits="userSpaceOnUse" x="395.923" y="293.912" width="201.634" height="288.489" id="SVGID_61_">
		<g filter="url(#Adobe_OpacityMaskFilter_12_)">
			<g>
				<g>
					<defs>
						<rect id="SVGID_147_" x="354.741" y="292.999" width="245.302" height="470.178"/>
					</defs>
					<clipPath id="SVGID_148_">
						<use xlink:href="#SVGID_147_"  overflow="visible"/>
					</clipPath>
					<polygon clip-path="url(#SVGID_148_)" fill="#FFFFFF" points="624.566,643.687 587.51,824.259 263.145,739.134 300.22,558.562 
											"/>
				</g>
				<g>
					<defs>
						<rect id="SVGID_149_" x="354.741" y="292.999" width="245.302" height="470.178"/>
					</defs>
					<clipPath id="SVGID_150_">
						<use xlink:href="#SVGID_149_"  overflow="visible"/>
					</clipPath>
					<polygon clip-path="url(#SVGID_150_)" fill="#010101" points="654.559,497.607 691.639,317.036 367.289,231.914 
						330.209,412.489 					"/>
				</g>
				<g>
					<g>
						<defs>
							<rect id="SVGID_151_" x="354.741" y="292.999" width="245.302" height="470.178"/>
						</defs>
						<clipPath id="SVGID_152_">
							<use xlink:href="#SVGID_151_"  overflow="visible"/>
						</clipPath>
					</g>
					<g>
						<defs>
							<rect id="SVGID_153_" x="354.741" y="292.999" width="245.302" height="470.178"/>
						</defs>
						<defs>
							<polygon id="SVGID_154_" points="620.826,661.957 658.321,479.348 333.958,394.229 296.468,576.82 							"/>
						</defs>
						<clipPath id="SVGID_155_">
							<use xlink:href="#SVGID_153_"  overflow="visible"/>
						</clipPath>
						<clipPath id="SVGID_156_" clip-path="url(#SVGID_155_)">
							<use xlink:href="#SVGID_154_"  overflow="visible"/>
						</clipPath>
						<g>
						</g>
					</g>
				</g>
			</g>
		</g>
	</mask>
	<path mask="url(#SVGID_61_)" fill="#FFFFFF" stroke="#FFFFFF" stroke-miterlimit="10" d="M411.805,544.882
		c-17.537-20.254-19.457-76.23-8.915-100.313c27.08-61.84,66.829-72.542,96.044-100.721c13.04-12.582,27.975-37.071,32.443-46.299
		c0.104-0.256,0.2-0.499,0.296-0.755l0.01,0.104l0.228-0.535c0,1.243,0.018,2.462,0.042,3.668
		c1.438,11.839,6.467,39.368,13.556,56.327c16.706,39.937,48.609,69.754,51.506,139.053c1.133,27.172-20.205,76.997-43.217,86.528
		c33.836-14.008,38.864-108.377,7.473-160.806c-3.009-5.025-20.406-36.444-31-56.966c-4.479-8.077-7.188-14.136-8.05-16.922
		c-1.991,2.369-10.001,9.979-16.252,13.905c-16.682,13.311-40.405,31.187-44.625,34.041
		C414.489,426.921,386.014,515.1,411.805,544.882z"/>
	<defs>
		<filter id="Adobe_OpacityMaskFilter_13_" filterUnits="userSpaceOnUse" x="396.14" y="294.973" width="201.2" height="287.228">
			<feColorMatrix  type="matrix" values="1 0 0 0 0  0 1 0 0 0  0 0 1 0 0  0 0 0 1 0"/>
		</filter>
	</defs>
	<mask maskUnits="userSpaceOnUse" x="396.14" y="294.973" width="201.2" height="287.228" id="SVGID_66_">
		<g filter="url(#Adobe_OpacityMaskFilter_13_)">
			<g>
				<g>
					<defs>
						<rect id="SVGID_157_" x="354.741" y="292.999" width="245.302" height="470.178"/>
					</defs>
					<clipPath id="SVGID_158_">
						<use xlink:href="#SVGID_157_"  overflow="visible"/>
					</clipPath>
					<polygon clip-path="url(#SVGID_158_)" fill="#FFFFFF" points="624.566,643.687 587.51,824.259 263.145,739.134 300.22,558.562 
											"/>
				</g>
				<g>
					<defs>
						<rect id="SVGID_159_" x="354.741" y="292.999" width="245.302" height="470.178"/>
					</defs>
					<clipPath id="SVGID_160_">
						<use xlink:href="#SVGID_159_"  overflow="visible"/>
					</clipPath>
					<polygon clip-path="url(#SVGID_160_)" fill="#010101" points="654.559,497.607 691.639,317.036 367.289,231.914 
						330.209,412.489 					"/>
				</g>
				<g>
					<g>
						<defs>
							<rect id="SVGID_161_" x="354.741" y="292.999" width="245.302" height="470.178"/>
						</defs>
						<clipPath id="SVGID_162_">
							<use xlink:href="#SVGID_161_"  overflow="visible"/>
						</clipPath>
					</g>
					<g>
						<defs>
							<rect id="SVGID_163_" x="354.741" y="292.999" width="245.302" height="470.178"/>
						</defs>
						<defs>
							<polygon id="SVGID_164_" points="620.826,661.957 658.321,479.348 333.958,394.229 296.468,576.82 							"/>
						</defs>
						<clipPath id="SVGID_165_">
							<use xlink:href="#SVGID_163_"  overflow="visible"/>
						</clipPath>
						<clipPath id="SVGID_166_" clip-path="url(#SVGID_165_)">
							<use xlink:href="#SVGID_164_"  overflow="visible"/>
						</clipPath>
						<g>
						</g>
					</g>
				</g>
			</g>
		</g>
	</mask>
	<path mask="url(#SVGID_66_)" fill="#FFFFFF" stroke="#FFFFFF" stroke-width="0.5669" stroke-miterlimit="22.9256" d="
		M411.805,544.882c-17.537-20.254-19.457-76.23-8.915-100.313c27.08-61.84,66.829-72.542,96.044-100.721
		c13.04-12.582,27.975-37.071,32.443-46.299c0.104-0.256,0.2-0.499,0.296-0.755l0.01,0.104l0.228-0.535
		c0,1.243,0.018,2.462,0.042,3.668c1.438,11.839,6.467,39.368,13.556,56.327c16.706,39.937,48.609,69.754,51.506,139.053
		c1.133,27.172-20.205,76.997-43.217,86.528c33.836-14.008,38.864-108.377,7.473-160.806c-3.009-5.025-20.406-36.444-31-56.966
		c-4.479-8.077-7.188-14.136-8.05-16.922c-1.991,2.369-10.001,9.979-16.252,13.905c-16.682,13.311-40.405,31.187-44.625,34.041
		C414.489,426.921,386.014,515.1,411.805,544.882z"/>
</g>
<g>
	<defs>
		
			<filter id="Adobe_OpacityMaskFilter_14_" filterUnits="userSpaceOnUse" x="428.276" y="378.393" width="130.091" height="186.575">
			<feColorMatrix  type="matrix" values="1 0 0 0 0  0 1 0 0 0  0 0 1 0 0  0 0 0 1 0"/>
		</filter>
	</defs>
	<mask maskUnits="userSpaceOnUse" x="428.276" y="378.393" width="130.091" height="186.575" id="SVGID_71_">
		<g filter="url(#Adobe_OpacityMaskFilter_14_)">
			<g>
				<g>
					<defs>
						<rect id="SVGID_167_" x="393.796" y="377.412" width="167.051" height="301.347"/>
					</defs>
					<clipPath id="SVGID_168_">
						<use xlink:href="#SVGID_167_"  overflow="visible"/>
					</clipPath>
					<polygon clip-path="url(#SVGID_168_)" fill="#FFFFFF" points="570.863,629.958 552.314,720.349 335.098,663.349 
						353.651,572.957 					"/>
				</g>
				<g>
					<defs>
						<rect id="SVGID_169_" x="393.796" y="377.412" width="167.051" height="301.347"/>
					</defs>
					<clipPath id="SVGID_170_">
						<use xlink:href="#SVGID_169_"  overflow="visible"/>
					</clipPath>
					<polygon clip-path="url(#SVGID_170_)" fill="#010101" points="600.994,483.212 619.554,392.825 402.336,335.825 
						383.773,426.218 					"/>
				</g>
				<g>
					<g>
						<defs>
							<rect id="SVGID_171_" x="393.796" y="377.412" width="167.051" height="301.347"/>
						</defs>
						<clipPath id="SVGID_172_">
							<use xlink:href="#SVGID_171_"  overflow="visible"/>
						</clipPath>
					</g>
					<g>
						<defs>
							<rect id="SVGID_173_" x="393.796" y="377.412" width="167.051" height="301.347"/>
						</defs>
						<defs>
							<polygon id="SVGID_174_" points="567.098,648.3 604.754,464.879 387.545,407.869 349.886,591.298 							"/>
						</defs>
						<clipPath id="SVGID_175_">
							<use xlink:href="#SVGID_173_"  overflow="visible"/>
						</clipPath>
						<clipPath id="SVGID_176_" clip-path="url(#SVGID_175_)">
							<use xlink:href="#SVGID_174_"  overflow="visible"/>
						</clipPath>
						<g transform="matrix(1 1.490116e-08 -1.490116e-08 1 0 -6.103516e-05)">
						</g>
					</g>
				</g>
			</g>
		</g>
	</mask>
	<path mask="url(#SVGID_71_)" fill="#FFFFFF" stroke="#FFFFFF" stroke-miterlimit="10" d="M438.677,540.666
		c-11.294-13.029-12.524-49.047-5.726-64.541c17.406-39.787,42.989-46.672,61.784-64.797c8.389-8.091,17.997-23.853,20.874-29.796
		c0.059-0.162,0.121-0.314,0.184-0.477l0.008,0.069l0.154-0.345c-0.007,0.798,0,1.586,0.02,2.354
		c0.926,7.626,4.158,25.327,8.729,36.246c10.745,25.695,31.271,44.871,33.138,89.463c0.715,17.48-12.998,49.539-27.797,55.664
		c21.759-9.01,25.005-69.729,4.803-103.458c-1.941-3.225-13.143-23.446-19.959-36.642c-2.872-5.202-4.618-9.098-5.172-10.889
		c-1.285,1.519-6.426,6.421-10.448,8.938c-10.737,8.564-26.004,20.066-28.715,21.915
		C440.404,464.784,422.089,521.505,438.677,540.666z"/>
	<defs>
		
			<filter id="Adobe_OpacityMaskFilter_15_" filterUnits="userSpaceOnUse" x="428.493" y="379.426" width="129.658" height="185.341">
			<feColorMatrix  type="matrix" values="1 0 0 0 0  0 1 0 0 0  0 0 1 0 0  0 0 0 1 0"/>
		</filter>
	</defs>
	<mask maskUnits="userSpaceOnUse" x="428.493" y="379.426" width="129.658" height="185.341" id="SVGID_76_">
		<g filter="url(#Adobe_OpacityMaskFilter_15_)">
			<g>
				<g>
					<defs>
						<rect id="SVGID_177_" x="393.796" y="377.412" width="167.051" height="301.347"/>
					</defs>
					<clipPath id="SVGID_178_">
						<use xlink:href="#SVGID_177_"  overflow="visible"/>
					</clipPath>
					<polygon clip-path="url(#SVGID_178_)" fill="#FFFFFF" points="570.863,629.958 552.314,720.349 335.098,663.349 
						353.651,572.957 					"/>
				</g>
				<g>
					<defs>
						<rect id="SVGID_179_" x="393.796" y="377.412" width="167.051" height="301.347"/>
					</defs>
					<clipPath id="SVGID_180_">
						<use xlink:href="#SVGID_179_"  overflow="visible"/>
					</clipPath>
					<polygon clip-path="url(#SVGID_180_)" fill="#010101" points="600.994,483.212 619.554,392.825 402.336,335.825 
						383.773,426.218 					"/>
				</g>
				<g>
					<g>
						<defs>
							<rect id="SVGID_181_" x="393.796" y="377.412" width="167.051" height="301.347"/>
						</defs>
						<clipPath id="SVGID_182_">
							<use xlink:href="#SVGID_181_"  overflow="visible"/>
						</clipPath>
					</g>
					<g>
						<defs>
							<rect id="SVGID_183_" x="393.796" y="377.412" width="167.051" height="301.347"/>
						</defs>
						<defs>
							<polygon id="SVGID_184_" points="567.098,648.3 604.754,464.879 387.545,407.869 349.886,591.298 							"/>
						</defs>
						<clipPath id="SVGID_185_">
							<use xlink:href="#SVGID_183_"  overflow="visible"/>
						</clipPath>
						<clipPath id="SVGID_186_" clip-path="url(#SVGID_185_)">
							<use xlink:href="#SVGID_184_"  overflow="visible"/>
						</clipPath>
						<g transform="matrix(1 1.490116e-08 -1.490116e-08 1 0 -6.103516e-05)">
						</g>
					</g>
				</g>
			</g>
		</g>
	</mask>
	<path mask="url(#SVGID_76_)" fill="#FFFFFF" stroke="#FFFFFF" stroke-width="0.5669" stroke-miterlimit="22.9256" d="
		M438.677,540.666c-11.294-13.029-12.524-49.047-5.726-64.541c17.406-39.787,42.989-46.672,61.784-64.797
		c8.389-8.091,17.997-23.853,20.874-29.796c0.059-0.162,0.121-0.314,0.184-0.477l0.008,0.069l0.154-0.345
		c-0.007,0.798,0,1.586,0.02,2.354c0.926,7.626,4.158,25.327,8.729,36.246c10.745,25.695,31.271,44.871,33.138,89.463
		c0.715,17.48-12.998,49.539-27.797,55.664c21.759-9.01,25.005-69.729,4.803-103.458c-1.941-3.225-13.143-23.446-19.959-36.642
		c-2.872-5.202-4.618-9.098-5.172-10.889c-1.285,1.519-6.426,6.421-10.448,8.938c-10.737,8.564-26.004,20.066-28.715,21.915
		C440.404,464.784,422.089,521.505,438.677,540.666z"/>
</g>
<g>
	<defs>
		<filter id="Adobe_OpacityMaskFilter_16_" filterUnits="userSpaceOnUse" x="455.746" y="449.812" width="71.145" height="102.735">
			<feColorMatrix  type="matrix" values="1 0 0 0 0  0 1 0 0 0  0 0 1 0 0  0 0 0 1 0"/>
		</filter>
	</defs>
	<mask maskUnits="userSpaceOnUse" x="455.746" y="449.812" width="71.145" height="102.735" id="SVGID_81_">
		<g filter="url(#Adobe_OpacityMaskFilter_16_)">
			<g>
				<g>
					<defs>
						<rect id="SVGID_187_" x="425.271" y="435.79" width="104.103" height="184.588"/>
					</defs>
					<clipPath id="SVGID_188_">
						<use xlink:href="#SVGID_187_"  overflow="visible"/>
					</clipPath>
					<polygon clip-path="url(#SVGID_188_)" fill="#FFFFFF" points="529.181,621.376 524.055,646.308 389.308,610.941 
						394.433,586.013 					"/>
				</g>
				<g>
					<defs>
						<rect id="SVGID_189_" x="425.271" y="435.79" width="104.103" height="184.588"/>
					</defs>
					<clipPath id="SVGID_190_">
						<use xlink:href="#SVGID_189_"  overflow="visible"/>
					</clipPath>
					<polygon clip-path="url(#SVGID_190_)" fill="#010101" points="560.221,470.16 565.335,445.229 430.588,409.861 
						425.474,434.793 					"/>
				</g>
				<g>
					<g>
						<defs>
							<rect id="SVGID_191_" x="425.271" y="435.79" width="104.103" height="184.588"/>
						</defs>
						<clipPath id="SVGID_192_">
							<use xlink:href="#SVGID_191_"  overflow="visible"/>
						</clipPath>
					</g>
					<g>
						<defs>
							<rect id="SVGID_193_" x="425.271" y="435.79" width="104.103" height="184.588"/>
						</defs>
						<defs>
							<polygon id="SVGID_194_" points="525.3,640.285 564.099,451.252 429.357,415.899 390.553,604.917 							"/>
						</defs>
						<clipPath id="SVGID_195_">
							<use xlink:href="#SVGID_193_"  overflow="visible"/>
						</clipPath>
						<clipPath id="SVGID_196_" clip-path="url(#SVGID_195_)">
							<use xlink:href="#SVGID_194_"  overflow="visible"/>
						</clipPath>
						<g transform="matrix(1 0 0 1 3.051758e-05 0)">
						</g>
					</g>
				</g>
			</g>
		</g>
	</mask>
	<path mask="url(#SVGID_81_)" fill="#FFFFFF" stroke="#FFFFFF" stroke-miterlimit="10" d="M461.629,539.126
		c-6.138-7.084-6.808-26.649-3.121-35.063c9.467-21.624,23.367-25.364,33.584-35.221c4.55-4.395,9.779-12.951,11.339-16.186
		c0.029-0.084,0.062-0.176,0.105-0.255v0.03l0.079-0.185c0,0.431,0,0.863,0.023,1.279c0.491,4.141,2.258,13.766,4.729,19.697
		c5.845,13.957,16.994,24.383,18.008,48.615c0.399,9.492-7.062,26.916-15.108,30.246c11.833-4.896,13.591-37.892,2.616-56.22
		c-1.046-1.755-7.146-12.744-10.843-19.918c-1.559-2.82-2.511-4.93-2.814-5.915c-0.696,0.83-3.488,3.489-5.685,4.859
		c-5.832,4.654-14.122,10.909-15.593,11.912C462.575,497.896,452.616,528.722,461.629,539.126z"/>
	<defs>
		<filter id="Adobe_OpacityMaskFilter_17_" filterUnits="userSpaceOnUse" x="455.963" y="450.867" width="70.711" height="101.48">
			<feColorMatrix  type="matrix" values="1 0 0 0 0  0 1 0 0 0  0 0 1 0 0  0 0 0 1 0"/>
		</filter>
	</defs>
	<mask maskUnits="userSpaceOnUse" x="455.963" y="450.867" width="70.711" height="101.48" id="SVGID_86_">
		<g filter="url(#Adobe_OpacityMaskFilter_17_)">
			<g>
				<g>
					<defs>
						<rect id="SVGID_197_" x="425.271" y="435.79" width="104.103" height="184.588"/>
					</defs>
					<clipPath id="SVGID_198_">
						<use xlink:href="#SVGID_197_"  overflow="visible"/>
					</clipPath>
					<polygon clip-path="url(#SVGID_198_)" fill="#FFFFFF" points="529.181,621.376 524.055,646.308 389.308,610.941 
						394.433,586.013 					"/>
				</g>
				<g>
					<defs>
						<rect id="SVGID_199_" x="425.271" y="435.79" width="104.103" height="184.588"/>
					</defs>
					<clipPath id="SVGID_200_">
						<use xlink:href="#SVGID_199_"  overflow="visible"/>
					</clipPath>
					<polygon clip-path="url(#SVGID_200_)" fill="#010101" points="560.221,470.16 565.335,445.229 430.588,409.861 
						425.474,434.793 					"/>
				</g>
				<g>
					<g>
						<defs>
							<rect id="SVGID_201_" x="425.271" y="435.79" width="104.103" height="184.588"/>
						</defs>
						<clipPath id="SVGID_202_">
							<use xlink:href="#SVGID_201_"  overflow="visible"/>
						</clipPath>
					</g>
					<g>
						<defs>
							<rect id="SVGID_203_" x="425.271" y="435.79" width="104.103" height="184.588"/>
						</defs>
						<defs>
							<polygon id="SVGID_204_" points="525.3,640.285 564.099,451.252 429.357,415.899 390.553,604.917 							"/>
						</defs>
						<clipPath id="SVGID_205_">
							<use xlink:href="#SVGID_203_"  overflow="visible"/>
						</clipPath>
						<clipPath id="SVGID_206_" clip-path="url(#SVGID_205_)">
							<use xlink:href="#SVGID_204_"  overflow="visible"/>
						</clipPath>
						<g transform="matrix(1 0 0 1 3.051758e-05 0)">
						</g>
					</g>
				</g>
			</g>
		</g>
	</mask>
	<path mask="url(#SVGID_86_)" fill="#FFFFFF" stroke="#FFFFFF" stroke-width="0.5669" stroke-miterlimit="22.9256" d="
		M461.629,539.126c-6.138-7.084-6.808-26.649-3.121-35.063c9.467-21.624,23.367-25.364,33.584-35.221
		c4.55-4.395,9.779-12.951,11.339-16.186c0.029-0.084,0.062-0.176,0.105-0.255v0.03l0.079-0.185c0,0.431,0,0.863,0.023,1.279
		c0.491,4.141,2.258,13.766,4.729,19.697c5.845,13.957,16.994,24.383,18.008,48.615c0.399,9.492-7.062,26.916-15.108,30.246
		c11.833-4.896,13.591-37.892,2.616-56.22c-1.046-1.755-7.146-12.744-10.843-19.918c-1.559-2.82-2.511-4.93-2.814-5.915
		c-0.696,0.83-3.488,3.489-5.685,4.859c-5.832,4.654-14.122,10.909-15.593,11.912C462.575,497.896,452.616,528.722,461.629,539.126z
		"/>
</g>
<path fill="#FFFFFF" stroke="#FFFFFF" stroke-width="0.5669" stroke-miterlimit="22.9256" d="M75.26,805.189
	c-12.396-10.326-27.933-19.746-34.632-22.922c-0.231-0.078-0.457-0.178-0.693-0.258l0.092-0.02l-0.494-0.213
	c1.095-0.129,2.167-0.268,3.231-0.416c10.264-2.832,33.967-11.303,48.162-21.021c33.428-22.885,56.382-61.826,117.062-72.18
	c23.791-4.061,69.817,14.834,80.557,39.729c-15.797-36.604-99.342-32.602-142.252,8.09c-4.113,3.891-29.966,26.688-46.929,40.703
	c-6.658,5.85-11.709,9.529-14.073,10.787c2.293,1.992,9.812,10.211,13.904,16.854l0.671,0.867H75.26z"/>
<path fill="#FFFFFF" stroke="#FFFFFF" stroke-width="0.5669" stroke-miterlimit="22.9256" d="M75.26,805.189
	c-12.396-10.326-27.933-19.746-34.632-22.922c-0.231-0.078-0.457-0.178-0.693-0.258l0.092-0.02l-0.494-0.213
	c1.095-0.129,2.167-0.268,3.231-0.416c10.264-2.832,33.967-11.303,48.162-21.021c33.428-22.885,56.382-61.826,117.062-72.18
	c23.791-4.061,69.817,14.834,80.557,39.729c-15.797-36.604-99.342-32.602-142.252,8.09c-4.113,3.891-29.966,26.688-46.929,40.703
	c-6.658,5.85-11.709,9.529-14.073,10.787c2.293,1.992,9.812,10.211,13.904,16.854l0.671,0.867H75.26z"/>
<path fill="#FFFFFF" stroke="#FFFFFF" stroke-width="0.5669" stroke-miterlimit="22.9256" d="M132.598,805.189
	c-8.44-7.338-19.736-14.209-24.447-16.447c-0.155-0.059-0.306-0.117-0.463-0.176l0.066-0.012l-0.328-0.139
	c0.725-0.08,1.438-0.176,2.145-0.275c6.828-1.883,22.595-7.521,32.041-13.984c22.229-15.232,37.503-41.125,77.869-48.021
	c15.824-2.701,46.437,9.865,53.587,26.432c-10.507-24.354-66.084-21.682-94.622,5.387c-2.744,2.584-19.938,17.74-31.225,27.062
	c-4.432,3.904-7.788,6.348-9.362,7.186c1.529,1.322,6.527,6.801,9.248,11.213l1.373,1.775H132.598z"/>
<path fill="#FFFFFF" stroke="#FFFFFF" stroke-width="0.5669" stroke-miterlimit="22.9256" d="M132.598,805.189
	c-8.44-7.338-19.736-14.209-24.447-16.447c-0.155-0.059-0.306-0.117-0.463-0.176l0.066-0.012l-0.328-0.139
	c0.725-0.08,1.438-0.176,2.145-0.275c6.828-1.883,22.595-7.521,32.041-13.984c22.229-15.232,37.503-41.125,77.869-48.021
	c15.824-2.701,46.437,9.865,53.587,26.432c-10.507-24.354-66.084-21.682-94.622,5.387c-2.744,2.584-19.938,17.74-31.225,27.062
	c-4.432,3.904-7.788,6.348-9.362,7.186c1.529,1.322,6.527,6.801,9.248,11.213l1.373,1.775H132.598z"/>
<path fill="#FFFFFF" stroke="#FFFFFF" stroke-width="0.5669" stroke-miterlimit="22.9256" d="M189.957,805.189
	c-4.5-4.482-11.934-9.055-14.795-10.412c-0.081-0.035-0.162-0.07-0.246-0.094l0.032-0.01l-0.169-0.068
	c0.383-0.047,0.759-0.096,1.136-0.154c3.621-0.996,11.988-3.979,17.002-7.414c11.8-8.08,19.908-21.82,41.328-25.475
	c8.395-1.439,24.639,5.232,28.435,14.021c-5.576-12.932-35.068-11.52-50.217,2.852c-1.452,1.369-10.579,9.43-16.565,14.369
	c-2.352,2.066-4.133,3.367-4.963,3.809c0.805,0.705,3.459,3.607,4.907,5.955c0.64,0.838,1.319,1.717,2.008,2.621H189.957
	L189.957,805.189z"/>
<path fill="#FFFFFF" stroke="#FFFFFF" stroke-width="0.5669" stroke-miterlimit="22.9256" d="M189.957,805.189
	c-4.5-4.482-11.934-9.055-14.795-10.412c-0.081-0.035-0.162-0.07-0.246-0.094l0.032-0.01l-0.169-0.068
	c0.383-0.047,0.759-0.096,1.136-0.154c3.621-0.996,11.988-3.979,17.002-7.414c11.8-8.08,19.908-21.82,41.328-25.475
	c8.395-1.439,24.639,5.232,28.435,14.021c-5.576-12.932-35.068-11.52-50.217,2.852c-1.452,1.369-10.579,9.43-16.565,14.369
	c-2.352,2.066-4.133,3.367-4.963,3.809c0.805,0.705,3.459,3.607,4.907,5.955c0.64,0.838,1.319,1.717,2.008,2.621H189.957
	L189.957,805.189z"/>
<g>
	<defs>
		<filter id="Adobe_OpacityMaskFilter_18_" filterUnits="userSpaceOnUse" x="38.451" y="687.325" width="250.354" height="118.147">
			<feColorMatrix  type="matrix" values="1 0 0 0 0  0 1 0 0 0  0 0 1 0 0  0 0 0 1 0"/>
		</filter>
	</defs>
	<mask maskUnits="userSpaceOnUse" x="38.451" y="687.325" width="250.354" height="118.147" id="SVGID_91_">
		<g filter="url(#Adobe_OpacityMaskFilter_18_)">
			<g>
				<g>
					<defs>
						<rect id="SVGID_207_" x="18.731" y="684.24" width="476.306" height="156.389"/>
					</defs>
					<clipPath id="SVGID_208_">
						<use xlink:href="#SVGID_207_"  overflow="visible"/>
					</clipPath>
					<polygon clip-path="url(#SVGID_208_)" fill="#FFFFFF" points="325.652,651.513 518.006,688.685 481.503,930.062 
						289.152,892.888 					"/>
				</g>
				<g>
					<defs>
						<rect id="SVGID_209_" x="18.731" y="684.24" width="476.306" height="156.389"/>
					</defs>
					<clipPath id="SVGID_210_">
						<use xlink:href="#SVGID_209_"  overflow="visible"/>
					</clipPath>
					<polygon clip-path="url(#SVGID_210_)" fill="#010101" points="224.614,631.972 32.261,594.798 -4.232,836.175 188.119,873.355 
											"/>
				</g>
				<g>
					<g>
						<defs>
							<rect id="SVGID_211_" x="18.731" y="684.24" width="476.306" height="156.389"/>
						</defs>
						<clipPath id="SVGID_212_">
							<use xlink:href="#SVGID_211_"  overflow="visible"/>
						</clipPath>
					</g>
					<g>
						<defs>
							<rect id="SVGID_213_" x="18.731" y="684.24" width="476.306" height="156.389"/>
						</defs>
						<defs>
							<polygon id="SVGID_214_" points="338.281,653.947 211.981,629.539 175.486,870.914 301.785,895.322 							"/>
						</defs>
						<clipPath id="SVGID_215_">
							<use xlink:href="#SVGID_213_"  overflow="visible"/>
						</clipPath>
						<clipPath id="SVGID_216_" clip-path="url(#SVGID_215_)">
							<use xlink:href="#SVGID_214_"  overflow="visible"/>
						</clipPath>
						<g transform="matrix(1 -1.490116e-08 0 1 0 0)">
						</g>
					</g>
				</g>
			</g>
		</g>
	</mask>
	<path mask="url(#SVGID_91_)" fill="#FFFFFF" stroke="#FFFFFF" stroke-width="0.5669" stroke-miterlimit="22.9256" d="
		M75.26,805.189c-12.396-10.326-27.933-19.746-34.632-22.922c-0.231-0.078-0.457-0.178-0.693-0.258l0.092-0.02l-0.494-0.213
		c1.095-0.129,2.167-0.268,3.231-0.416c10.264-2.832,33.967-11.303,48.162-21.021c33.428-22.885,56.382-61.826,117.062-72.18
		c23.791-4.061,69.817,14.834,80.557,39.729c-15.797-36.604-99.342-32.602-142.252,8.09c-4.113,3.891-29.966,26.688-46.929,40.703
		c-6.658,5.85-11.709,9.529-14.073,10.787c2.293,1.992,9.812,10.211,13.904,16.854l0.671,0.867H75.26z"/>
	<defs>
		<filter id="Adobe_OpacityMaskFilter_19_" filterUnits="userSpaceOnUse" x="38.451" y="687.325" width="250.354" height="118.147">
			<feColorMatrix  type="matrix" values="1 0 0 0 0  0 1 0 0 0  0 0 1 0 0  0 0 0 1 0"/>
		</filter>
	</defs>
	<mask maskUnits="userSpaceOnUse" x="38.451" y="687.325" width="250.354" height="118.147" id="SVGID_96_">
		<g filter="url(#Adobe_OpacityMaskFilter_19_)">
			<g>
				<g>
					<defs>
						<rect id="SVGID_217_" x="18.731" y="684.24" width="476.306" height="156.389"/>
					</defs>
					<clipPath id="SVGID_218_">
						<use xlink:href="#SVGID_217_"  overflow="visible"/>
					</clipPath>
					<polygon clip-path="url(#SVGID_218_)" fill="#FFFFFF" points="325.652,651.513 518.006,688.685 481.503,930.062 
						289.152,892.888 					"/>
				</g>
				<g>
					<defs>
						<rect id="SVGID_219_" x="18.731" y="684.24" width="476.306" height="156.389"/>
					</defs>
					<clipPath id="SVGID_220_">
						<use xlink:href="#SVGID_219_"  overflow="visible"/>
					</clipPath>
					<polygon clip-path="url(#SVGID_220_)" fill="#010101" points="224.614,631.972 32.261,594.798 -4.232,836.175 188.119,873.355 
											"/>
				</g>
				<g>
					<g>
						<defs>
							<rect id="SVGID_221_" x="18.731" y="684.24" width="476.306" height="156.389"/>
						</defs>
						<clipPath id="SVGID_222_">
							<use xlink:href="#SVGID_221_"  overflow="visible"/>
						</clipPath>
					</g>
					<g>
						<defs>
							<rect id="SVGID_223_" x="18.731" y="684.24" width="476.306" height="156.389"/>
						</defs>
						<defs>
							<polygon id="SVGID_224_" points="338.281,653.947 211.981,629.539 175.486,870.914 301.785,895.322 							"/>
						</defs>
						<clipPath id="SVGID_225_">
							<use xlink:href="#SVGID_223_"  overflow="visible"/>
						</clipPath>
						<clipPath id="SVGID_226_" clip-path="url(#SVGID_225_)">
							<use xlink:href="#SVGID_224_"  overflow="visible"/>
						</clipPath>
						<g transform="matrix(1 -1.490116e-08 0 1 0 0)">
						</g>
					</g>
				</g>
			</g>
		</g>
	</mask>
	<path mask="url(#SVGID_96_)" fill="#FFFFFF" stroke="#FFFFFF" stroke-width="0.5669" stroke-miterlimit="22.9256" d="
		M75.26,805.189c-12.396-10.326-27.933-19.746-34.632-22.922c-0.231-0.078-0.457-0.178-0.693-0.258l0.092-0.02l-0.494-0.213
		c1.095-0.129,2.167-0.268,3.231-0.416c10.264-2.832,33.967-11.303,48.162-21.021c33.428-22.885,56.382-61.826,117.062-72.18
		c23.791-4.061,69.817,14.834,80.557,39.729c-15.797-36.604-99.342-32.602-142.252,8.09c-4.113,3.891-29.966,26.688-46.929,40.703
		c-6.658,5.85-11.709,9.529-14.073,10.787c2.293,1.992,9.812,10.211,13.904,16.854l0.671,0.867H75.26z"/>
</g>
<g>
	<defs>
		<filter id="Adobe_OpacityMaskFilter_20_" filterUnits="userSpaceOnUse" x="106.313" y="725.484" width="167.015" height="79.988">
			<feColorMatrix  type="matrix" values="1 0 0 0 0  0 1 0 0 0  0 0 1 0 0  0 0 0 1 0"/>
		</filter>
	</defs>
	<mask maskUnits="userSpaceOnUse" x="106.313" y="725.484" width="167.015" height="79.988" id="SVGID_101_">
		<g filter="url(#Adobe_OpacityMaskFilter_20_)">
			<g>
				<g>
					<defs>
						<rect id="SVGID_227_" x="82.117" y="716.298" width="345.021" height="92.266"/>
					</defs>
					<clipPath id="SVGID_228_">
						<use xlink:href="#SVGID_227_"  overflow="visible"/>
					</clipPath>
					<polygon clip-path="url(#SVGID_228_)" fill="#FFFFFF" points="319.326,695.466 440.69,718.919 417.349,873.355 295.973,849.9 
											"/>
				</g>
				<g>
					<defs>
						<rect id="SVGID_229_" x="82.117" y="716.298" width="345.021" height="92.266"/>
					</defs>
					<clipPath id="SVGID_230_">
						<use xlink:href="#SVGID_229_"  overflow="visible"/>
					</clipPath>
					<polygon clip-path="url(#SVGID_230_)" fill="#010101" points="213.291,674.968 91.92,651.513 68.573,805.941 189.943,829.4 
											"/>
				</g>
				<g>
					<g>
						<defs>
							<rect id="SVGID_231_" x="82.117" y="716.298" width="345.021" height="92.266"/>
						</defs>
						<clipPath id="SVGID_232_">
							<use xlink:href="#SVGID_231_"  overflow="visible"/>
						</clipPath>
					</g>
					<g>
						<defs>
							<rect id="SVGID_233_" x="82.117" y="716.298" width="345.021" height="92.266"/>
						</defs>
						<defs>
							<polygon id="SVGID_234_" points="332.576,698.029 200.031,672.412 176.684,826.832 309.228,852.445 							"/>
						</defs>
						<clipPath id="SVGID_235_">
							<use xlink:href="#SVGID_233_"  overflow="visible"/>
						</clipPath>
						<clipPath id="SVGID_236_" clip-path="url(#SVGID_235_)">
							<use xlink:href="#SVGID_234_"  overflow="visible"/>
						</clipPath>
						<g transform="matrix(1 1.490116e-08 0 1 -3.051758e-05 0)">
						</g>
					</g>
				</g>
			</g>
		</g>
	</mask>
	<path mask="url(#SVGID_101_)" fill="#FFFFFF" stroke="#FFFFFF" stroke-width="0.5669" stroke-miterlimit="22.9256" d="
		M132.598,805.189c-8.44-7.338-19.736-14.209-24.447-16.447c-0.155-0.059-0.306-0.117-0.463-0.176l0.066-0.012l-0.328-0.139
		c0.725-0.08,1.438-0.176,2.145-0.275c6.828-1.883,22.595-7.521,32.041-13.984c22.229-15.232,37.503-41.125,77.869-48.021
		c15.824-2.701,46.437,9.865,53.587,26.432c-10.507-24.354-66.084-21.682-94.622,5.387c-2.744,2.584-19.938,17.74-31.225,27.062
		c-4.432,3.904-7.788,6.348-9.362,7.186c1.529,1.322,6.527,6.801,9.248,11.213l1.373,1.775H132.598z"/>
	<defs>
		<filter id="Adobe_OpacityMaskFilter_21_" filterUnits="userSpaceOnUse" x="106.313" y="725.484" width="167.015" height="79.988">
			<feColorMatrix  type="matrix" values="1 0 0 0 0  0 1 0 0 0  0 0 1 0 0  0 0 0 1 0"/>
		</filter>
	</defs>
	<mask maskUnits="userSpaceOnUse" x="106.313" y="725.484" width="167.015" height="79.988" id="SVGID_106_">
		<g filter="url(#Adobe_OpacityMaskFilter_21_)">
			<g>
				<g>
					<defs>
						<rect id="SVGID_237_" x="82.117" y="716.298" width="345.021" height="92.266"/>
					</defs>
					<clipPath id="SVGID_238_">
						<use xlink:href="#SVGID_237_"  overflow="visible"/>
					</clipPath>
					<polygon clip-path="url(#SVGID_238_)" fill="#FFFFFF" points="319.326,695.466 440.69,718.919 417.349,873.355 295.973,849.9 
											"/>
				</g>
				<g>
					<defs>
						<rect id="SVGID_239_" x="82.117" y="716.298" width="345.021" height="92.266"/>
					</defs>
					<clipPath id="SVGID_240_">
						<use xlink:href="#SVGID_239_"  overflow="visible"/>
					</clipPath>
					<polygon clip-path="url(#SVGID_240_)" fill="#010101" points="213.291,674.968 91.92,651.513 68.573,805.941 189.943,829.4 
											"/>
				</g>
				<g>
					<g>
						<defs>
							<rect id="SVGID_241_" x="82.117" y="716.298" width="345.021" height="92.266"/>
						</defs>
						<clipPath id="SVGID_242_">
							<use xlink:href="#SVGID_241_"  overflow="visible"/>
						</clipPath>
					</g>
					<g>
						<defs>
							<rect id="SVGID_243_" x="82.117" y="716.298" width="345.021" height="92.266"/>
						</defs>
						<defs>
							<polygon id="SVGID_244_" points="332.576,698.029 200.031,672.412 176.684,826.832 309.228,852.445 							"/>
						</defs>
						<clipPath id="SVGID_245_">
							<use xlink:href="#SVGID_243_"  overflow="visible"/>
						</clipPath>
						<clipPath id="SVGID_246_" clip-path="url(#SVGID_245_)">
							<use xlink:href="#SVGID_244_"  overflow="visible"/>
						</clipPath>
						<g transform="matrix(1 1.490116e-08 0 1 -3.051758e-05 0)">
						</g>
					</g>
				</g>
			</g>
		</g>
	</mask>
	<path mask="url(#SVGID_106_)" fill="#FFFFFF" stroke="#FFFFFF" stroke-width="0.5669" stroke-miterlimit="22.9256" d="
		M132.598,805.189c-8.44-7.338-19.736-14.209-24.447-16.447c-0.155-0.059-0.306-0.117-0.463-0.176l0.066-0.012l-0.328-0.139
		c0.725-0.08,1.438-0.176,2.145-0.275c6.828-1.883,22.595-7.521,32.041-13.984c22.229-15.232,37.503-41.125,77.869-48.021
		c15.824-2.701,46.437,9.865,53.587,26.432c-10.507-24.354-66.084-21.682-94.622,5.387c-2.744,2.584-19.938,17.74-31.225,27.062
		c-4.432,3.904-7.788,6.348-9.362,7.186c1.529,1.322,6.527,6.801,9.248,11.213l1.373,1.775H132.598z"/>
</g>
<g>
	<defs>
		<filter id="Adobe_OpacityMaskFilter_22_" filterUnits="userSpaceOnUse" x="173.654" y="761.083" width="89.286" height="44.391">
			<feColorMatrix  type="matrix" values="1 0 0 0 0  0 1 0 0 0  0 0 1 0 0  0 0 0 1 0"/>
		</filter>
	</defs>
	<mask maskUnits="userSpaceOnUse" x="173.654" y="761.083" width="89.286" height="44.391" id="SVGID_111_">
		<g filter="url(#Adobe_OpacityMaskFilter_22_)">
			<g>
				<g>
					<defs>
						<rect id="SVGID_247_" x="159.843" y="716.298" width="199.947" height="92.266"/>
					</defs>
					<clipPath id="SVGID_248_">
						<use xlink:href="#SVGID_247_"  overflow="visible"/>
					</clipPath>
					<polygon clip-path="url(#SVGID_248_)" fill="#FFFFFF" points="322.634,709.123 373.339,718.919 354.104,846.099 
						303.402,836.304 					"/>
				</g>
				<g>
					<defs>
						<rect id="SVGID_249_" x="159.843" y="716.298" width="199.947" height="92.266"/>
					</defs>
					<clipPath id="SVGID_250_">
						<use xlink:href="#SVGID_249_"  overflow="visible"/>
					</clipPath>
					<polygon clip-path="url(#SVGID_250_)" fill="#010101" points="216.228,688.556 165.521,678.75 146.292,805.941 
						196.995,815.738 					"/>
				</g>
				<g>
					<g>
						<defs>
							<rect id="SVGID_251_" x="159.843" y="716.298" width="199.947" height="92.266"/>
						</defs>
						<clipPath id="SVGID_252_">
							<use xlink:href="#SVGID_251_"  overflow="visible"/>
						</clipPath>
					</g>
					<g>
						<defs>
							<rect id="SVGID_253_" x="159.843" y="716.298" width="199.947" height="92.266"/>
						</defs>
						<defs>
							<polygon id="SVGID_254_" points="335.932,711.687 202.921,685.98 183.692,813.173 316.704,838.882 							"/>
						</defs>
						<clipPath id="SVGID_255_">
							<use xlink:href="#SVGID_253_"  overflow="visible"/>
						</clipPath>
						<clipPath id="SVGID_256_" clip-path="url(#SVGID_255_)">
							<use xlink:href="#SVGID_254_"  overflow="visible"/>
						</clipPath>
						<g transform="matrix(1 -1.490116e-08 0 1 0 0)">
						</g>
					</g>
				</g>
			</g>
		</g>
	</mask>
	<path mask="url(#SVGID_111_)" fill="#FFFFFF" stroke="#FFFFFF" stroke-width="0.5669" stroke-miterlimit="22.9256" d="
		M189.957,805.189c-4.5-4.482-11.934-9.055-14.795-10.412c-0.081-0.035-0.162-0.07-0.246-0.094l0.032-0.01l-0.169-0.068
		c0.383-0.047,0.759-0.096,1.136-0.154c3.621-0.996,11.988-3.979,17.002-7.414c11.8-8.08,19.908-21.82,41.328-25.475
		c8.395-1.439,24.639,5.232,28.435,14.021c-5.576-12.932-35.068-11.52-50.217,2.852c-1.452,1.369-10.579,9.43-16.565,14.369
		c-2.352,2.066-4.133,3.367-4.963,3.809c0.805,0.705,3.459,3.607,4.907,5.955c0.64,0.838,1.319,1.717,2.008,2.621H189.957
		L189.957,805.189z"/>
	<defs>
		<filter id="Adobe_OpacityMaskFilter_23_" filterUnits="userSpaceOnUse" x="173.654" y="761.083" width="89.286" height="44.391">
			<feColorMatrix  type="matrix" values="1 0 0 0 0  0 1 0 0 0  0 0 1 0 0  0 0 0 1 0"/>
		</filter>
	</defs>
	<mask maskUnits="userSpaceOnUse" x="173.654" y="761.083" width="89.286" height="44.391" id="SVGID_116_">
		<g filter="url(#Adobe_OpacityMaskFilter_23_)">
			<g>
				<g>
					<defs>
						<rect id="SVGID_257_" x="159.843" y="716.298" width="199.947" height="92.266"/>
					</defs>
					<clipPath id="SVGID_258_">
						<use xlink:href="#SVGID_257_"  overflow="visible"/>
					</clipPath>
					<polygon clip-path="url(#SVGID_258_)" fill="#FFFFFF" points="322.634,709.123 373.339,718.919 354.104,846.099 
						303.402,836.304 					"/>
				</g>
				<g>
					<defs>
						<rect id="SVGID_259_" x="159.843" y="716.298" width="199.947" height="92.266"/>
					</defs>
					<clipPath id="SVGID_260_">
						<use xlink:href="#SVGID_259_"  overflow="visible"/>
					</clipPath>
					<polygon clip-path="url(#SVGID_260_)" fill="#010101" points="216.228,688.556 165.521,678.75 146.292,805.941 
						196.995,815.738 					"/>
				</g>
				<g>
					<g>
						<defs>
							<rect id="SVGID_261_" x="159.843" y="716.298" width="199.947" height="92.266"/>
						</defs>
						<clipPath id="SVGID_262_">
							<use xlink:href="#SVGID_261_"  overflow="visible"/>
						</clipPath>
					</g>
					<g>
						<defs>
							<rect id="SVGID_263_" x="159.843" y="716.298" width="199.947" height="92.266"/>
						</defs>
						<defs>
							<polygon id="SVGID_264_" points="335.932,711.687 202.921,685.98 183.692,813.173 316.704,838.882 							"/>
						</defs>
						<clipPath id="SVGID_265_">
							<use xlink:href="#SVGID_263_"  overflow="visible"/>
						</clipPath>
						<clipPath id="SVGID_266_" clip-path="url(#SVGID_265_)">
							<use xlink:href="#SVGID_264_"  overflow="visible"/>
						</clipPath>
						<g transform="matrix(1 -1.490116e-08 0 1 0 0)">
						</g>
					</g>
				</g>
			</g>
		</g>
	</mask>
	<path mask="url(#SVGID_116_)" fill="#FFFFFF" stroke="#FFFFFF" stroke-width="0.5669" stroke-miterlimit="22.9256" d="
		M189.957,805.189c-4.5-4.482-11.934-9.055-14.795-10.412c-0.081-0.035-0.162-0.07-0.246-0.094l0.032-0.01l-0.169-0.068
		c0.383-0.047,0.759-0.096,1.136-0.154c3.621-0.996,11.988-3.979,17.002-7.414c11.8-8.08,19.908-21.82,41.328-25.475
		c8.395-1.439,24.639,5.232,28.435,14.021c-5.576-12.932-35.068-11.52-50.217,2.852c-1.452,1.369-10.579,9.43-16.565,14.369
		c-2.352,2.066-4.133,3.367-4.963,3.809c0.805,0.705,3.459,3.607,4.907,5.955c0.64,0.838,1.319,1.717,2.008,2.621H189.957
		L189.957,805.189z"/>
</g>
<path fill="#FFFFFF" stroke="#FFFFFF" stroke-width="0.5669" stroke-miterlimit="22.9256" d="M407.161,555.23
	c7.084-33.25-22.115-89.917-46.584-105.685c-62.826-40.532-110.41-21.02-156.714-26.717c-20.666-2.553-49.948-15.414-59.772-21.137
	c-0.243-0.175-0.487-0.337-0.726-0.523l0.051,0.118l-0.543-0.351c0.693,1.218,1.359,2.438,2.008,3.644
	c5.09,12.77,15.172,43.723,17.193,65.819c4.768,52.033-12.026,105.562,23.574,176.117c13.963,27.672,64.076,60.678,93.485,52.672
	c-43.235,11.77-101.111-77.52-97.455-152.984c0.35-7.232,1.061-51.383,0.708-79.619c0.174-11.364-0.349-19.396-1.005-22.796
	c3.404,0.837,16.033,2.297,24.768,1.429c24.88,0.506,59.682,0.197,65.703-0.176C338.595,440.912,417.573,506.349,407.161,555.23z"/>
<path fill="#FFFFFF" stroke="#FFFFFF" stroke-width="0.5669" stroke-miterlimit="22.9256" d="M407.161,555.23
	c7.084-33.25-22.115-89.917-46.584-105.685c-62.826-40.532-110.41-21.02-156.714-26.717c-20.666-2.553-49.948-15.414-59.772-21.137
	c-0.243-0.175-0.487-0.337-0.726-0.523l0.051,0.118l-0.543-0.351c0.693,1.218,1.359,2.438,2.008,3.644
	c5.09,12.77,15.172,43.723,17.193,65.819c4.768,52.033-12.026,105.562,23.574,176.117c13.963,27.672,64.076,60.678,93.485,52.672
	c-43.235,11.77-101.111-77.52-97.455-152.984c0.35-7.232,1.061-51.383,0.708-79.619c0.174-11.364-0.349-19.396-1.005-22.796
	c3.404,0.837,16.033,2.297,24.768,1.429c24.88,0.506,59.682,0.197,65.703-0.176C338.595,440.912,417.573,506.349,407.161,555.23z"/>
<g>
	<defs>
		<filter id="Adobe_OpacityMaskFilter_24_" filterUnits="userSpaceOnUse" x="142.054" y="400.069" width="266.47" height="300.621">
			<feColorMatrix  type="matrix" values="1 0 0 0 0  0 1 0 0 0  0 0 1 0 0  0 0 0 1 0"/>
		</filter>
	</defs>
	<mask maskUnits="userSpaceOnUse" x="142.054" y="400.069" width="266.47" height="300.621" id="SVGID_121_">
		<g filter="url(#Adobe_OpacityMaskFilter_24_)">
			<g>
				<g>
					<defs>
						<rect id="SVGID_267_" x="104.623" y="397.572" width="306.59" height="464.916"/>
					</defs>
					<clipPath id="SVGID_268_">
						<use xlink:href="#SVGID_267_"  overflow="visible"/>
					</clipPath>
					<polygon clip-path="url(#SVGID_268_)" fill="#FFFFFF" points="487.54,517.359 606.231,703.693 209.355,1026.894 
						90.652,840.564 					"/>
				</g>
				<g>
					<defs>
						<rect id="SVGID_269_" x="104.623" y="397.572" width="306.59" height="464.916"/>
					</defs>
					<clipPath id="SVGID_270_">
						<use xlink:href="#SVGID_269_"  overflow="visible"/>
					</clipPath>
					<polygon clip-path="url(#SVGID_270_)" fill="#010101" points="425.186,419.497 306.484,233.18 -90.393,556.382 28.308,742.699 
											"/>
				</g>
				<g>
					<g>
						<defs>
							<rect id="SVGID_271_" x="104.623" y="397.572" width="306.59" height="464.916"/>
						</defs>
						<clipPath id="SVGID_272_">
							<use xlink:href="#SVGID_271_"  overflow="visible"/>
						</clipPath>
					</g>
					<g>
						<defs>
							<rect id="SVGID_273_" x="104.623" y="397.572" width="306.59" height="464.916"/>
						</defs>
						<defs>
							<polygon id="SVGID_274_" points="495.324,529.595 417.395,407.266 20.511,730.468 98.449,852.798 							"/>
						</defs>
						<clipPath id="SVGID_275_">
							<use xlink:href="#SVGID_273_"  overflow="visible"/>
						</clipPath>
						<clipPath id="SVGID_276_" clip-path="url(#SVGID_275_)">
							<use xlink:href="#SVGID_274_"  overflow="visible"/>
						</clipPath>
						<g transform="matrix(1 0 0 1 3.051758e-05 0)">
						</g>
					</g>
				</g>
			</g>
		</g>
	</mask>
	<path mask="url(#SVGID_121_)" fill="#FFFFFF" stroke="#FFFFFF" stroke-width="0.5669" stroke-miterlimit="22.9256" d="
		M407.161,555.23c7.084-33.25-22.115-89.917-46.584-105.685c-62.826-40.532-110.41-21.02-156.714-26.717
		c-20.666-2.553-49.948-15.414-59.772-21.137c-0.243-0.175-0.487-0.337-0.726-0.523l0.051,0.118l-0.543-0.351
		c0.693,1.218,1.359,2.438,2.008,3.644c5.09,12.77,15.172,43.723,17.193,65.819c4.768,52.033-12.026,105.562,23.574,176.117
		c13.963,27.672,64.076,60.678,93.485,52.672c-43.235,11.77-101.111-77.52-97.455-152.984c0.35-7.232,1.061-51.383,0.708-79.619
		c0.174-11.364-0.349-19.396-1.005-22.796c3.404,0.837,16.033,2.297,24.768,1.429c24.88,0.506,59.682,0.197,65.703-0.176
		C338.595,440.912,417.573,506.349,407.161,555.23z"/>
	<defs>
		<filter id="Adobe_OpacityMaskFilter_25_" filterUnits="userSpaceOnUse" x="142.054" y="400.069" width="266.47" height="300.621">
			<feColorMatrix  type="matrix" values="1 0 0 0 0  0 1 0 0 0  0 0 1 0 0  0 0 0 1 0"/>
		</filter>
	</defs>
	<mask maskUnits="userSpaceOnUse" x="142.054" y="400.069" width="266.47" height="300.621" id="SVGID_126_">
		<g filter="url(#Adobe_OpacityMaskFilter_25_)">
			<g>
				<g>
					<defs>
						<rect id="SVGID_277_" x="104.623" y="397.572" width="306.59" height="464.916"/>
					</defs>
					<clipPath id="SVGID_278_">
						<use xlink:href="#SVGID_277_"  overflow="visible"/>
					</clipPath>
					<polygon clip-path="url(#SVGID_278_)" fill="#FFFFFF" points="487.54,517.359 606.231,703.693 209.355,1026.894 
						90.652,840.564 					"/>
				</g>
				<g>
					<defs>
						<rect id="SVGID_279_" x="104.623" y="397.572" width="306.59" height="464.916"/>
					</defs>
					<clipPath id="SVGID_280_">
						<use xlink:href="#SVGID_279_"  overflow="visible"/>
					</clipPath>
					<polygon clip-path="url(#SVGID_280_)" fill="#010101" points="425.186,419.497 306.484,233.18 -90.393,556.382 28.308,742.699 
											"/>
				</g>
				<g>
					<g>
						<defs>
							<rect id="SVGID_281_" x="104.623" y="397.572" width="306.59" height="464.916"/>
						</defs>
						<clipPath id="SVGID_282_">
							<use xlink:href="#SVGID_281_"  overflow="visible"/>
						</clipPath>
					</g>
					<g>
						<defs>
							<rect id="SVGID_283_" x="104.623" y="397.572" width="306.59" height="464.916"/>
						</defs>
						<defs>
							<polygon id="SVGID_284_" points="495.324,529.595 417.395,407.266 20.511,730.468 98.449,852.798 							"/>
						</defs>
						<clipPath id="SVGID_285_">
							<use xlink:href="#SVGID_283_"  overflow="visible"/>
						</clipPath>
						<clipPath id="SVGID_286_" clip-path="url(#SVGID_285_)">
							<use xlink:href="#SVGID_284_"  overflow="visible"/>
						</clipPath>
						<g transform="matrix(1 0 0 1 3.051758e-05 0)">
						</g>
					</g>
				</g>
			</g>
		</g>
	</mask>
	<path mask="url(#SVGID_126_)" fill="#FFFFFF" stroke="#FFFFFF" stroke-width="0.5669" stroke-miterlimit="22.9256" d="
		M407.161,555.23c7.084-33.25-22.115-89.917-46.584-105.685c-62.826-40.532-110.41-21.02-156.714-26.717
		c-20.666-2.553-49.948-15.414-59.772-21.137c-0.243-0.175-0.487-0.337-0.726-0.523l0.051,0.118l-0.543-0.351
		c0.693,1.218,1.359,2.438,2.008,3.644c5.09,12.77,15.172,43.723,17.193,65.819c4.768,52.033-12.026,105.562,23.574,176.117
		c13.963,27.672,64.076,60.678,93.485,52.672c-43.235,11.77-101.111-77.52-97.455-152.984c0.35-7.232,1.061-51.383,0.708-79.619
		c0.174-11.364-0.349-19.396-1.005-22.796c3.404,0.837,16.033,2.297,24.768,1.429c24.88,0.506,59.682,0.197,65.703-0.176
		C338.595,440.912,417.573,506.349,407.161,555.23z"/>
</g>
</svg>
